<?xml version="1.0" encoding="us-ascii" standalone="no"?><svg xmlns="http://www.w3.org/2000/svg" xmlns:xlink="http://www.w3.org/1999/xlink" contentStyleType="text/css" height="340px" preserveAspectRatio="none" style="width:1211px;height:340px;background:#FFFFFF;" version="1.1" viewBox="0 0 1211 340" width="1211px" zoomAndPan="magnify"><defs/><g><text fill="#000000" font-family="sans-serif" font-size="14" font-weight="bold" lengthAdjust="spacing" textLength="133" x="537.5" y="34.5332">Deadtime insertion</text><line style="stroke:#333333;stroke-width:0.5;" x1="10" x2="10" y1="48.6094" y2="261.6875"/><line style="stroke:#333333;stroke-width:0.5;" x1="1199" x2="1199" y1="48.6094" y2="261.6875"/><line style="stroke:#333333;stroke-width:0.5;stroke-dasharray:3.0,5.0;" x1="94" x2="94" y1="48.6094" y2="261.6875"/><line style="stroke:#333333;stroke-width:0.5;stroke-dasharray:3.0,5.0;" x1="144" x2="144" y1="48.6094" y2="261.6875"/><line style="stroke:#333333;stroke-width:0.5;stroke-dasharray:3.0,5.0;" x1="194" x2="194" y1="48.6094" y2="261.6875"/><line style="stroke:#333333;stroke-width:0.5;stroke-dasharray:3.0,5.0;" x1="244" x2="244" y1="48.6094" y2="261.6875"/><line style="stroke:#333333;stroke-width:0.5;stroke-dasharray:3.0,5.0;" x1="294" x2="294" y1="48.6094" y2="261.6875"/><line style="stroke:#333333;stroke-width:0.5;stroke-dasharray:3.0,5.0;" x1="344" x2="344" y1="48.6094" y2="261.6875"/><line style="stroke:#333333;stroke-width:0.5;stroke-dasharray:3.0,5.0;" x1="394" x2="394" y1="48.6094" y2="261.6875"/><line style="stroke:#333333;stroke-width:0.5;stroke-dasharray:3.0,5.0;" x1="444" x2="444" y1="48.6094" y2="261.6875"/><line style="stroke:#333333;stroke-width:0.5;stroke-dasharray:3.0,5.0;" x1="494" x2="494" y1="48.6094" y2="261.6875"/><line style="stroke:#333333;stroke-width:0.5;stroke-dasharray:3.0,5.0;" x1="544" x2="544" y1="48.6094" y2="261.6875"/><line style="stroke:#333333;stroke-width:0.5;stroke-dasharray:3.0,5.0;" x1="594" x2="594" y1="48.6094" y2="261.6875"/><line style="stroke:#333333;stroke-width:0.5;stroke-dasharray:3.0,5.0;" x1="644" x2="644" y1="48.6094" y2="261.6875"/><line style="stroke:#333333;stroke-width:0.5;stroke-dasharray:3.0,5.0;" x1="694" x2="694" y1="48.6094" y2="261.6875"/><line style="stroke:#333333;stroke-width:0.5;stroke-dasharray:3.0,5.0;" x1="744" x2="744" y1="48.6094" y2="261.6875"/><line style="stroke:#333333;stroke-width:0.5;stroke-dasharray:3.0,5.0;" x1="794" x2="794" y1="48.6094" y2="261.6875"/><line style="stroke:#333333;stroke-width:0.5;stroke-dasharray:3.0,5.0;" x1="844" x2="844" y1="48.6094" y2="261.6875"/><line style="stroke:#333333;stroke-width:0.5;stroke-dasharray:3.0,5.0;" x1="894" x2="894" y1="48.6094" y2="261.6875"/><line style="stroke:#333333;stroke-width:0.5;stroke-dasharray:3.0,5.0;" x1="944" x2="944" y1="48.6094" y2="261.6875"/><line style="stroke:#333333;stroke-width:0.5;stroke-dasharray:3.0,5.0;" x1="994" x2="994" y1="48.6094" y2="261.6875"/><line style="stroke:#333333;stroke-width:0.5;stroke-dasharray:3.0,5.0;" x1="1044" x2="1044" y1="48.6094" y2="261.6875"/><line style="stroke:#333333;stroke-width:0.5;stroke-dasharray:3.0,5.0;" x1="1094" x2="1094" y1="48.6094" y2="261.6875"/><line style="stroke:#333333;stroke-width:0.5;stroke-dasharray:3.0,5.0;" x1="1144" x2="1144" y1="48.6094" y2="261.6875"/><line style="stroke:#333333;stroke-width:0.5;stroke-dasharray:3.0,5.0;" x1="1194" x2="1194" y1="48.6094" y2="261.6875"/><line style="stroke:#333333;stroke-width:0.5;" x1="10" x2="1199" y1="48.6094" y2="48.6094"/><text fill="#333333" font-family="sans-serif" font-size="14" font-weight="bold" lengthAdjust="spacing" textLength="74" x="15" y="69.3379">tim_oc1ref</text><line style="stroke:#008000;stroke-width:2.0;" x1="94" x2="94" y1="70.6094" y2="70.6094"/><line style="stroke:#008000;stroke-width:2.0;" x1="94" x2="94" y1="56.6094" y2="70.6094"/><line style="stroke:#008000;stroke-width:2.0;" x1="94" x2="544" y1="56.6094" y2="56.6094"/><line style="stroke:#008000;stroke-width:2.0;" x1="544" x2="544" y1="56.6094" y2="70.6094"/><line style="stroke:#008000;stroke-width:2.0;" x1="544" x2="1044" y1="70.6094" y2="70.6094"/><line style="stroke:#008000;stroke-width:2.0;" x1="1044" x2="1044" y1="56.6094" y2="70.6094"/><line style="stroke:#008000;stroke-width:2.0;" x1="1044" x2="1194" y1="56.6094" y2="56.6094"/><line style="stroke:#333333;stroke-width:0.5;" x1="10" x2="1199" y1="78.6094" y2="78.6094"/><text fill="#333333" font-family="sans-serif" font-size="14" font-weight="bold" lengthAdjust="spacing" textLength="54" x="15" y="116.9316">tim_oc1</text><line style="stroke:#008000;stroke-width:2.0;" x1="94" x2="94" y1="135.7969" y2="135.7969"/><line style="stroke:#008000;stroke-width:2.0;" x1="94" x2="94" y1="121.7969" y2="135.7969"/><line style="stroke:#008000;stroke-width:2.0;" x1="94" x2="544" y1="121.7969" y2="121.7969"/><line style="stroke:#008000;stroke-width:2.0;" x1="544" x2="544" y1="121.7969" y2="135.7969"/><line style="stroke:#008000;stroke-width:2.0;" x1="544" x2="1144" y1="135.7969" y2="135.7969"/><line style="stroke:#008000;stroke-width:2.0;" x1="1144" x2="1144" y1="121.7969" y2="135.7969"/><line style="stroke:#008000;stroke-width:2.0;" x1="1144" x2="1194" y1="121.7969" y2="121.7969"/><line style="stroke:#8B0000;stroke-width:1.5;" x1="546.5" x2="641.5" y1="113.7969" y2="113.7969"/><polygon fill="#8B0000" points="554.5,117.7969,554.5,109.7969,546.5,113.7969" style="stroke:#8B0000;stroke-width:2.0;"/><polygon fill="#8B0000" points="633.5,117.7969,633.5,109.7969,641.5,113.7969" style="stroke:#8B0000;stroke-width:2.0;"/><text fill="#8B0000" font-family="sans-serif" font-size="12" lengthAdjust="spacing" textLength="3" x="565.5" y="91.0664">&#160;</text><text fill="#8B0000" font-family="sans-serif" font-size="12" lengthAdjust="spacing" textLength="54" x="568.5" y="106.1602">Deadtime</text><line style="stroke:#333333;stroke-width:0.5;" x1="10" x2="1199" y1="143.7969" y2="143.7969"/><text fill="#333333" font-family="sans-serif" font-size="14" font-weight="bold" lengthAdjust="spacing" textLength="63" x="15" y="208.4707">tim_oc1n</text><line style="stroke:#008000;stroke-width:2.0;" x1="94" x2="94" y1="200.9844" y2="200.9844"/><line style="stroke:#008000;stroke-width:2.0;" x1="94" x2="644" y1="200.9844" y2="200.9844"/><line style="stroke:#008000;stroke-width:2.0;" x1="644" x2="644" y1="186.9844" y2="200.9844"/><line style="stroke:#008000;stroke-width:2.0;" x1="644" x2="1044" y1="186.9844" y2="186.9844"/><line style="stroke:#008000;stroke-width:2.0;" x1="1044" x2="1044" y1="186.9844" y2="200.9844"/><line style="stroke:#008000;stroke-width:2.0;" x1="1044" x2="1194" y1="200.9844" y2="200.9844"/><line style="stroke:#8B0000;stroke-width:1.5;" x1="1046.5" x2="1141.5" y1="178.9844" y2="178.9844"/><polygon fill="#8B0000" points="1054.5,182.9844,1054.5,174.9844,1046.5,178.9844" style="stroke:#8B0000;stroke-width:2.0;"/><polygon fill="#8B0000" points="1133.5,182.9844,1133.5,174.9844,1141.5,178.9844" style="stroke:#8B0000;stroke-width:2.0;"/><text fill="#8B0000" font-family="sans-serif" font-size="12" lengthAdjust="spacing" textLength="3" x="1065.5" y="156.2539">&#160;</text><text fill="#8B0000" font-family="sans-serif" font-size="12" lengthAdjust="spacing" textLength="54" x="1068.5" y="171.3477">Deadtime</text><path d="M1044,209.9844 L1044,252.6875 L1141,252.6875 L1141,219.9844 L1131,209.9844 L1044,209.9844 " fill="#FEFFDD" style="stroke:#333333;stroke-width:0.5;"/><path d="M1131,209.9844 L1131,219.9844 L1141,219.9844 L1131,209.9844 " fill="#FEFFDD" style="stroke:#333333;stroke-width:0.5;"/><text fill="#333333" font-family="sans-serif" font-size="13" font-weight="bold" lengthAdjust="spacing" textLength="72" x="1050" y="228.4795">ARR = 0x07</text><text fill="#333333" font-family="sans-serif" font-size="13" font-weight="bold" lengthAdjust="spacing" textLength="72" x="1050" y="244.8311">CCR = 0x04</text><line style="stroke:#333333;stroke-width:2.0;" x1="94" x2="94" y1="261.6875" y2="266.6875"/><line style="stroke:#333333;stroke-width:2.0;" x1="144" x2="144" y1="261.6875" y2="266.6875"/><line style="stroke:#333333;stroke-width:2.0;" x1="194" x2="194" y1="261.6875" y2="266.6875"/><line style="stroke:#333333;stroke-width:2.0;" x1="244" x2="244" y1="261.6875" y2="266.6875"/><line style="stroke:#333333;stroke-width:2.0;" x1="294" x2="294" y1="261.6875" y2="266.6875"/><line style="stroke:#333333;stroke-width:2.0;" x1="344" x2="344" y1="261.6875" y2="266.6875"/><line style="stroke:#333333;stroke-width:2.0;" x1="394" x2="394" y1="261.6875" y2="266.6875"/><line style="stroke:#333333;stroke-width:2.0;" x1="444" x2="444" y1="261.6875" y2="266.6875"/><line style="stroke:#333333;stroke-width:2.0;" x1="494" x2="494" y1="261.6875" y2="266.6875"/><line style="stroke:#333333;stroke-width:2.0;" x1="544" x2="544" y1="261.6875" y2="266.6875"/><line style="stroke:#333333;stroke-width:2.0;" x1="594" x2="594" y1="261.6875" y2="266.6875"/><line style="stroke:#333333;stroke-width:2.0;" x1="644" x2="644" y1="261.6875" y2="266.6875"/><line style="stroke:#333333;stroke-width:2.0;" x1="694" x2="694" y1="261.6875" y2="266.6875"/><line style="stroke:#333333;stroke-width:2.0;" x1="744" x2="744" y1="261.6875" y2="266.6875"/><line style="stroke:#333333;stroke-width:2.0;" x1="794" x2="794" y1="261.6875" y2="266.6875"/><line style="stroke:#333333;stroke-width:2.0;" x1="844" x2="844" y1="261.6875" y2="266.6875"/><line style="stroke:#333333;stroke-width:2.0;" x1="894" x2="894" y1="261.6875" y2="266.6875"/><line style="stroke:#333333;stroke-width:2.0;" x1="944" x2="944" y1="261.6875" y2="266.6875"/><line style="stroke:#333333;stroke-width:2.0;" x1="994" x2="994" y1="261.6875" y2="266.6875"/><line style="stroke:#333333;stroke-width:2.0;" x1="1044" x2="1044" y1="261.6875" y2="266.6875"/><line style="stroke:#333333;stroke-width:2.0;" x1="1094" x2="1094" y1="261.6875" y2="266.6875"/><line style="stroke:#333333;stroke-width:2.0;" x1="1144" x2="1144" y1="261.6875" y2="266.6875"/><line style="stroke:#333333;stroke-width:2.0;" x1="1194" x2="1194" y1="261.6875" y2="266.6875"/><line style="stroke:#333333;stroke-width:2.0;" x1="94" x2="1194" y1="261.6875" y2="261.6875"/><text fill="#000000" font-family="Helvetica" font-size="11" lengthAdjust="spacing" textLength="6" x="91" y="279.1064">0</text><text fill="#000000" font-family="Helvetica" font-size="11" lengthAdjust="spacing" textLength="6" x="541" y="279.1064">9</text><text fill="#000000" font-family="Helvetica" font-size="11" lengthAdjust="spacing" textLength="12" x="638" y="279.1064">11</text><text fill="#000000" font-family="Helvetica" font-size="11" lengthAdjust="spacing" textLength="12" x="1038" y="279.1064">19</text><text fill="#000000" font-family="Helvetica" font-size="11" lengthAdjust="spacing" textLength="12" x="1138" y="279.1064">21</text><line style="stroke:#0000FF;stroke-width:1.5;" x1="1044" x2="1044" y1="56.6094" y2="186.9844"/><polygon fill="#0000FF" points="1041.2638,179.4668,1046.7362,179.4668,1044,186.9844" style="stroke:#0000FF;stroke-width:1.5;"/><text fill="#0000FF" font-family="Serif" font-size="14" lengthAdjust="spacing" textLength="4" x="1044" y="158.6446">&#160;</text><text fill="#0000FF" font-family="Serif" font-size="14" lengthAdjust="spacing" textLength="4" x="1044" y="176.3907">&#160;</text><line style="stroke:#0000FF;stroke-width:1.5;" x1="544" x2="544" y1="56.6094" y2="186.9844"/><polygon fill="#0000FF" points="541.2638,179.4668,546.7362,179.4668,544,186.9844" style="stroke:#0000FF;stroke-width:1.5;"/><text fill="#0000FF" font-family="Serif" font-size="14" lengthAdjust="spacing" textLength="4" x="544" y="158.6446">&#160;</text><text fill="#0000FF" font-family="Serif" font-size="14" lengthAdjust="spacing" textLength="4" x="544" y="176.3907">&#160;</text><line style="stroke:#0000FF;stroke-width:1.5;" x1="1144" x2="1144" y1="56.6094" y2="186.9844"/><polygon fill="#0000FF" points="1141.2638,179.4668,1146.7362,179.4668,1144,186.9844" style="stroke:#0000FF;stroke-width:1.5;"/><text fill="#0000FF" font-family="Serif" font-size="14" lengthAdjust="spacing" textLength="4" x="1144" y="158.6446">&#160;</text><text fill="#0000FF" font-family="Serif" font-size="14" lengthAdjust="spacing" textLength="4" x="1144" y="176.3907">&#160;</text><line style="stroke:#0000FF;stroke-width:1.5;" x1="644" x2="644" y1="56.6094" y2="186.9844"/><polygon fill="#0000FF" points="641.2638,179.4668,646.7362,179.4668,644,186.9844" style="stroke:#0000FF;stroke-width:1.5;"/><text fill="#0000FF" font-family="Serif" font-size="14" lengthAdjust="spacing" textLength="4" x="644" y="158.6446">&#160;</text><text fill="#0000FF" font-family="Serif" font-size="14" lengthAdjust="spacing" textLength="4" x="644" y="176.3907">&#160;</text><rect fill="#DDDDDD" height="27.6094" id="_legend" rx="7.5" ry="7.5" style="stroke:#333333;stroke-width:0.5;" width="471" x="368.5" y="287.5234"/><text fill="#333333" font-family="sans-serif" font-size="14" font-weight="bold" lengthAdjust="spacing" textLength="461" x="373.5" y="307.0566">This is channel CH1 output signal and channel CH1N output signal</text><!--SRC=[TP1HIyCm58MVlR_YqdUn6Q9ip34NqGfZmYRu8aZMtdN1BD4qKwViltkxTjMvML98pZdtoscxHLWPwe7othtZ5nnTEnj6Qa4uKRQOaDUpIfleJq9n1aT3RKawupnEpP9W3K4loB38qyZFGANFkNTBcrMfWIvUELTQ3JiXyqP1fwgHAxnepjiR6CRQcj-fjiglwaj-IkIUo6uYtPFwMu8EXl2AL5PMGsqBya4x2uPoiXdSptM1lDAvifOCoaIWMuQNPS12vrOPL3RxxOvsRM08rgow5MB4TpsvL7YQHQWAbFjMnFlIYVSj6rMM082-XBYibzpU9D0kTyEx1m3HRaI9nptEOWSVBPO3yQ69tPIC-stiij8NBB6o_J_G4l-1IxIeq9iAKlH53MdzWOZ3aBfrEOrWNI2SkX3S0jsC8nsy78_n0kEF-9p3KjQ7K_W6]--></g></svg>