<?xml version="1.0" encoding="us-ascii" standalone="no"?><svg xmlns="http://www.w3.org/2000/svg" xmlns:xlink="http://www.w3.org/1999/xlink" contentStyleType="text/css" height="503px" preserveAspectRatio="none" style="width:552px;height:503px;background:#FFFFFF;" version="1.1" viewBox="0 0 552 503" width="552px" zoomAndPan="magnify"><defs/><g><rect fill="#DDDDDD" height="491.7891" style="stroke:#181818;stroke-width:0.5;" width="384.5" x="26" y="6"/><text fill="#000000" font-family="sans-serif" font-size="13" font-weight="bold" lengthAdjust="spacing" textLength="42" x="197.25" y="19.4951">STM32</text><rect fill="#DDDDDD" height="491.7891" style="stroke:#181818;stroke-width:0.5;" width="104" x="426.5" y="6"/><text fill="#000000" font-family="sans-serif" font-size="13" font-weight="bold" lengthAdjust="spacing" textLength="49" x="454" y="19.4951">Internet</text><rect fill="#FFFFFF" height="384.2188" style="stroke:#181818;stroke-width:1.0;" width="10" x="66.5" y="68.9609"/><rect fill="#FFFFFF" height="30.3516" style="stroke:#181818;stroke-width:1.0;" width="10" x="71.5" y="399.8281"/><rect fill="#FFFFFF" height="331.5156" style="stroke:#181818;stroke-width:1.0;" width="10" x="303.5" y="121.6641"/><rect fill="#FFFFFF" height="30.3516" style="stroke:#181818;stroke-width:1.0;" width="10" x="380" y="202.7188"/><rect fill="none" height="308.5156" style="stroke:#000000;stroke-width:1.5;" width="536.5" x="10" y="136.6641"/><rect fill="none" height="122.4063" style="stroke:#000000;stroke-width:1.5;" width="427" x="20" y="162.0156"/><rect fill="none" height="139.7578" style="stroke:#000000;stroke-width:1.5;" width="516.5" x="20" y="298.4219"/><line style="stroke:#181818;stroke-width:0.5;stroke-dasharray:5.0,5.0;" x1="71" x2="71" y1="58.9609" y2="462.1797"/><line style="stroke:#181818;stroke-width:0.5;stroke-dasharray:5.0,5.0;" x1="308.5" x2="308.5" y1="58.9609" y2="462.1797"/><line style="stroke:#181818;stroke-width:0.5;stroke-dasharray:5.0,5.0;" x1="384.5" x2="384.5" y1="58.9609" y2="462.1797"/><line style="stroke:#181818;stroke-width:0.5;stroke-dasharray:5.0,5.0;" x1="478.5" x2="478.5" y1="58.9609" y2="462.1797"/><rect fill="#E2E2F0" height="31.6094" rx="2.5" ry="2.5" style="stroke:#181818;stroke-width:0.5;" width="83" x="30" y="26.3516"/><text fill="#000000" font-family="sans-serif" font-size="14" lengthAdjust="spacing" textLength="69" x="37" y="47.8848">Application</text><rect fill="#E2E2F0" height="31.6094" rx="2.5" ry="2.5" style="stroke:#181818;stroke-width:0.5;" width="83" x="30" y="461.1797"/><text fill="#000000" font-family="sans-serif" font-size="14" lengthAdjust="spacing" textLength="69" x="37" y="482.7129">Application</text><rect fill="#E2E2F0" height="31.6094" rx="2.5" ry="2.5" style="stroke:#181818;stroke-width:0.5;" width="90" x="263.5" y="26.3516"/><text fill="#000000" font-family="sans-serif" font-size="14" lengthAdjust="spacing" textLength="76" x="270.5" y="47.8848">SNTP Client</text><rect fill="#E2E2F0" height="31.6094" rx="2.5" ry="2.5" style="stroke:#181818;stroke-width:0.5;" width="90" x="263.5" y="461.1797"/><text fill="#000000" font-family="sans-serif" font-size="14" lengthAdjust="spacing" textLength="76" x="270.5" y="482.7129">SNTP Client</text><rect fill="#E2E2F0" height="31.6094" rx="2.5" ry="2.5" style="stroke:#181818;stroke-width:0.5;" width="43" x="363.5" y="26.3516"/><text fill="#000000" font-family="sans-serif" font-size="14" lengthAdjust="spacing" textLength="29" x="370.5" y="47.8848">RTC</text><rect fill="#E2E2F0" height="31.6094" rx="2.5" ry="2.5" style="stroke:#181818;stroke-width:0.5;" width="43" x="363.5" y="461.1797"/><text fill="#000000" font-family="sans-serif" font-size="14" lengthAdjust="spacing" textLength="29" x="370.5" y="482.7129">RTC</text><rect fill="#E2E2F0" height="31.6094" rx="2.5" ry="2.5" style="stroke:#181818;stroke-width:0.5;" width="96" x="430.5" y="26.3516"/><text fill="#000000" font-family="sans-serif" font-size="14" lengthAdjust="spacing" textLength="82" x="437.5" y="47.8848">SNTP Server</text><rect fill="#E2E2F0" height="31.6094" rx="2.5" ry="2.5" style="stroke:#181818;stroke-width:0.5;" width="96" x="430.5" y="461.1797"/><text fill="#000000" font-family="sans-serif" font-size="14" lengthAdjust="spacing" textLength="82" x="437.5" y="482.7129">SNTP Server</text><rect fill="#FFFFFF" height="384.2188" style="stroke:#181818;stroke-width:1.0;" width="10" x="66.5" y="68.9609"/><rect fill="#FFFFFF" height="30.3516" style="stroke:#181818;stroke-width:1.0;" width="10" x="71.5" y="399.8281"/><rect fill="#FFFFFF" height="331.5156" style="stroke:#181818;stroke-width:1.0;" width="10" x="303.5" y="121.6641"/><rect fill="#FFFFFF" height="30.3516" style="stroke:#181818;stroke-width:1.0;" width="10" x="380" y="202.7188"/><polygon fill="#181818" points="373,87.3125,383,91.3125,373,95.3125,377,91.3125" style="stroke:#181818;stroke-width:1.0;"/><line style="stroke:#181818;stroke-width:1.0;" x1="76.5" x2="379" y1="91.3125" y2="91.3125"/><text fill="#000000" font-family="sans-serif" font-size="13" lengthAdjust="spacing" textLength="25" x="83.5" y="86.4561">Init()</text><polygon fill="#181818" points="291.5,117.6641,301.5,121.6641,291.5,125.6641,295.5,121.6641" style="stroke:#181818;stroke-width:1.0;"/><line style="stroke:#181818;stroke-width:1.0;" x1="76.5" x2="297.5" y1="121.6641" y2="121.6641"/><text fill="#000000" font-family="sans-serif" font-size="13" lengthAdjust="spacing" textLength="208" x="83.5" y="116.8076">Start(APP_SNTP_SERVER_ADDR)</text><path d="M10,136.6641 L83,136.6641 L83,145.0156 L73,155.0156 L10,155.0156 L10,136.6641 " fill="#EEEEEE" style="stroke:#000000;stroke-width:1.5;"/><rect fill="none" height="308.5156" style="stroke:#000000;stroke-width:1.5;" width="536.5" x="10" y="136.6641"/><text fill="#000000" font-family="sans-serif" font-size="13" font-weight="bold" lengthAdjust="spacing" textLength="28" x="25" y="151.1592">loop</text><path d="M20,162.0156 L442,162.0156 L442,170.3672 L432,180.3672 L20,180.3672 L20,162.0156 " fill="#EEEEEE" style="stroke:#000000;stroke-width:1.5;"/><rect fill="none" height="122.4063" style="stroke:#000000;stroke-width:1.5;" width="427" x="20" y="162.0156"/><text fill="#000000" font-family="sans-serif" font-size="13" font-weight="bold" lengthAdjust="spacing" textLength="377" x="35" y="176.5107">Every APP_SNTP_CLIENT_SYSTEM_TIME_LOG_PERIOD_MS</text><polygon fill="#181818" points="368,198.7188,378,202.7188,368,206.7188,372,202.7188" style="stroke:#181818;stroke-width:1.0;"/><line style="stroke:#181818;stroke-width:1.0;" x1="76.5" x2="374" y1="202.7188" y2="202.7188"/><text fill="#000000" font-family="sans-serif" font-size="13" lengthAdjust="spacing" textLength="57" x="83.5" y="197.8623">GetTime()</text><polygon fill="#181818" points="87.5,229.0703,77.5,233.0703,87.5,237.0703,83.5,233.0703" style="stroke:#181818;stroke-width:1.0;"/><line style="stroke:#181818;stroke-width:1.0;" x1="81.5" x2="384" y1="233.0703" y2="233.0703"/><text fill="#000000" font-family="sans-serif" font-size="13" lengthAdjust="spacing" textLength="73" x="93.5" y="228.2139">SystemTime</text><line style="stroke:#181818;stroke-width:1.0;" x1="76.5" x2="118.5" y1="263.4219" y2="263.4219"/><line style="stroke:#181818;stroke-width:1.0;" x1="118.5" x2="118.5" y1="263.4219" y2="276.4219"/><line style="stroke:#181818;stroke-width:1.0;" x1="77.5" x2="118.5" y1="276.4219" y2="276.4219"/><polygon fill="#181818" points="87.5,272.4219,77.5,276.4219,87.5,280.4219,83.5,276.4219" style="stroke:#181818;stroke-width:1.0;"/><text fill="#000000" font-family="sans-serif" font-size="13" lengthAdjust="spacing" textLength="102" x="83.5" y="258.5654">print SystemTime</text><path d="M20,298.4219 L247,298.4219 L247,306.7734 L237,316.7734 L20,316.7734 L20,298.4219 " fill="#EEEEEE" style="stroke:#000000;stroke-width:1.5;"/><rect fill="none" height="139.7578" style="stroke:#000000;stroke-width:1.5;" width="516.5" x="20" y="298.4219"/><text fill="#000000" font-family="sans-serif" font-size="13" font-weight="bold" lengthAdjust="spacing" textLength="182" x="35" y="312.917">Every SNTP_UPDATE_DELAY</text><polygon fill="#181818" points="466.5,335.125,476.5,339.125,466.5,343.125,470.5,339.125" style="stroke:#181818;stroke-width:1.0;"/><line style="stroke:#181818;stroke-width:1.0;" x1="313.5" x2="472.5" y1="339.125" y2="339.125"/><text fill="#000000" font-family="sans-serif" font-size="13" lengthAdjust="spacing" textLength="115" x="320.5" y="334.2686">Send SNTP request</text><polygon fill="#181818" points="324.5,365.4766,314.5,369.4766,324.5,373.4766,320.5,369.4766" style="stroke:#181818;stroke-width:1.0;"/><line style="stroke:#181818;stroke-width:1.0;" x1="318.5" x2="477.5" y1="369.4766" y2="369.4766"/><text fill="#000000" font-family="sans-serif" font-size="13" lengthAdjust="spacing" textLength="141" x="330.5" y="364.6201">Response: NetworkTime</text><polygon fill="#181818" points="92.5,395.8281,82.5,399.8281,92.5,403.8281,88.5,399.8281" style="stroke:#181818;stroke-width:1.0;"/><line style="stroke:#181818;stroke-width:1.0;" x1="86.5" x2="302.5" y1="399.8281" y2="399.8281"/><text fill="#000000" font-family="sans-serif" font-size="13" lengthAdjust="spacing" textLength="141" x="98.5" y="394.9717">Inform new NetworkTime</text><polygon fill="#181818" points="373,426.1797,383,430.1797,373,434.1797,377,430.1797" style="stroke:#181818;stroke-width:1.0;"/><line style="stroke:#181818;stroke-width:1.0;" x1="76.5" x2="379" y1="430.1797" y2="430.1797"/><text fill="#000000" font-family="sans-serif" font-size="13" lengthAdjust="spacing" textLength="131" x="83.5" y="425.3232">SetTime(NetworkTime)</text><!--SRC=[RL7BQiCm4BphAvQSKe8lxSsKWeb5CCI9iTH2Ji99jaKqaLHPUVrz9RcDRLg39TapEpkpskehC5u-FHBJM2TtqZJAmIGpvY1tZPDQJQ1fmN-F2Mp5AvWV92eN2TrnpAdvF69-9wZsiDLNGlm2XN9e5Rf_91dQCzfOrXtxocRdvBbn6CqGlq3o4hHJhoVTzE7-h_CocwN0d6ympQfA1771QFr6Qv7bUUtP1wqDa0-hJmQextI3Et6-BEYA2xPXd9Q25oKLo_L2LBGkrhae6G7_z0v2gmKwBe_eRVnYpqd0aiJRkBKEZm4U5lej1MEbppuWXBXav2ewUgtoZ5EHqsMs8L6bInc4ka7vDg4sJj7YrmbR5taTsiybXHfRerMBAQpGNRJzl3lhDRsvaAfGxzeUGU7b3tTu0Umd_83JpM6Ferlp1iFx3G00]--></g></svg>