<svg xmlns="http://www.w3.org/2000/svg" xmlns:xlink="http://www.w3.org/1999/xlink" contentStyleType="text/css" data-diagram-type="TIMING" height="340px" preserveAspectRatio="none" style="width:989px;height:340px;background:#FFFFFF;" version="1.1" viewBox="0 0 989 340" width="989px" zoomAndPan="magnify"><title>Timer Synchronization Signal Timing</title><defs/><g><g class="title" data-source-line="1"><text fill="#000000" font-family="sans-serif" font-size="14" font-weight="bold" lengthAdjust="spacing" textLength="290.1992" x="348.2178" y="32.9951">Timer Synchronization Signal Timing</text></g><line style="stroke:#333333;stroke-width:0.5;" x1="10" x2="10" y1="47.2969" y2="264.4844"/><line style="stroke:#333333;stroke-width:0.5;" x1="977.6348" x2="977.6348" y1="47.2969" y2="264.4844"/><line style="stroke:#333333;stroke-width:0.5;stroke-dasharray:3.0,5.0;" x1="22.6348" x2="22.6348" y1="47.2969" y2="264.4844"/><line style="stroke:#333333;stroke-width:0.5;stroke-dasharray:3.0,5.0;" x1="72.6348" x2="72.6348" y1="47.2969" y2="264.4844"/><line style="stroke:#333333;stroke-width:0.5;stroke-dasharray:3.0,5.0;" x1="122.6348" x2="122.6348" y1="47.2969" y2="264.4844"/><line style="stroke:#333333;stroke-width:0.5;stroke-dasharray:3.0,5.0;" x1="172.6348" x2="172.6348" y1="47.2969" y2="264.4844"/><line style="stroke:#333333;stroke-width:0.5;stroke-dasharray:3.0,5.0;" x1="222.6348" x2="222.6348" y1="47.2969" y2="264.4844"/><line style="stroke:#333333;stroke-width:0.5;stroke-dasharray:3.0,5.0;" x1="272.6348" x2="272.6348" y1="47.2969" y2="264.4844"/><line style="stroke:#333333;stroke-width:0.5;stroke-dasharray:3.0,5.0;" x1="322.6348" x2="322.6348" y1="47.2969" y2="264.4844"/><line style="stroke:#333333;stroke-width:0.5;stroke-dasharray:3.0,5.0;" x1="372.6348" x2="372.6348" y1="47.2969" y2="264.4844"/><line style="stroke:#333333;stroke-width:0.5;stroke-dasharray:3.0,5.0;" x1="422.6348" x2="422.6348" y1="47.2969" y2="264.4844"/><line style="stroke:#333333;stroke-width:0.5;stroke-dasharray:3.0,5.0;" x1="472.6348" x2="472.6348" y1="47.2969" y2="264.4844"/><line style="stroke:#333333;stroke-width:0.5;stroke-dasharray:3.0,5.0;" x1="522.6348" x2="522.6348" y1="47.2969" y2="264.4844"/><line style="stroke:#333333;stroke-width:0.5;stroke-dasharray:3.0,5.0;" x1="572.6348" x2="572.6348" y1="47.2969" y2="264.4844"/><line style="stroke:#333333;stroke-width:0.5;stroke-dasharray:3.0,5.0;" x1="622.6348" x2="622.6348" y1="47.2969" y2="264.4844"/><line style="stroke:#333333;stroke-width:0.5;stroke-dasharray:3.0,5.0;" x1="672.6348" x2="672.6348" y1="47.2969" y2="264.4844"/><line style="stroke:#333333;stroke-width:0.5;stroke-dasharray:3.0,5.0;" x1="722.6348" x2="722.6348" y1="47.2969" y2="264.4844"/><line style="stroke:#333333;stroke-width:0.5;stroke-dasharray:3.0,5.0;" x1="772.6348" x2="772.6348" y1="47.2969" y2="264.4844"/><line style="stroke:#333333;stroke-width:0.5;stroke-dasharray:3.0,5.0;" x1="822.6348" x2="822.6348" y1="47.2969" y2="264.4844"/><line style="stroke:#333333;stroke-width:0.5;stroke-dasharray:3.0,5.0;" x1="872.6348" x2="872.6348" y1="47.2969" y2="264.4844"/><line style="stroke:#333333;stroke-width:0.5;stroke-dasharray:3.0,5.0;" x1="922.6348" x2="922.6348" y1="47.2969" y2="264.4844"/><line style="stroke:#333333;stroke-width:0.5;stroke-dasharray:3.0,5.0;" x1="972.6348" x2="972.6348" y1="47.2969" y2="264.4844"/><line style="stroke:#333333;stroke-width:0.5;" x1="10" x2="977.6348" y1="47.2969" y2="47.2969"/><text fill="#333333" font-family="sans-serif" font-size="14" font-weight="bold" lengthAdjust="spacing" textLength="128.4678" x="15" y="60.292">External Trigger</text><line style="stroke:#333333;stroke-width:0.5;" x1="10" x2="144.4678" y1="64.5938" y2="64.5938"/><line style="stroke:#333333;stroke-width:0.5;" x1="144.4678" x2="154.4678" y1="64.5938" y2="47.2969"/><text fill="#333333" font-family="sans-serif" font-size="12" lengthAdjust="spacing" textLength="7.6348" x="15" y="94.748">0</text><text fill="#333333" font-family="sans-serif" font-size="12" lengthAdjust="spacing" textLength="7.6348" x="15" y="74.748">1</text><line style="stroke:#006400;stroke-width:2;" x1="22.6348" x2="72.6348" y1="89.5938" y2="89.5938"/><line style="stroke:#006400;stroke-width:2;" x1="72.6348" x2="122.6348" y1="89.5938" y2="89.5938"/><line style="stroke:#006400;stroke-width:2;" x1="122.6348" x2="172.6348" y1="89.5938" y2="89.5938"/><line style="stroke:#006400;stroke-width:2;" x1="172.6348" x2="222.6348" y1="69.5938" y2="69.5938"/><line style="stroke:#006400;stroke-width:2;" x1="222.6348" x2="272.6348" y1="69.5938" y2="69.5938"/><line style="stroke:#006400;stroke-width:2;" x1="272.6348" x2="322.6348" y1="69.5938" y2="69.5938"/><line style="stroke:#006400;stroke-width:2;" x1="322.6348" x2="372.6348" y1="69.5938" y2="69.5938"/><line style="stroke:#006400;stroke-width:2;" x1="372.6348" x2="422.6348" y1="69.5938" y2="69.5938"/><line style="stroke:#006400;stroke-width:2;" x1="422.6348" x2="472.6348" y1="69.5938" y2="69.5938"/><line style="stroke:#006400;stroke-width:2;" x1="472.6348" x2="522.6348" y1="69.5938" y2="69.5938"/><line style="stroke:#006400;stroke-width:2;" x1="522.6348" x2="572.6348" y1="69.5938" y2="69.5938"/><line style="stroke:#006400;stroke-width:2;" x1="572.6348" x2="622.6348" y1="69.5938" y2="69.5938"/><line style="stroke:#006400;stroke-width:2;" x1="622.6348" x2="672.6348" y1="69.5938" y2="69.5938"/><line style="stroke:#006400;stroke-width:2;" x1="672.6348" x2="722.6348" y1="69.5938" y2="69.5938"/><line style="stroke:#006400;stroke-width:2;" x1="722.6348" x2="772.6348" y1="69.5938" y2="69.5938"/><line style="stroke:#006400;stroke-width:2;" x1="772.6348" x2="822.6348" y1="69.5938" y2="69.5938"/><line style="stroke:#006400;stroke-width:2;" x1="822.6348" x2="872.6348" y1="69.5938" y2="69.5938"/><line style="stroke:#006400;stroke-width:2;" x1="872.6348" x2="922.6348" y1="89.5938" y2="89.5938"/><line style="stroke:#006400;stroke-width:2;" x1="922.6348" x2="972.6348" y1="89.5938" y2="89.5938"/><line style="stroke:#006400;stroke-width:2;" x1="72.6348" x2="72.6348" y1="89.5938" y2="89.5938"/><line style="stroke:#006400;stroke-width:2;" x1="122.6348" x2="122.6348" y1="89.5938" y2="89.5938"/><line style="stroke:#006400;stroke-width:2;" x1="172.6348" x2="172.6348" y1="69.5938" y2="89.5938"/><line style="stroke:#006400;stroke-width:2;" x1="222.6348" x2="222.6348" y1="69.5938" y2="69.5938"/><line style="stroke:#006400;stroke-width:2;" x1="272.6348" x2="272.6348" y1="69.5938" y2="69.5938"/><line style="stroke:#006400;stroke-width:2;" x1="322.6348" x2="322.6348" y1="69.5938" y2="69.5938"/><line style="stroke:#006400;stroke-width:2;" x1="372.6348" x2="372.6348" y1="69.5938" y2="69.5938"/><line style="stroke:#006400;stroke-width:2;" x1="422.6348" x2="422.6348" y1="69.5938" y2="69.5938"/><line style="stroke:#006400;stroke-width:2;" x1="472.6348" x2="472.6348" y1="69.5938" y2="69.5938"/><line style="stroke:#006400;stroke-width:2;" x1="522.6348" x2="522.6348" y1="69.5938" y2="69.5938"/><line style="stroke:#006400;stroke-width:2;" x1="572.6348" x2="572.6348" y1="69.5938" y2="69.5938"/><line style="stroke:#006400;stroke-width:2;" x1="622.6348" x2="622.6348" y1="69.5938" y2="69.5938"/><line style="stroke:#006400;stroke-width:2;" x1="672.6348" x2="672.6348" y1="69.5938" y2="69.5938"/><line style="stroke:#006400;stroke-width:2;" x1="722.6348" x2="722.6348" y1="69.5938" y2="69.5938"/><line style="stroke:#006400;stroke-width:2;" x1="772.6348" x2="772.6348" y1="69.5938" y2="69.5938"/><line style="stroke:#006400;stroke-width:2;" x1="822.6348" x2="822.6348" y1="69.5938" y2="69.5938"/><line style="stroke:#006400;stroke-width:2;" x1="872.6348" x2="872.6348" y1="69.5938" y2="89.5938"/><line style="stroke:#006400;stroke-width:2;" x1="922.6348" x2="922.6348" y1="89.5938" y2="89.5938"/><line style="stroke:#333333;stroke-width:0.5;" x1="10" x2="977.6348" y1="101.5938" y2="101.5938"/><text fill="#333333" font-family="sans-serif" font-size="14" font-weight="bold" lengthAdjust="spacing" textLength="151.8262" x="15" y="114.5889">TIMx Output Signal</text><line style="stroke:#333333;stroke-width:0.5;" x1="10" x2="167.8262" y1="118.8906" y2="118.8906"/><line style="stroke:#333333;stroke-width:0.5;" x1="167.8262" x2="177.8262" y1="118.8906" y2="101.5938"/><text fill="#333333" font-family="sans-serif" font-size="12" lengthAdjust="spacing" textLength="7.6348" x="15" y="149.0449">0</text><text fill="#333333" font-family="sans-serif" font-size="12" lengthAdjust="spacing" textLength="7.6348" x="15" y="129.0449">1</text><line style="stroke:#006400;stroke-width:2;" x1="22.6348" x2="72.6348" y1="143.8906" y2="143.8906"/><line style="stroke:#006400;stroke-width:2;" x1="72.6348" x2="122.6348" y1="143.8906" y2="143.8906"/><line style="stroke:#006400;stroke-width:2;" x1="122.6348" x2="172.6348" y1="143.8906" y2="143.8906"/><line style="stroke:#006400;stroke-width:2;" x1="172.6348" x2="222.6348" y1="143.8906" y2="143.8906"/><line style="stroke:#006400;stroke-width:2;" x1="222.6348" x2="272.6348" y1="123.8906" y2="123.8906"/><line style="stroke:#006400;stroke-width:2;" x1="272.6348" x2="322.6348" y1="143.8906" y2="143.8906"/><line style="stroke:#006400;stroke-width:2;" x1="322.6348" x2="372.6348" y1="123.8906" y2="123.8906"/><line style="stroke:#006400;stroke-width:2;" x1="372.6348" x2="422.6348" y1="143.8906" y2="143.8906"/><line style="stroke:#006400;stroke-width:2;" x1="422.6348" x2="472.6348" y1="123.8906" y2="123.8906"/><line style="stroke:#006400;stroke-width:2;" x1="472.6348" x2="522.6348" y1="143.8906" y2="143.8906"/><line style="stroke:#006400;stroke-width:2;" x1="522.6348" x2="572.6348" y1="123.8906" y2="123.8906"/><line style="stroke:#006400;stroke-width:2;" x1="572.6348" x2="622.6348" y1="143.8906" y2="143.8906"/><line style="stroke:#006400;stroke-width:2;" x1="622.6348" x2="672.6348" y1="123.8906" y2="123.8906"/><line style="stroke:#006400;stroke-width:2;" x1="672.6348" x2="722.6348" y1="143.8906" y2="143.8906"/><line style="stroke:#006400;stroke-width:2;" x1="722.6348" x2="772.6348" y1="123.8906" y2="123.8906"/><line style="stroke:#006400;stroke-width:2;" x1="772.6348" x2="822.6348" y1="143.8906" y2="143.8906"/><line style="stroke:#006400;stroke-width:2;" x1="822.6348" x2="872.6348" y1="143.8906" y2="143.8906"/><line style="stroke:#006400;stroke-width:2;" x1="872.6348" x2="922.6348" y1="143.8906" y2="143.8906"/><line style="stroke:#006400;stroke-width:2;" x1="922.6348" x2="972.6348" y1="143.8906" y2="143.8906"/><line style="stroke:#006400;stroke-width:2;" x1="72.6348" x2="72.6348" y1="143.8906" y2="143.8906"/><line style="stroke:#006400;stroke-width:2;" x1="122.6348" x2="122.6348" y1="143.8906" y2="143.8906"/><line style="stroke:#006400;stroke-width:2;" x1="172.6348" x2="172.6348" y1="143.8906" y2="143.8906"/><line style="stroke:#006400;stroke-width:2;" x1="222.6348" x2="222.6348" y1="123.8906" y2="143.8906"/><line style="stroke:#006400;stroke-width:2;" x1="272.6348" x2="272.6348" y1="123.8906" y2="143.8906"/><line style="stroke:#006400;stroke-width:2;" x1="322.6348" x2="322.6348" y1="123.8906" y2="143.8906"/><line style="stroke:#006400;stroke-width:2;" x1="372.6348" x2="372.6348" y1="123.8906" y2="143.8906"/><line style="stroke:#006400;stroke-width:2;" x1="422.6348" x2="422.6348" y1="123.8906" y2="143.8906"/><line style="stroke:#006400;stroke-width:2;" x1="472.6348" x2="472.6348" y1="123.8906" y2="143.8906"/><line style="stroke:#006400;stroke-width:2;" x1="522.6348" x2="522.6348" y1="123.8906" y2="143.8906"/><line style="stroke:#006400;stroke-width:2;" x1="572.6348" x2="572.6348" y1="123.8906" y2="143.8906"/><line style="stroke:#006400;stroke-width:2;" x1="622.6348" x2="622.6348" y1="123.8906" y2="143.8906"/><line style="stroke:#006400;stroke-width:2;" x1="672.6348" x2="672.6348" y1="123.8906" y2="143.8906"/><line style="stroke:#006400;stroke-width:2;" x1="722.6348" x2="722.6348" y1="123.8906" y2="143.8906"/><line style="stroke:#006400;stroke-width:2;" x1="772.6348" x2="772.6348" y1="123.8906" y2="143.8906"/><line style="stroke:#006400;stroke-width:2;" x1="822.6348" x2="822.6348" y1="143.8906" y2="143.8906"/><line style="stroke:#006400;stroke-width:2;" x1="872.6348" x2="872.6348" y1="143.8906" y2="143.8906"/><line style="stroke:#006400;stroke-width:2;" x1="922.6348" x2="922.6348" y1="143.8906" y2="143.8906"/><line style="stroke:#333333;stroke-width:0.5;" x1="10" x2="977.6348" y1="155.8906" y2="155.8906"/><text fill="#333333" font-family="sans-serif" font-size="14" font-weight="bold" lengthAdjust="spacing" textLength="151.9219" x="15" y="168.8857">TIMy Output Signal</text><line style="stroke:#333333;stroke-width:0.5;" x1="10" x2="167.9219" y1="173.1875" y2="173.1875"/><line style="stroke:#333333;stroke-width:0.5;" x1="167.9219" x2="177.9219" y1="173.1875" y2="155.8906"/><text fill="#333333" font-family="sans-serif" font-size="12" lengthAdjust="spacing" textLength="7.6348" x="15" y="203.3418">0</text><text fill="#333333" font-family="sans-serif" font-size="12" lengthAdjust="spacing" textLength="7.6348" x="15" y="183.3418">1</text><line style="stroke:#006400;stroke-width:2;" x1="22.6348" x2="72.6348" y1="198.1875" y2="198.1875"/><line style="stroke:#006400;stroke-width:2;" x1="72.6348" x2="122.6348" y1="198.1875" y2="198.1875"/><line style="stroke:#006400;stroke-width:2;" x1="122.6348" x2="172.6348" y1="198.1875" y2="198.1875"/><line style="stroke:#006400;stroke-width:2;" x1="172.6348" x2="222.6348" y1="198.1875" y2="198.1875"/><line style="stroke:#006400;stroke-width:2;" x1="222.6348" x2="272.6348" y1="178.1875" y2="178.1875"/><line style="stroke:#006400;stroke-width:2;" x1="272.6348" x2="322.6348" y1="198.1875" y2="198.1875"/><line style="stroke:#006400;stroke-width:2;" x1="322.6348" x2="372.6348" y1="178.1875" y2="178.1875"/><line style="stroke:#006400;stroke-width:2;" x1="372.6348" x2="422.6348" y1="198.1875" y2="198.1875"/><line style="stroke:#006400;stroke-width:2;" x1="422.6348" x2="472.6348" y1="178.1875" y2="178.1875"/><line style="stroke:#006400;stroke-width:2;" x1="472.6348" x2="522.6348" y1="198.1875" y2="198.1875"/><line style="stroke:#006400;stroke-width:2;" x1="522.6348" x2="572.6348" y1="178.1875" y2="178.1875"/><line style="stroke:#006400;stroke-width:2;" x1="572.6348" x2="622.6348" y1="198.1875" y2="198.1875"/><line style="stroke:#006400;stroke-width:2;" x1="622.6348" x2="672.6348" y1="178.1875" y2="178.1875"/><line style="stroke:#006400;stroke-width:2;" x1="672.6348" x2="722.6348" y1="198.1875" y2="198.1875"/><line style="stroke:#006400;stroke-width:2;" x1="722.6348" x2="772.6348" y1="178.1875" y2="178.1875"/><line style="stroke:#006400;stroke-width:2;" x1="772.6348" x2="822.6348" y1="198.1875" y2="198.1875"/><line style="stroke:#006400;stroke-width:2;" x1="822.6348" x2="872.6348" y1="198.1875" y2="198.1875"/><line style="stroke:#006400;stroke-width:2;" x1="872.6348" x2="922.6348" y1="198.1875" y2="198.1875"/><line style="stroke:#006400;stroke-width:2;" x1="922.6348" x2="972.6348" y1="198.1875" y2="198.1875"/><line style="stroke:#006400;stroke-width:2;" x1="72.6348" x2="72.6348" y1="198.1875" y2="198.1875"/><line style="stroke:#006400;stroke-width:2;" x1="122.6348" x2="122.6348" y1="198.1875" y2="198.1875"/><line style="stroke:#006400;stroke-width:2;" x1="172.6348" x2="172.6348" y1="198.1875" y2="198.1875"/><line style="stroke:#006400;stroke-width:2;" x1="222.6348" x2="222.6348" y1="178.1875" y2="198.1875"/><line style="stroke:#006400;stroke-width:2;" x1="272.6348" x2="272.6348" y1="178.1875" y2="198.1875"/><line style="stroke:#006400;stroke-width:2;" x1="322.6348" x2="322.6348" y1="178.1875" y2="198.1875"/><line style="stroke:#006400;stroke-width:2;" x1="372.6348" x2="372.6348" y1="178.1875" y2="198.1875"/><line style="stroke:#006400;stroke-width:2;" x1="422.6348" x2="422.6348" y1="178.1875" y2="198.1875"/><line style="stroke:#006400;stroke-width:2;" x1="472.6348" x2="472.6348" y1="178.1875" y2="198.1875"/><line style="stroke:#006400;stroke-width:2;" x1="522.6348" x2="522.6348" y1="178.1875" y2="198.1875"/><line style="stroke:#006400;stroke-width:2;" x1="572.6348" x2="572.6348" y1="178.1875" y2="198.1875"/><line style="stroke:#006400;stroke-width:2;" x1="622.6348" x2="622.6348" y1="178.1875" y2="198.1875"/><line style="stroke:#006400;stroke-width:2;" x1="672.6348" x2="672.6348" y1="178.1875" y2="198.1875"/><line style="stroke:#006400;stroke-width:2;" x1="722.6348" x2="722.6348" y1="178.1875" y2="198.1875"/><line style="stroke:#006400;stroke-width:2;" x1="772.6348" x2="772.6348" y1="178.1875" y2="198.1875"/><line style="stroke:#006400;stroke-width:2;" x1="822.6348" x2="822.6348" y1="198.1875" y2="198.1875"/><line style="stroke:#006400;stroke-width:2;" x1="872.6348" x2="872.6348" y1="198.1875" y2="198.1875"/><line style="stroke:#006400;stroke-width:2;" x1="922.6348" x2="922.6348" y1="198.1875" y2="198.1875"/><line style="stroke:#333333;stroke-width:0.5;" x1="10" x2="977.6348" y1="210.1875" y2="210.1875"/><text fill="#333333" font-family="sans-serif" font-size="14" font-weight="bold" lengthAdjust="spacing" textLength="150.9443" x="15" y="223.1826">TIMz Output Signal</text><line style="stroke:#333333;stroke-width:0.5;" x1="10" x2="166.9443" y1="227.4844" y2="227.4844"/><line style="stroke:#333333;stroke-width:0.5;" x1="166.9443" x2="176.9443" y1="227.4844" y2="210.1875"/><text fill="#333333" font-family="sans-serif" font-size="12" lengthAdjust="spacing" textLength="7.6348" x="15" y="257.6387">0</text><text fill="#333333" font-family="sans-serif" font-size="12" lengthAdjust="spacing" textLength="7.6348" x="15" y="237.6387">1</text><line style="stroke:#006400;stroke-width:2;" x1="22.6348" x2="72.6348" y1="252.4844" y2="252.4844"/><line style="stroke:#006400;stroke-width:2;" x1="72.6348" x2="122.6348" y1="252.4844" y2="252.4844"/><line style="stroke:#006400;stroke-width:2;" x1="122.6348" x2="172.6348" y1="252.4844" y2="252.4844"/><line style="stroke:#006400;stroke-width:2;" x1="172.6348" x2="222.6348" y1="252.4844" y2="252.4844"/><line style="stroke:#006400;stroke-width:2;" x1="222.6348" x2="272.6348" y1="232.4844" y2="232.4844"/><line style="stroke:#006400;stroke-width:2;" x1="272.6348" x2="322.6348" y1="252.4844" y2="252.4844"/><line style="stroke:#006400;stroke-width:2;" x1="322.6348" x2="372.6348" y1="232.4844" y2="232.4844"/><line style="stroke:#006400;stroke-width:2;" x1="372.6348" x2="422.6348" y1="252.4844" y2="252.4844"/><line style="stroke:#006400;stroke-width:2;" x1="422.6348" x2="472.6348" y1="232.4844" y2="232.4844"/><line style="stroke:#006400;stroke-width:2;" x1="472.6348" x2="522.6348" y1="252.4844" y2="252.4844"/><line style="stroke:#006400;stroke-width:2;" x1="522.6348" x2="572.6348" y1="232.4844" y2="232.4844"/><line style="stroke:#006400;stroke-width:2;" x1="572.6348" x2="622.6348" y1="252.4844" y2="252.4844"/><line style="stroke:#006400;stroke-width:2;" x1="622.6348" x2="672.6348" y1="232.4844" y2="232.4844"/><line style="stroke:#006400;stroke-width:2;" x1="672.6348" x2="722.6348" y1="252.4844" y2="252.4844"/><line style="stroke:#006400;stroke-width:2;" x1="722.6348" x2="772.6348" y1="232.4844" y2="232.4844"/><line style="stroke:#006400;stroke-width:2;" x1="772.6348" x2="822.6348" y1="252.4844" y2="252.4844"/><line style="stroke:#006400;stroke-width:2;" x1="822.6348" x2="872.6348" y1="252.4844" y2="252.4844"/><line style="stroke:#006400;stroke-width:2;" x1="872.6348" x2="922.6348" y1="252.4844" y2="252.4844"/><line style="stroke:#006400;stroke-width:2;" x1="922.6348" x2="972.6348" y1="252.4844" y2="252.4844"/><line style="stroke:#006400;stroke-width:2;" x1="72.6348" x2="72.6348" y1="252.4844" y2="252.4844"/><line style="stroke:#006400;stroke-width:2;" x1="122.6348" x2="122.6348" y1="252.4844" y2="252.4844"/><line style="stroke:#006400;stroke-width:2;" x1="172.6348" x2="172.6348" y1="252.4844" y2="252.4844"/><line style="stroke:#006400;stroke-width:2;" x1="222.6348" x2="222.6348" y1="232.4844" y2="252.4844"/><line style="stroke:#006400;stroke-width:2;" x1="272.6348" x2="272.6348" y1="232.4844" y2="252.4844"/><line style="stroke:#006400;stroke-width:2;" x1="322.6348" x2="322.6348" y1="232.4844" y2="252.4844"/><line style="stroke:#006400;stroke-width:2;" x1="372.6348" x2="372.6348" y1="232.4844" y2="252.4844"/><line style="stroke:#006400;stroke-width:2;" x1="422.6348" x2="422.6348" y1="232.4844" y2="252.4844"/><line style="stroke:#006400;stroke-width:2;" x1="472.6348" x2="472.6348" y1="232.4844" y2="252.4844"/><line style="stroke:#006400;stroke-width:2;" x1="522.6348" x2="522.6348" y1="232.4844" y2="252.4844"/><line style="stroke:#006400;stroke-width:2;" x1="572.6348" x2="572.6348" y1="232.4844" y2="252.4844"/><line style="stroke:#006400;stroke-width:2;" x1="622.6348" x2="622.6348" y1="232.4844" y2="252.4844"/><line style="stroke:#006400;stroke-width:2;" x1="672.6348" x2="672.6348" y1="232.4844" y2="252.4844"/><line style="stroke:#006400;stroke-width:2;" x1="722.6348" x2="722.6348" y1="232.4844" y2="252.4844"/><line style="stroke:#006400;stroke-width:2;" x1="772.6348" x2="772.6348" y1="232.4844" y2="252.4844"/><line style="stroke:#006400;stroke-width:2;" x1="822.6348" x2="822.6348" y1="252.4844" y2="252.4844"/><line style="stroke:#006400;stroke-width:2;" x1="872.6348" x2="872.6348" y1="252.4844" y2="252.4844"/><line style="stroke:#006400;stroke-width:2;" x1="922.6348" x2="922.6348" y1="252.4844" y2="252.4844"/><g class="legend" data-source-line="2"><rect fill="#DDDDDD" height="26.2969" rx="7.5" ry="7.5" style="stroke:#333333;stroke-width:0.5;" width="270.7432" x="357.9458" y="289.2891"/><text fill="#333333" font-family="sans-serif" font-size="14" font-weight="bold" lengthAdjust="spacing" textLength="260.7432" x="362.9458" y="307.2842">External Trigger Synchronization</text></g><!--SRC=[bPEz3e8m483tUugBkqahVxgvE3WO1tW1bAPUWiMKaW1FBo0I_8kvxJY-hr-N9kHoXGbTbSMuCUUBBGorgQF2O4pQf7d_auo6N6bbCjZLJjbXRKdhJmiw24SMBfGfTDtXoxIc4i0Mfwfqk7W_P85fYTso_voWP7-eyLYvM-N6gmnOlvuppNUccJFjTwO5s0eOkqWb2XYYpwcPflOnmJPWyb9mXTU2_2kin0z1JeAS1DaBt8B7BNZSWiyj-Dn2m2q4t4B8BOJSGiGjHDp2Md05xdlOiDx37G00]--></g></svg>