<?xml version="1.0" encoding="us-ascii" standalone="no"?><svg xmlns="http://www.w3.org/2000/svg" xmlns:xlink="http://www.w3.org/1999/xlink" contentStyleType="text/css" height="405px" preserveAspectRatio="none" style="width:583px;height:405px;background:#FFFFFF;" version="1.1" viewBox="0 0 583 405" width="583px" zoomAndPan="magnify"><defs/><g><rect fill="none" height="297.2188" style="stroke:#000000;stroke-width:1.5;" width="567" x="10" y="54.6094"/><rect fill="none" height="111.7578" style="stroke:#000000;stroke-width:1.5;" width="547" x="20" y="143.0156"/><line style="stroke:#181818;stroke-width:0.5;stroke-dasharray:5.0,5.0;" x1="114" x2="114" y1="37.6094" y2="368.8281"/><line style="stroke:#181818;stroke-width:0.5;stroke-dasharray:5.0,5.0;" x1="470" x2="470" y1="37.6094" y2="368.8281"/><rect fill="#E2E2F0" height="31.6094" rx="2.5" ry="2.5" style="stroke:#181818;stroke-width:0.5;" width="168" x="30" y="5"/><text fill="#000000" font-family="sans-serif" font-size="14" lengthAdjust="spacing" textLength="154" x="37" y="26.5332">TCP Echo Client Thread</text><rect fill="#E2E2F0" height="31.6094" rx="2.5" ry="2.5" style="stroke:#181818;stroke-width:0.5;" width="168" x="30" y="367.8281"/><text fill="#000000" font-family="sans-serif" font-size="14" lengthAdjust="spacing" textLength="154" x="37" y="389.3613">TCP Echo Client Thread</text><rect fill="#E2E2F0" height="31.6094" rx="2.5" ry="2.5" style="stroke:#181818;stroke-width:0.5;" width="174" x="383" y="5"/><text fill="#000000" font-family="sans-serif" font-size="14" lengthAdjust="spacing" textLength="160" x="390" y="26.5332">TCP Echo Server Thread</text><rect fill="#E2E2F0" height="31.6094" rx="2.5" ry="2.5" style="stroke:#181818;stroke-width:0.5;" width="174" x="383" y="367.8281"/><text fill="#000000" font-family="sans-serif" font-size="14" lengthAdjust="spacing" textLength="160" x="390" y="389.3613">TCP Echo Server Thread</text><path d="M10,54.6094 L83,54.6094 L83,62.9609 L73,72.9609 L10,72.9609 L10,54.6094 " fill="#EEEEEE" style="stroke:#000000;stroke-width:1.5;"/><rect fill="none" height="297.2188" style="stroke:#000000;stroke-width:1.5;" width="567" x="10" y="54.6094"/><text fill="#000000" font-family="sans-serif" font-size="13" font-weight="bold" lengthAdjust="spacing" textLength="28" x="25" y="69.1045">loop</text><text fill="#000000" font-family="sans-serif" font-size="11" font-weight="bold" lengthAdjust="spacing" textLength="52" x="98" y="68.0283">[Endless]</text><polygon fill="#181818" points="458,124.0156,468,128.0156,458,132.0156,462,128.0156" style="stroke:#181818;stroke-width:1.0;"/><line style="stroke:#181818;stroke-width:1.0;stroke-dasharray:2.0,2.0;" x1="114" x2="464" y1="128.0156" y2="128.0156"/><text fill="#000000" font-family="sans-serif" font-size="13" lengthAdjust="spacing" textLength="48" x="121" y="90.4561">Connect</text><text fill="#000000" font-family="sans-serif" font-size="13" lengthAdjust="spacing" textLength="315" x="137" y="106.8076">IP address: APP_TCP_ECHO_REMOTE_SERVER_ADDR</text><text fill="#000000" font-family="sans-serif" font-size="13" lengthAdjust="spacing" textLength="316" x="137" y="123.1592">IP Port: APP_TCP_ECHO_REMOTE_SERVER_PORT</text><path d="M20,143.0156 L93,143.0156 L93,151.3672 L83,161.3672 L20,161.3672 L20,143.0156 " fill="#EEEEEE" style="stroke:#000000;stroke-width:1.5;"/><rect fill="none" height="111.7578" style="stroke:#000000;stroke-width:1.5;" width="547" x="20" y="143.0156"/><text fill="#000000" font-family="sans-serif" font-size="13" font-weight="bold" lengthAdjust="spacing" textLength="28" x="35" y="157.5107">loop</text><text fill="#000000" font-family="sans-serif" font-size="11" font-weight="bold" lengthAdjust="spacing" textLength="317" x="108" y="156.4346">[APP_TCP_CLIENT_ECHO_NUMBER_BY_CONNECTION times]</text><polygon fill="#181818" points="458,196.0703,468,200.0703,458,204.0703,462,200.0703" style="stroke:#181818;stroke-width:1.0;"/><line style="stroke:#181818;stroke-width:1.0;" x1="114" x2="464" y1="200.0703" y2="200.0703"/><text fill="#000000" font-family="sans-serif" font-size="13" lengthAdjust="spacing" textLength="30" x="121" y="178.8623">Send</text><text fill="#000000" font-family="sans-serif" font-size="13" lengthAdjust="spacing" textLength="306" x="137" y="195.2139">Buffer (size of APP_TCP_ECHO_CLIENT_BUF_LEN)</text><polygon fill="#181818" points="125,242.7734,115,246.7734,125,250.7734,121,246.7734" style="stroke:#181818;stroke-width:1.0;"/><line style="stroke:#181818;stroke-width:1.0;" x1="119" x2="469" y1="246.7734" y2="246.7734"/><text fill="#000000" font-family="sans-serif" font-size="13" lengthAdjust="spacing" textLength="62" x="131" y="225.5654">Send back</text><text fill="#000000" font-family="sans-serif" font-size="13" lengthAdjust="spacing" textLength="84" x="147" y="241.917">Buffer received</text><polygon fill="#181818" points="458,280.125,468,284.125,458,288.125,462,284.125" style="stroke:#181818;stroke-width:1.0;"/><line style="stroke:#181818;stroke-width:1.0;stroke-dasharray:2.0,2.0;" x1="114" x2="464" y1="284.125" y2="284.125"/><text fill="#000000" font-family="sans-serif" font-size="13" lengthAdjust="spacing" textLength="65" x="121" y="279.2686">Disconnect</text><line style="stroke:#181818;stroke-width:1.0;" x1="114" x2="156" y1="330.8281" y2="330.8281"/><line style="stroke:#181818;stroke-width:1.0;" x1="156" x2="156" y1="330.8281" y2="343.8281"/><line style="stroke:#181818;stroke-width:1.0;" x1="115" x2="156" y1="343.8281" y2="343.8281"/><polygon fill="#181818" points="125,339.8281,115,343.8281,125,347.8281,121,343.8281" style="stroke:#181818;stroke-width:1.0;"/><text fill="#000000" font-family="sans-serif" font-size="13" lengthAdjust="spacing" textLength="27" x="121" y="309.6201">Wait</text><text fill="#000000" font-family="sans-serif" font-size="13" lengthAdjust="spacing" textLength="297" x="137" y="325.9717">During APP_TCP_CLIENT_CONNECT_DELAY_MS</text><!--SRC=[VP1HJyCW58NV-ol8dlHXVs0F9Yl5sAIbf6MQ9IO4WJfYXGQwFVZhnOBRQbGUBzyzvzmpSZTfeKTk9h2Ya00a3XR0GQime0Udk5m1xjCa6t_5E-LEobtZSP9bWxKZG4OEolii0-4bwVNwBa4R0AqnIapFvkk_981BwGA_0Lj2M31X23uqh4LrGn7hKFk8MbQICqwic_vbITFIsNjEymt2gaIOHXxlwZo0-Px11cC4QTbWCEbtvUUzwzoNs9qoCeR8ZtqVxh_n-aC1so-p99zyTyygX6_FWgcq81Ybeo1uuU9jeUgKKFgavBmOYBzQBBGNiSXbqHVz9wvJoSNHQVFwiufqEojGjTspkik2soS0]--></g></svg>