<?plantuml 1.2026.2beta3?><svg xmlns="http://www.w3.org/2000/svg" xmlns:xlink="http://www.w3.org/1999/xlink" contentStyleType="text/css" data-diagram-type="TIMING" height="282px" preserveAspectRatio="none" style="width:914px;height:282px;background:#FFFFFF;" version="1.1" viewBox="0 0 914 282" width="914px" zoomAndPan="magnify"><title>PWM DMA Burst Output Signal</title><defs/><g><g class="title" data-source-line="1"><text fill="#000000" font-family="sans-serif" font-size="14" font-weight="bold" lengthAdjust="spacing" textLength="242.4434" x="334.5957" y="32.9951">PWM DMA Burst Output Signal</text></g><line style="stroke:#333333;stroke-width:0.5;" x1="10" x2="10" y1="47.2969" y2="270.0938"/><line style="stroke:#333333;stroke-width:0.5;" x1="902.6348" x2="902.6348" y1="47.2969" y2="270.0938"/><rect fill="#EEEEEE" height="222.7969" style="stroke:none;stroke-width:1;" width="0.5" x="272.1348" y="47.2969"/><rect fill="#EEEEEE" height="222.7969" style="stroke:none;stroke-width:1;" width="0.5" x="372.1348" y="47.2969"/><rect fill="#EEEEEE" height="222.7969" style="stroke:none;stroke-width:1;" width="0.5" x="472.1348" y="47.2969"/><rect fill="#EEEEEE" height="222.7969" style="stroke:none;stroke-width:1;" width="0.5" x="572.1348" y="47.2969"/><line style="stroke:#333333;stroke-width:0.5;stroke-dasharray:3,5;" x1="22.6348" x2="22.6348" y1="47.2969" y2="270.0938"/><line style="stroke:#333333;stroke-width:0.5;stroke-dasharray:3,5;" x1="47.6348" x2="47.6348" y1="47.2969" y2="270.0938"/><line style="stroke:#333333;stroke-width:0.5;stroke-dasharray:3,5;" x1="72.6348" x2="72.6348" y1="47.2969" y2="270.0938"/><line style="stroke:#333333;stroke-width:0.5;stroke-dasharray:3,5;" x1="97.6348" x2="97.6348" y1="47.2969" y2="270.0938"/><line style="stroke:#333333;stroke-width:0.5;stroke-dasharray:3,5;" x1="122.6348" x2="122.6348" y1="47.2969" y2="270.0938"/><line style="stroke:#333333;stroke-width:0.5;stroke-dasharray:3,5;" x1="147.6348" x2="147.6348" y1="47.2969" y2="270.0938"/><line style="stroke:#333333;stroke-width:0.5;stroke-dasharray:3,5;" x1="172.6348" x2="172.6348" y1="47.2969" y2="270.0938"/><line style="stroke:#333333;stroke-width:0.5;stroke-dasharray:3,5;" x1="197.6348" x2="197.6348" y1="47.2969" y2="270.0938"/><line style="stroke:#333333;stroke-width:0.5;stroke-dasharray:3,5;" x1="222.6348" x2="222.6348" y1="47.2969" y2="270.0938"/><line style="stroke:#333333;stroke-width:0.5;stroke-dasharray:3,5;" x1="247.6348" x2="247.6348" y1="47.2969" y2="270.0938"/><line style="stroke:#333333;stroke-width:0.5;stroke-dasharray:3,5;" x1="272.6348" x2="272.6348" y1="47.2969" y2="270.0938"/><line style="stroke:#333333;stroke-width:0.5;stroke-dasharray:3,5;" x1="297.6348" x2="297.6348" y1="47.2969" y2="270.0938"/><line style="stroke:#333333;stroke-width:0.5;stroke-dasharray:3,5;" x1="322.6348" x2="322.6348" y1="47.2969" y2="270.0938"/><line style="stroke:#333333;stroke-width:0.5;stroke-dasharray:3,5;" x1="347.6348" x2="347.6348" y1="47.2969" y2="270.0938"/><line style="stroke:#333333;stroke-width:0.5;stroke-dasharray:3,5;" x1="372.6348" x2="372.6348" y1="47.2969" y2="270.0938"/><line style="stroke:#333333;stroke-width:0.5;stroke-dasharray:3,5;" x1="397.6348" x2="397.6348" y1="47.2969" y2="270.0938"/><line style="stroke:#333333;stroke-width:0.5;stroke-dasharray:3,5;" x1="422.6348" x2="422.6348" y1="47.2969" y2="270.0938"/><line style="stroke:#333333;stroke-width:0.5;stroke-dasharray:3,5;" x1="447.6348" x2="447.6348" y1="47.2969" y2="270.0938"/><line style="stroke:#333333;stroke-width:0.5;stroke-dasharray:3,5;" x1="472.6348" x2="472.6348" y1="47.2969" y2="270.0938"/><line style="stroke:#333333;stroke-width:0.5;stroke-dasharray:3,5;" x1="497.6348" x2="497.6348" y1="47.2969" y2="270.0938"/><line style="stroke:#333333;stroke-width:0.5;stroke-dasharray:3,5;" x1="522.6348" x2="522.6348" y1="47.2969" y2="270.0938"/><line style="stroke:#333333;stroke-width:0.5;stroke-dasharray:3,5;" x1="547.6348" x2="547.6348" y1="47.2969" y2="270.0938"/><line style="stroke:#333333;stroke-width:0.5;stroke-dasharray:3,5;" x1="572.6348" x2="572.6348" y1="47.2969" y2="270.0938"/><line style="stroke:#333333;stroke-width:0.5;stroke-dasharray:3,5;" x1="597.6348" x2="597.6348" y1="47.2969" y2="270.0938"/><line style="stroke:#333333;stroke-width:0.5;stroke-dasharray:3,5;" x1="622.6348" x2="622.6348" y1="47.2969" y2="270.0938"/><line style="stroke:#333333;stroke-width:0.5;stroke-dasharray:3,5;" x1="647.6348" x2="647.6348" y1="47.2969" y2="270.0938"/><line style="stroke:#333333;stroke-width:0.5;stroke-dasharray:3,5;" x1="672.6348" x2="672.6348" y1="47.2969" y2="270.0938"/><line style="stroke:#333333;stroke-width:0.5;stroke-dasharray:3,5;" x1="697.6348" x2="697.6348" y1="47.2969" y2="270.0938"/><line style="stroke:#333333;stroke-width:0.5;stroke-dasharray:3,5;" x1="722.6348" x2="722.6348" y1="47.2969" y2="270.0938"/><line style="stroke:#333333;stroke-width:0.5;stroke-dasharray:3,5;" x1="747.6348" x2="747.6348" y1="47.2969" y2="270.0938"/><line style="stroke:#333333;stroke-width:0.5;stroke-dasharray:3,5;" x1="772.6348" x2="772.6348" y1="47.2969" y2="270.0938"/><line style="stroke:#333333;stroke-width:0.5;stroke-dasharray:3,5;" x1="797.6348" x2="797.6348" y1="47.2969" y2="270.0938"/><line style="stroke:#333333;stroke-width:0.5;stroke-dasharray:3,5;" x1="822.6348" x2="822.6348" y1="47.2969" y2="270.0938"/><line style="stroke:#333333;stroke-width:0.5;stroke-dasharray:3,5;" x1="847.6348" x2="847.6348" y1="47.2969" y2="270.0938"/><line style="stroke:#333333;stroke-width:0.5;stroke-dasharray:3,5;" x1="872.6348" x2="872.6348" y1="47.2969" y2="270.0938"/><line style="stroke:#333333;stroke-width:0.5;stroke-dasharray:3,5;" x1="897.6348" x2="897.6348" y1="47.2969" y2="270.0938"/><line style="stroke:#333333;stroke-width:0.5;" x1="10" x2="902.6348" y1="47.2969" y2="47.2969"/><text fill="#333333" font-family="sans-serif" font-size="14" font-weight="bold" lengthAdjust="spacing" textLength="67.4229" x="15" y="60.292">TIM_CH2</text><line style="stroke:#333333;stroke-width:0.5;" x1="10" x2="83.4229" y1="64.5938" y2="64.5938"/><line style="stroke:#333333;stroke-width:0.5;" x1="83.4229" x2="93.4229" y1="64.5938" y2="47.2969"/><text fill="#333333" font-family="sans-serif" font-size="12" lengthAdjust="spacing" textLength="7.6348" x="15" y="108.7168">0</text><text fill="#333333" font-family="sans-serif" font-size="12" lengthAdjust="spacing" textLength="7.6348" x="15" y="88.7168">1</text><line style="stroke:#000000;stroke-width:1;" x1="22.6348" x2="172.6348" y1="103.5625" y2="103.5625"/><line style="stroke:#000000;stroke-width:1;" x1="172.6348" x2="222.6348" y1="83.5625" y2="83.5625"/><line style="stroke:#000000;stroke-width:1;" x1="222.6348" x2="272.6348" y1="103.5625" y2="103.5625"/><line style="stroke:#000000;stroke-width:1;" x1="272.6348" x2="322.6348" y1="83.5625" y2="83.5625"/><line style="stroke:#000000;stroke-width:1;" x1="322.6348" x2="372.6348" y1="103.5625" y2="103.5625"/><line style="stroke:#000000;stroke-width:1;" x1="372.6348" x2="387.6348" y1="83.5625" y2="83.5625"/><line style="stroke:#000000;stroke-width:1;" x1="387.6348" x2="472.6348" y1="103.5625" y2="103.5625"/><line style="stroke:#000000;stroke-width:1;" x1="472.6348" x2="532.6348" y1="83.5625" y2="83.5625"/><line style="stroke:#000000;stroke-width:1;" x1="532.6348" x2="572.6348" y1="103.5625" y2="103.5625"/><line style="stroke:#000000;stroke-width:1;" x1="572.6348" x2="632.6348" y1="83.5625" y2="83.5625"/><line style="stroke:#000000;stroke-width:1;" x1="632.6348" x2="672.6348" y1="103.5625" y2="103.5625"/><line style="stroke:#000000;stroke-width:1;" x1="672.6348" x2="732.6348" y1="83.5625" y2="83.5625"/><line style="stroke:#000000;stroke-width:1;" x1="732.6348" x2="772.6348" y1="103.5625" y2="103.5625"/><line style="stroke:#000000;stroke-width:1;" x1="772.6348" x2="832.6348" y1="83.5625" y2="83.5625"/><line style="stroke:#000000;stroke-width:1;" x1="832.6348" x2="897.6348" y1="103.5625" y2="103.5625"/><line style="stroke:#000000;stroke-width:1;" x1="172.6348" x2="172.6348" y1="83.5625" y2="103.5625"/><line style="stroke:#000000;stroke-width:1;" x1="222.6348" x2="222.6348" y1="83.5625" y2="103.5625"/><line style="stroke:#000000;stroke-width:1;" x1="272.6348" x2="272.6348" y1="83.5625" y2="103.5625"/><line style="stroke:#000000;stroke-width:1;" x1="322.6348" x2="322.6348" y1="83.5625" y2="103.5625"/><line style="stroke:#000000;stroke-width:1;" x1="372.6348" x2="372.6348" y1="83.5625" y2="103.5625"/><line style="stroke:#000000;stroke-width:1;" x1="387.6348" x2="387.6348" y1="83.5625" y2="103.5625"/><line style="stroke:#000000;stroke-width:1;" x1="472.6348" x2="472.6348" y1="83.5625" y2="103.5625"/><line style="stroke:#000000;stroke-width:1;" x1="532.6348" x2="532.6348" y1="83.5625" y2="103.5625"/><line style="stroke:#000000;stroke-width:1;" x1="572.6348" x2="572.6348" y1="83.5625" y2="103.5625"/><line style="stroke:#000000;stroke-width:1;" x1="632.6348" x2="632.6348" y1="83.5625" y2="103.5625"/><line style="stroke:#000000;stroke-width:1;" x1="672.6348" x2="672.6348" y1="83.5625" y2="103.5625"/><line style="stroke:#000000;stroke-width:1;" x1="732.6348" x2="732.6348" y1="83.5625" y2="103.5625"/><line style="stroke:#000000;stroke-width:1;" x1="772.6348" x2="772.6348" y1="83.5625" y2="103.5625"/><line style="stroke:#000000;stroke-width:1;" x1="832.6348" x2="832.6348" y1="83.5625" y2="103.5625"/><line style="stroke:#8B0000;stroke-width:1.5;" x1="375.1348" x2="470.1348" y1="78.5625" y2="78.5625"/><polygon fill="#8B0000" points="383.1348,82.5625,383.1348,74.5625,375.1348,78.5625" style="stroke:#8B0000;stroke-width:1;"/><polygon fill="#8B0000" points="462.1348,82.5625,462.1348,74.5625,470.1348,78.5625" style="stroke:#8B0000;stroke-width:1;"/><text fill="#8B0000" font-family="sans-serif" font-size="12" lengthAdjust="spacing" textLength="26.6719" x="409.2988" y="70.7324">15%</text><line style="stroke:#8B0000;stroke-width:1.5;" x1="475.1348" x2="570.1348" y1="78.5625" y2="78.5625"/><polygon fill="#8B0000" points="483.1348,82.5625,483.1348,74.5625,475.1348,78.5625" style="stroke:#8B0000;stroke-width:1;"/><polygon fill="#8B0000" points="562.1348,82.5625,562.1348,74.5625,570.1348,78.5625" style="stroke:#8B0000;stroke-width:1;"/><text fill="#8B0000" font-family="sans-serif" font-size="12" lengthAdjust="spacing" textLength="26.6719" x="509.2988" y="70.7324">60%</text><line style="stroke:#333333;stroke-width:0.5;" x1="10" x2="902.6348" y1="121.5625" y2="121.5625"/><text fill="#333333" font-family="sans-serif" font-size="14" font-weight="bold" lengthAdjust="spacing" textLength="67.4229" x="15" y="134.5576">TIM_CH3</text><line style="stroke:#333333;stroke-width:0.5;" x1="10" x2="83.4229" y1="138.8594" y2="138.8594"/><line style="stroke:#333333;stroke-width:0.5;" x1="83.4229" x2="93.4229" y1="138.8594" y2="121.5625"/><text fill="#333333" font-family="sans-serif" font-size="12" lengthAdjust="spacing" textLength="7.6348" x="15" y="182.9824">0</text><text fill="#333333" font-family="sans-serif" font-size="12" lengthAdjust="spacing" textLength="7.6348" x="15" y="162.9824">1</text><line style="stroke:#FFA500;stroke-width:1;" x1="22.6348" x2="172.6348" y1="177.8281" y2="177.8281"/><line style="stroke:#FFA500;stroke-width:1;" x1="172.6348" x2="222.6348" y1="157.8281" y2="157.8281"/><line style="stroke:#FFA500;stroke-width:1;" x1="222.6348" x2="272.6348" y1="177.8281" y2="177.8281"/><line style="stroke:#FFA500;stroke-width:1;" x1="272.6348" x2="322.6348" y1="157.8281" y2="157.8281"/><line style="stroke:#FFA500;stroke-width:1;" x1="322.6348" x2="372.6348" y1="177.8281" y2="177.8281"/><line style="stroke:#FFA500;stroke-width:1;" x1="372.6348" x2="402.6348" y1="157.8281" y2="157.8281"/><line style="stroke:#FFA500;stroke-width:1;" x1="402.6348" x2="472.6348" y1="177.8281" y2="177.8281"/><line style="stroke:#FFA500;stroke-width:1;" x1="472.6348" x2="547.6348" y1="157.8281" y2="157.8281"/><line style="stroke:#FFA500;stroke-width:1;" x1="547.6348" x2="572.6348" y1="177.8281" y2="177.8281"/><line style="stroke:#FFA500;stroke-width:1;" x1="572.6348" x2="647.6348" y1="157.8281" y2="157.8281"/><line style="stroke:#FFA500;stroke-width:1;" x1="647.6348" x2="672.6348" y1="177.8281" y2="177.8281"/><line style="stroke:#FFA500;stroke-width:1;" x1="672.6348" x2="747.6348" y1="157.8281" y2="157.8281"/><line style="stroke:#FFA500;stroke-width:1;" x1="747.6348" x2="772.6348" y1="177.8281" y2="177.8281"/><line style="stroke:#FFA500;stroke-width:1;" x1="772.6348" x2="847.6348" y1="157.8281" y2="157.8281"/><line style="stroke:#FFA500;stroke-width:1;" x1="847.6348" x2="897.6348" y1="177.8281" y2="177.8281"/><line style="stroke:#FFA500;stroke-width:1;" x1="172.6348" x2="172.6348" y1="157.8281" y2="177.8281"/><line style="stroke:#FFA500;stroke-width:1;" x1="222.6348" x2="222.6348" y1="157.8281" y2="177.8281"/><line style="stroke:#FFA500;stroke-width:1;" x1="272.6348" x2="272.6348" y1="157.8281" y2="177.8281"/><line style="stroke:#FFA500;stroke-width:1;" x1="322.6348" x2="322.6348" y1="157.8281" y2="177.8281"/><line style="stroke:#FFA500;stroke-width:1;" x1="372.6348" x2="372.6348" y1="157.8281" y2="177.8281"/><line style="stroke:#FFA500;stroke-width:1;" x1="402.6348" x2="402.6348" y1="157.8281" y2="177.8281"/><line style="stroke:#FFA500;stroke-width:1;" x1="472.6348" x2="472.6348" y1="157.8281" y2="177.8281"/><line style="stroke:#FFA500;stroke-width:1;" x1="547.6348" x2="547.6348" y1="157.8281" y2="177.8281"/><line style="stroke:#FFA500;stroke-width:1;" x1="572.6348" x2="572.6348" y1="157.8281" y2="177.8281"/><line style="stroke:#FFA500;stroke-width:1;" x1="647.6348" x2="647.6348" y1="157.8281" y2="177.8281"/><line style="stroke:#FFA500;stroke-width:1;" x1="672.6348" x2="672.6348" y1="157.8281" y2="177.8281"/><line style="stroke:#FFA500;stroke-width:1;" x1="747.6348" x2="747.6348" y1="157.8281" y2="177.8281"/><line style="stroke:#FFA500;stroke-width:1;" x1="772.6348" x2="772.6348" y1="157.8281" y2="177.8281"/><line style="stroke:#FFA500;stroke-width:1;" x1="847.6348" x2="847.6348" y1="157.8281" y2="177.8281"/><line style="stroke:#8B0000;stroke-width:1.5;" x1="375.1348" x2="470.1348" y1="152.8281" y2="152.8281"/><polygon fill="#8B0000" points="383.1348,156.8281,383.1348,148.8281,375.1348,152.8281" style="stroke:#8B0000;stroke-width:1;"/><polygon fill="#8B0000" points="462.1348,156.8281,462.1348,148.8281,470.1348,152.8281" style="stroke:#8B0000;stroke-width:1;"/><text fill="#8B0000" font-family="sans-serif" font-size="12" lengthAdjust="spacing" textLength="26.6719" x="409.2988" y="144.998">30%</text><line style="stroke:#8B0000;stroke-width:1.5;" x1="475.1348" x2="570.1348" y1="152.8281" y2="152.8281"/><polygon fill="#8B0000" points="483.1348,156.8281,483.1348,148.8281,475.1348,152.8281" style="stroke:#8B0000;stroke-width:1;"/><polygon fill="#8B0000" points="562.1348,156.8281,562.1348,148.8281,570.1348,152.8281" style="stroke:#8B0000;stroke-width:1;"/><text fill="#8B0000" font-family="sans-serif" font-size="12" lengthAdjust="spacing" textLength="26.6719" x="509.2988" y="144.998">75%</text><line style="stroke:#333333;stroke-width:0.5;" x1="10" x2="902.6348" y1="195.8281" y2="195.8281"/><text fill="#333333" font-family="sans-serif" font-size="14" font-weight="bold" lengthAdjust="spacing" textLength="67.4229" x="15" y="208.8232">TIM_CH4</text><line style="stroke:#333333;stroke-width:0.5;" x1="10" x2="83.4229" y1="213.125" y2="213.125"/><line style="stroke:#333333;stroke-width:0.5;" x1="83.4229" x2="93.4229" y1="213.125" y2="195.8281"/><text fill="#333333" font-family="sans-serif" font-size="12" lengthAdjust="spacing" textLength="7.6348" x="15" y="257.248">0</text><text fill="#333333" font-family="sans-serif" font-size="12" lengthAdjust="spacing" textLength="7.6348" x="15" y="237.248">1</text><line style="stroke:#FF0000;stroke-width:1;" x1="22.6348" x2="172.6348" y1="252.0938" y2="252.0938"/><line style="stroke:#FF0000;stroke-width:1;" x1="172.6348" x2="222.6348" y1="232.0938" y2="232.0938"/><line style="stroke:#FF0000;stroke-width:1;" x1="222.6348" x2="272.6348" y1="252.0938" y2="252.0938"/><line style="stroke:#FF0000;stroke-width:1;" x1="272.6348" x2="322.6348" y1="232.0938" y2="232.0938"/><line style="stroke:#FF0000;stroke-width:1;" x1="322.6348" x2="372.6348" y1="252.0938" y2="252.0938"/><line style="stroke:#FF0000;stroke-width:1;" x1="372.6348" x2="417.6348" y1="232.0938" y2="232.0938"/><line style="stroke:#FF0000;stroke-width:1;" x1="417.6348" x2="472.6348" y1="252.0938" y2="252.0938"/><line style="stroke:#FF0000;stroke-width:1;" x1="472.6348" x2="562.6348" y1="232.0938" y2="232.0938"/><line style="stroke:#FF0000;stroke-width:1;" x1="562.6348" x2="572.6348" y1="252.0938" y2="252.0938"/><line style="stroke:#FF0000;stroke-width:1;" x1="572.6348" x2="662.6348" y1="232.0938" y2="232.0938"/><line style="stroke:#FF0000;stroke-width:1;" x1="662.6348" x2="672.6348" y1="252.0938" y2="252.0938"/><line style="stroke:#FF0000;stroke-width:1;" x1="672.6348" x2="762.6348" y1="232.0938" y2="232.0938"/><line style="stroke:#FF0000;stroke-width:1;" x1="762.6348" x2="772.6348" y1="252.0938" y2="252.0938"/><line style="stroke:#FF0000;stroke-width:1;" x1="772.6348" x2="862.6348" y1="232.0938" y2="232.0938"/><line style="stroke:#FF0000;stroke-width:1;" x1="862.6348" x2="897.6348" y1="252.0938" y2="252.0938"/><line style="stroke:#FF0000;stroke-width:1;" x1="172.6348" x2="172.6348" y1="232.0938" y2="252.0938"/><line style="stroke:#FF0000;stroke-width:1;" x1="222.6348" x2="222.6348" y1="232.0938" y2="252.0938"/><line style="stroke:#FF0000;stroke-width:1;" x1="272.6348" x2="272.6348" y1="232.0938" y2="252.0938"/><line style="stroke:#FF0000;stroke-width:1;" x1="322.6348" x2="322.6348" y1="232.0938" y2="252.0938"/><line style="stroke:#FF0000;stroke-width:1;" x1="372.6348" x2="372.6348" y1="232.0938" y2="252.0938"/><line style="stroke:#FF0000;stroke-width:1;" x1="417.6348" x2="417.6348" y1="232.0938" y2="252.0938"/><line style="stroke:#FF0000;stroke-width:1;" x1="472.6348" x2="472.6348" y1="232.0938" y2="252.0938"/><line style="stroke:#FF0000;stroke-width:1;" x1="562.6348" x2="562.6348" y1="232.0938" y2="252.0938"/><line style="stroke:#FF0000;stroke-width:1;" x1="572.6348" x2="572.6348" y1="232.0938" y2="252.0938"/><line style="stroke:#FF0000;stroke-width:1;" x1="662.6348" x2="662.6348" y1="232.0938" y2="252.0938"/><line style="stroke:#FF0000;stroke-width:1;" x1="672.6348" x2="672.6348" y1="232.0938" y2="252.0938"/><line style="stroke:#FF0000;stroke-width:1;" x1="762.6348" x2="762.6348" y1="232.0938" y2="252.0938"/><line style="stroke:#FF0000;stroke-width:1;" x1="772.6348" x2="772.6348" y1="232.0938" y2="252.0938"/><line style="stroke:#FF0000;stroke-width:1;" x1="862.6348" x2="862.6348" y1="232.0938" y2="252.0938"/><line style="stroke:#8B0000;stroke-width:1.5;" x1="175.1348" x2="270.1348" y1="227.0938" y2="227.0938"/><polygon fill="#8B0000" points="183.1348,231.0938,183.1348,223.0938,175.1348,227.0938" style="stroke:#8B0000;stroke-width:1;"/><polygon fill="#8B0000" points="262.1348,231.0938,262.1348,223.0938,270.1348,227.0938" style="stroke:#8B0000;stroke-width:1;"/><text fill="#8B0000" font-family="sans-serif" font-size="12" lengthAdjust="spacing" textLength="26.6719" x="209.2988" y="219.2637">50%</text><line style="stroke:#8B0000;stroke-width:1.5;" x1="275.1348" x2="370.1348" y1="227.0938" y2="227.0938"/><polygon fill="#8B0000" points="283.1348,231.0938,283.1348,223.0938,275.1348,227.0938" style="stroke:#8B0000;stroke-width:1;"/><polygon fill="#8B0000" points="362.1348,231.0938,362.1348,223.0938,370.1348,227.0938" style="stroke:#8B0000;stroke-width:1;"/><text fill="#8B0000" font-family="sans-serif" font-size="12" lengthAdjust="spacing" textLength="26.6719" x="309.2988" y="219.2637">50%</text><line style="stroke:#8B0000;stroke-width:1.5;" x1="375.1348" x2="470.1348" y1="227.0938" y2="227.0938"/><polygon fill="#8B0000" points="383.1348,231.0938,383.1348,223.0938,375.1348,227.0938" style="stroke:#8B0000;stroke-width:1;"/><polygon fill="#8B0000" points="462.1348,231.0938,462.1348,223.0938,470.1348,227.0938" style="stroke:#8B0000;stroke-width:1;"/><text fill="#8B0000" font-family="sans-serif" font-size="12" lengthAdjust="spacing" textLength="26.6719" x="409.2988" y="219.2637">45%</text><line style="stroke:#8B0000;stroke-width:1.5;" x1="475.1348" x2="570.1348" y1="227.0938" y2="227.0938"/><polygon fill="#8B0000" points="483.1348,231.0938,483.1348,223.0938,475.1348,227.0938" style="stroke:#8B0000;stroke-width:1;"/><polygon fill="#8B0000" points="562.1348,231.0938,562.1348,223.0938,570.1348,227.0938" style="stroke:#8B0000;stroke-width:1;"/><text fill="#8B0000" font-family="sans-serif" font-size="12" lengthAdjust="spacing" textLength="26.6719" x="509.2988" y="219.2637">90%</text><line style="stroke:#333333;stroke-width:2;stroke-dasharray:4,4;" x1="272.1348" x2="272.1348" y1="47.2969" y2="270.0938"/><line style="stroke:#333333;stroke-width:2;stroke-dasharray:4,4;" x1="272.6348" x2="272.6348" y1="47.2969" y2="270.0938"/><text fill="#000000" font-family="sans-serif" font-size="12" lengthAdjust="spacing" textLength="24.5742" x="275.1348" y="60.4355">UEV</text><text fill="#000000" font-family="sans-serif" font-size="9" lengthAdjust="spacing" textLength="5.7261" x="299.709" y="64.1431">1</text><line style="stroke:#333333;stroke-width:2;stroke-dasharray:4,4;" x1="372.1348" x2="372.1348" y1="47.2969" y2="270.0938"/><line style="stroke:#333333;stroke-width:2;stroke-dasharray:4,4;" x1="372.6348" x2="372.6348" y1="47.2969" y2="270.0938"/><text fill="#000000" font-family="sans-serif" font-size="12" lengthAdjust="spacing" textLength="24.5742" x="375.1348" y="60.4355">UEV</text><text fill="#000000" font-family="sans-serif" font-size="9" lengthAdjust="spacing" textLength="5.7261" x="399.709" y="64.1431">2</text><line style="stroke:#333333;stroke-width:2;stroke-dasharray:4,4;" x1="472.1348" x2="472.1348" y1="47.2969" y2="270.0938"/><line style="stroke:#333333;stroke-width:2;stroke-dasharray:4,4;" x1="472.6348" x2="472.6348" y1="47.2969" y2="270.0938"/><text fill="#000000" font-family="sans-serif" font-size="12" lengthAdjust="spacing" textLength="24.5742" x="475.1348" y="60.4355">UEV</text><text fill="#000000" font-family="sans-serif" font-size="9" lengthAdjust="spacing" textLength="5.7261" x="499.709" y="64.1431">3</text><line style="stroke:#333333;stroke-width:2;stroke-dasharray:4,4;" x1="572.1348" x2="572.1348" y1="47.2969" y2="270.0938"/><line style="stroke:#333333;stroke-width:2;stroke-dasharray:4,4;" x1="572.6348" x2="572.6348" y1="47.2969" y2="270.0938"/><text fill="#000000" font-family="sans-serif" font-size="12" lengthAdjust="spacing" textLength="24.5742" x="575.1348" y="60.4355">UEV</text><text fill="#000000" font-family="sans-serif" font-size="9" lengthAdjust="spacing" textLength="5.7261" x="599.709" y="64.1431">4</text><?plantuml-src fPPTRvim58Rl_IkEDarDBzYm-IfH6cLhExNIgbPQjrrE3d62LG8H62tLrF--OmnD0cr8LwGasEUr_Pu7uvCxgH81jx-kuVpwCtmfyqB1JQbMfOBlSf7oX8mAzP28CH0bbp9Td4k-oFaI_XA0ZpCnvsMYgWR0DvcAiop9SfWcFBf_whkBPNIVYg80YdsFUc0Ks_ypY7O6PJbF5sB_ADOPbOlPYqCUoUYJIPcGMCu4pBDCJRErQI04OV6rB0WvWfjSBYGo0XNdGa0KypGLIG7pF5jY7_RmbIfpGV9iMYBOTtTNrx_FBjaxu0MSNTem6Y68yRWLT-euhUAq4tVhEAlY3EEaY3W-Hi_M0UR1IgxHXxPugY-uIgMIwBDGN0dW2XISWWtBmiJ9n2RQZYn0tz3cXfcRPfhkXP5RaSji1XG6ZcrRdcqV3z771vYLwc7Fm0cgcpLfioPjrgI4J5pxpQOO3D2G5Hni2jMmtvMF2hpUwio10RgoGkqCUy7Iss48r3CUmOG3nuPOBkBZHaA7uDYx4hybOKDmMxE46ycBcGTzZmEzR9B6fh-LEZR3NG1VPIgBU9Fjb1SYmPUDJ33bWmYvC42fHMaBaR_9luhRhCiey5eQhmifRCzpSW2bi8-IjhEDII-zpKalyxgTui50Cx2eyp888s3xITIY_IXgqI4ijBG71cl1O2qOxBKmV7IeZndgxO5H2TmU64RK0yE83eBHUvnfHpimt1OCzxKm0dIeZpSQx85H2VmU64RK0yE83eBXzSBmMp3y5Wo_1UDYlKfa91M8T0RP71AEvN1bE5XOeVD8532h_vgeh99XcTDeS3RzJRJj13yAt33K6dtO3-77nSzHKKx75Ai-_cp9V2CBTcIi8pinid17vdHar3Ow_Tfi2TrQUBHHubPgrdt_9vPOi8TF1Rnw6D53XCMUaAg8miWQmyJaWYNErB2gBtZg8nDaNPtn9cAyOh6fJZJJL_loQpdjo1tx6JdkeahEEdBtkTbnF_q3?></g></svg>