<?plantuml 1.2026.2beta3?><svg xmlns="http://www.w3.org/2000/svg" xmlns:xlink="http://www.w3.org/1999/xlink" contentStyleType="text/css" data-diagram-type="TIMING" height="182px" preserveAspectRatio="none" style="width:697px;height:182px;background:#FFFFFF;" version="1.1" viewBox="0 0 697 182" width="697px" zoomAndPan="magnify"><title>The DAC output signal</title><defs/><g><g class="title" data-source-line="1"><text fill="#000000" font-family="sans-serif" font-size="14" font-weight="bold" lengthAdjust="spacing" textLength="176.6885" x="259.0776" y="32.9951">The DAC output signal</text></g><line style="stroke:#333333;stroke-width:0.5;" x1="10" x2="10" y1="47.2969" y2="152.5938"/><line style="stroke:#333333;stroke-width:0.5;" x1="685.8438" x2="685.8438" y1="47.2969" y2="152.5938"/><line style="stroke:#333333;stroke-width:0.5;stroke-dasharray:3,5;" x1="30.8438" x2="30.8438" y1="47.2969" y2="152.5938"/><line style="stroke:#333333;stroke-width:0.5;stroke-dasharray:3,5;" x1="80.8438" x2="80.8438" y1="47.2969" y2="152.5938"/><line style="stroke:#333333;stroke-width:0.5;stroke-dasharray:3,5;" x1="130.8438" x2="130.8438" y1="47.2969" y2="152.5938"/><line style="stroke:#333333;stroke-width:0.5;stroke-dasharray:3,5;" x1="180.8438" x2="180.8438" y1="47.2969" y2="152.5938"/><line style="stroke:#333333;stroke-width:0.5;stroke-dasharray:3,5;" x1="230.8438" x2="230.8438" y1="47.2969" y2="152.5938"/><line style="stroke:#333333;stroke-width:0.5;stroke-dasharray:3,5;" x1="280.8438" x2="280.8438" y1="47.2969" y2="152.5938"/><line style="stroke:#333333;stroke-width:0.5;stroke-dasharray:3,5;" x1="330.8438" x2="330.8438" y1="47.2969" y2="152.5938"/><line style="stroke:#333333;stroke-width:0.5;stroke-dasharray:3,5;" x1="380.8438" x2="380.8438" y1="47.2969" y2="152.5938"/><line style="stroke:#333333;stroke-width:0.5;stroke-dasharray:3,5;" x1="430.8438" x2="430.8438" y1="47.2969" y2="152.5938"/><line style="stroke:#333333;stroke-width:0.5;stroke-dasharray:3,5;" x1="480.8438" x2="480.8438" y1="47.2969" y2="152.5938"/><line style="stroke:#333333;stroke-width:0.5;stroke-dasharray:3,5;" x1="530.8438" x2="530.8438" y1="47.2969" y2="152.5938"/><line style="stroke:#333333;stroke-width:0.5;stroke-dasharray:3,5;" x1="580.8438" x2="580.8438" y1="47.2969" y2="152.5938"/><line style="stroke:#333333;stroke-width:0.5;stroke-dasharray:3,5;" x1="630.8438" x2="630.8438" y1="47.2969" y2="152.5938"/><line style="stroke:#333333;stroke-width:0.5;stroke-dasharray:3,5;" x1="680.8438" x2="680.8438" y1="47.2969" y2="152.5938"/><line style="stroke:#333333;stroke-width:0.5;" x1="10" x2="685.8438" y1="47.2969" y2="47.2969"/><text fill="#333333" font-family="sans-serif" font-size="14" font-weight="bold" lengthAdjust="spacing" textLength="91.5264" x="15" y="60.292">AO Channel</text><line style="stroke:#333333;stroke-width:0.5;" x1="10" x2="107.5264" y1="64.5938" y2="64.5938"/><line style="stroke:#333333;stroke-width:0.5;" x1="107.5264" x2="117.5264" y1="64.5938" y2="47.2969"/><text fill="#333333" font-family="sans-serif" font-size="12" lengthAdjust="spacing" textLength="15.8438" x="15" y="139.748">0V</text><text fill="#333333" font-family="sans-serif" font-size="12" lengthAdjust="spacing" textLength="15.8438" x="15" y="119.748">1V</text><text fill="#333333" font-family="sans-serif" font-size="12" lengthAdjust="spacing" textLength="15.8438" x="15" y="99.748">2V</text><text fill="#333333" font-family="sans-serif" font-size="12" lengthAdjust="spacing" textLength="15.8438" x="15" y="79.748">3V</text><line style="stroke:#006400;stroke-width:2;" x1="30.8438" x2="80.8438" y1="134.5938" y2="134.5938"/><line style="stroke:#006400;stroke-width:2;" x1="80.8438" x2="130.8438" y1="114.5938" y2="114.5938"/><line style="stroke:#006400;stroke-width:2;" x1="130.8438" x2="180.8438" y1="94.5938" y2="94.5938"/><line style="stroke:#006400;stroke-width:2;" x1="180.8438" x2="230.8438" y1="74.5938" y2="74.5938"/><line style="stroke:#006400;stroke-width:2;" x1="230.8438" x2="280.8438" y1="134.5938" y2="134.5938"/><line style="stroke:#006400;stroke-width:2;" x1="280.8438" x2="330.8438" y1="114.5938" y2="114.5938"/><line style="stroke:#006400;stroke-width:2;" x1="330.8438" x2="380.8438" y1="94.5938" y2="94.5938"/><line style="stroke:#006400;stroke-width:2;" x1="380.8438" x2="430.8438" y1="74.5938" y2="74.5938"/><line style="stroke:#006400;stroke-width:2;" x1="430.8438" x2="480.8438" y1="134.5938" y2="134.5938"/><line style="stroke:#006400;stroke-width:2;" x1="480.8438" x2="530.8438" y1="114.5938" y2="114.5938"/><line style="stroke:#006400;stroke-width:2;" x1="530.8438" x2="580.8438" y1="94.5938" y2="94.5938"/><line style="stroke:#006400;stroke-width:2;" x1="580.8438" x2="630.8438" y1="74.5938" y2="74.5938"/><line style="stroke:#006400;stroke-width:2;" x1="630.8438" x2="680.8438" y1="134.5938" y2="134.5938"/><line style="stroke:#006400;stroke-width:2;" x1="80.8438" x2="80.8438" y1="114.5938" y2="134.5938"/><line style="stroke:#006400;stroke-width:2;" x1="130.8438" x2="130.8438" y1="94.5938" y2="114.5938"/><line style="stroke:#006400;stroke-width:2;" x1="180.8438" x2="180.8438" y1="74.5938" y2="94.5938"/><line style="stroke:#006400;stroke-width:2;" x1="230.8438" x2="230.8438" y1="74.5938" y2="134.5938"/><line style="stroke:#006400;stroke-width:2;" x1="280.8438" x2="280.8438" y1="114.5938" y2="134.5938"/><line style="stroke:#006400;stroke-width:2;" x1="330.8438" x2="330.8438" y1="94.5938" y2="114.5938"/><line style="stroke:#006400;stroke-width:2;" x1="380.8438" x2="380.8438" y1="74.5938" y2="94.5938"/><line style="stroke:#006400;stroke-width:2;" x1="430.8438" x2="430.8438" y1="74.5938" y2="134.5938"/><line style="stroke:#006400;stroke-width:2;" x1="480.8438" x2="480.8438" y1="114.5938" y2="134.5938"/><line style="stroke:#006400;stroke-width:2;" x1="530.8438" x2="530.8438" y1="94.5938" y2="114.5938"/><line style="stroke:#006400;stroke-width:2;" x1="580.8438" x2="580.8438" y1="74.5938" y2="94.5938"/><line style="stroke:#006400;stroke-width:2;" x1="630.8438" x2="630.8438" y1="74.5938" y2="134.5938"/><line style="stroke:#333333;stroke-width:2;" x1="30.8438" x2="30.8438" y1="152.5938" y2="157.5938"/><line style="stroke:#333333;stroke-width:2;" x1="80.8438" x2="80.8438" y1="152.5938" y2="157.5938"/><line style="stroke:#333333;stroke-width:2;" x1="130.8438" x2="130.8438" y1="152.5938" y2="157.5938"/><line style="stroke:#333333;stroke-width:2;" x1="180.8438" x2="180.8438" y1="152.5938" y2="157.5938"/><line style="stroke:#333333;stroke-width:2;" x1="230.8438" x2="230.8438" y1="152.5938" y2="157.5938"/><line style="stroke:#333333;stroke-width:2;" x1="280.8438" x2="280.8438" y1="152.5938" y2="157.5938"/><line style="stroke:#333333;stroke-width:2;" x1="330.8438" x2="330.8438" y1="152.5938" y2="157.5938"/><line style="stroke:#333333;stroke-width:2;" x1="380.8438" x2="380.8438" y1="152.5938" y2="157.5938"/><line style="stroke:#333333;stroke-width:2;" x1="430.8438" x2="430.8438" y1="152.5938" y2="157.5938"/><line style="stroke:#333333;stroke-width:2;" x1="480.8438" x2="480.8438" y1="152.5938" y2="157.5938"/><line style="stroke:#333333;stroke-width:2;" x1="530.8438" x2="530.8438" y1="152.5938" y2="157.5938"/><line style="stroke:#333333;stroke-width:2;" x1="580.8438" x2="580.8438" y1="152.5938" y2="157.5938"/><line style="stroke:#333333;stroke-width:2;" x1="630.8438" x2="630.8438" y1="152.5938" y2="157.5938"/><line style="stroke:#333333;stroke-width:2;" x1="680.8438" x2="680.8438" y1="152.5938" y2="157.5938"/><line style="stroke:#333333;stroke-width:2;" x1="30.8438" x2="680.8438" y1="152.5938" y2="152.5938"/><text fill="#333333" font-family="sans-serif" font-size="11" lengthAdjust="spacing" textLength="6.9985" x="27.3445" y="168.8042">0</text><text fill="#333333" font-family="sans-serif" font-size="11" lengthAdjust="spacing" textLength="6.9985" x="77.3445" y="168.8042">1</text><text fill="#333333" font-family="sans-serif" font-size="11" lengthAdjust="spacing" textLength="6.9985" x="127.3445" y="168.8042">2</text><text fill="#333333" font-family="sans-serif" font-size="11" lengthAdjust="spacing" textLength="6.9985" x="177.3445" y="168.8042">3</text><text fill="#333333" font-family="sans-serif" font-size="11" lengthAdjust="spacing" textLength="6.9985" x="227.3445" y="168.8042">4</text><text fill="#333333" font-family="sans-serif" font-size="11" lengthAdjust="spacing" textLength="6.9985" x="277.3445" y="168.8042">5</text><text fill="#333333" font-family="sans-serif" font-size="11" lengthAdjust="spacing" textLength="6.9985" x="327.3445" y="168.8042">6</text><text fill="#333333" font-family="sans-serif" font-size="11" lengthAdjust="spacing" textLength="6.9985" x="377.3445" y="168.8042">7</text><text fill="#333333" font-family="sans-serif" font-size="11" lengthAdjust="spacing" textLength="6.9985" x="427.3445" y="168.8042">8</text><text fill="#333333" font-family="sans-serif" font-size="11" lengthAdjust="spacing" textLength="6.9985" x="477.3445" y="168.8042">9</text><text fill="#333333" font-family="sans-serif" font-size="11" lengthAdjust="spacing" textLength="13.9971" x="523.8452" y="168.8042">10</text><text fill="#333333" font-family="sans-serif" font-size="11" lengthAdjust="spacing" textLength="13.9971" x="573.8452" y="168.8042">11</text><text fill="#333333" font-family="sans-serif" font-size="11" lengthAdjust="spacing" textLength="13.9971" x="623.8452" y="168.8042">12</text><?plantuml-src NOzFQyCm3CNl_XGYbssmGPpiRmuZfQMdGGyBwTbBj4RKiOFjZi7OTvzS5XRl8l6UfT-J6meQeHaGDgirs5EOJW4y7OpIGlWZcKavDKAWaSm1lWJ02nbSMsqTx0SAo4v3tJ5rjjQ4fVCjn0Liy9rN8N0Mur17uJl5yPSUEsjwVoMSVJlv0Dbg1-j16OCw0-LXjOk0FOAQ9cS_QLG1GUC7QX-VZHgn1n_OzJoNLv2tro0haDoA2WfkPGLb6obRSfmmeIFRnq6uUUQvM8jpBSyrRqMT2pw3F6HvcubQpaf6LSogYAgSLHdLxNAF4r_Fl_kD5FLT0hfFG0y9wF4Vg1d8_N6U4exC4v2K2KaM2zGF?></g></svg>