<?xml version="1.0" encoding="us-ascii" standalone="no"?><svg xmlns="http://www.w3.org/2000/svg" xmlns:xlink="http://www.w3.org/1999/xlink" contentStyleType="text/css" height="309px" preserveAspectRatio="none" style="width:1211px;height:309px;background:#FFFFFF;" version="1.1" viewBox="0 0 1211 309" width="1211px" zoomAndPan="magnify"><defs/><g><text fill="#000000" font-family="sans-serif" font-size="14" font-weight="bold" lengthAdjust="spacing" textLength="216" x="496" y="34.5332">Asymmetric deadtime insertion</text><line style="stroke:#333333;stroke-width:0.5;" x1="10" x2="10" y1="48.6094" y2="231.5"/><line style="stroke:#333333;stroke-width:0.5;" x1="1199" x2="1199" y1="48.6094" y2="231.5"/><line style="stroke:#333333;stroke-width:0.5;stroke-dasharray:3.0,5.0;" x1="94" x2="94" y1="48.6094" y2="231.5"/><line style="stroke:#333333;stroke-width:0.5;stroke-dasharray:3.0,5.0;" x1="144" x2="144" y1="48.6094" y2="231.5"/><line style="stroke:#333333;stroke-width:0.5;stroke-dasharray:3.0,5.0;" x1="194" x2="194" y1="48.6094" y2="231.5"/><line style="stroke:#333333;stroke-width:0.5;stroke-dasharray:3.0,5.0;" x1="244" x2="244" y1="48.6094" y2="231.5"/><line style="stroke:#333333;stroke-width:0.5;stroke-dasharray:3.0,5.0;" x1="294" x2="294" y1="48.6094" y2="231.5"/><line style="stroke:#333333;stroke-width:0.5;stroke-dasharray:3.0,5.0;" x1="344" x2="344" y1="48.6094" y2="231.5"/><line style="stroke:#333333;stroke-width:0.5;stroke-dasharray:3.0,5.0;" x1="394" x2="394" y1="48.6094" y2="231.5"/><line style="stroke:#333333;stroke-width:0.5;stroke-dasharray:3.0,5.0;" x1="444" x2="444" y1="48.6094" y2="231.5"/><line style="stroke:#333333;stroke-width:0.5;stroke-dasharray:3.0,5.0;" x1="494" x2="494" y1="48.6094" y2="231.5"/><line style="stroke:#333333;stroke-width:0.5;stroke-dasharray:3.0,5.0;" x1="544" x2="544" y1="48.6094" y2="231.5"/><line style="stroke:#333333;stroke-width:0.5;stroke-dasharray:3.0,5.0;" x1="594" x2="594" y1="48.6094" y2="231.5"/><line style="stroke:#333333;stroke-width:0.5;stroke-dasharray:3.0,5.0;" x1="644" x2="644" y1="48.6094" y2="231.5"/><line style="stroke:#333333;stroke-width:0.5;stroke-dasharray:3.0,5.0;" x1="694" x2="694" y1="48.6094" y2="231.5"/><line style="stroke:#333333;stroke-width:0.5;stroke-dasharray:3.0,5.0;" x1="744" x2="744" y1="48.6094" y2="231.5"/><line style="stroke:#333333;stroke-width:0.5;stroke-dasharray:3.0,5.0;" x1="794" x2="794" y1="48.6094" y2="231.5"/><line style="stroke:#333333;stroke-width:0.5;stroke-dasharray:3.0,5.0;" x1="844" x2="844" y1="48.6094" y2="231.5"/><line style="stroke:#333333;stroke-width:0.5;stroke-dasharray:3.0,5.0;" x1="894" x2="894" y1="48.6094" y2="231.5"/><line style="stroke:#333333;stroke-width:0.5;stroke-dasharray:3.0,5.0;" x1="944" x2="944" y1="48.6094" y2="231.5"/><line style="stroke:#333333;stroke-width:0.5;stroke-dasharray:3.0,5.0;" x1="994" x2="994" y1="48.6094" y2="231.5"/><line style="stroke:#333333;stroke-width:0.5;stroke-dasharray:3.0,5.0;" x1="1044" x2="1044" y1="48.6094" y2="231.5"/><line style="stroke:#333333;stroke-width:0.5;stroke-dasharray:3.0,5.0;" x1="1094" x2="1094" y1="48.6094" y2="231.5"/><line style="stroke:#333333;stroke-width:0.5;stroke-dasharray:3.0,5.0;" x1="1144" x2="1144" y1="48.6094" y2="231.5"/><line style="stroke:#333333;stroke-width:0.5;stroke-dasharray:3.0,5.0;" x1="1194" x2="1194" y1="48.6094" y2="231.5"/><line style="stroke:#333333;stroke-width:0.5;" x1="10" x2="1199" y1="48.6094" y2="48.6094"/><text fill="#333333" font-family="sans-serif" font-size="14" font-weight="bold" lengthAdjust="spacing" textLength="74" x="15" y="69.3379">tim_oc1ref</text><line style="stroke:#008000;stroke-width:2.0;" x1="94" x2="94" y1="70.6094" y2="70.6094"/><line style="stroke:#008000;stroke-width:2.0;" x1="94" x2="94" y1="56.6094" y2="70.6094"/><line style="stroke:#008000;stroke-width:2.0;" x1="94" x2="444" y1="56.6094" y2="56.6094"/><line style="stroke:#008000;stroke-width:2.0;" x1="444" x2="444" y1="56.6094" y2="70.6094"/><line style="stroke:#008000;stroke-width:2.0;" x1="444" x2="944" y1="70.6094" y2="70.6094"/><line style="stroke:#008000;stroke-width:2.0;" x1="944" x2="944" y1="56.6094" y2="70.6094"/><line style="stroke:#008000;stroke-width:2.0;" x1="944" x2="1194" y1="56.6094" y2="56.6094"/><line style="stroke:#333333;stroke-width:0.5;" x1="10" x2="1199" y1="78.6094" y2="78.6094"/><text fill="#333333" font-family="sans-serif" font-size="14" font-weight="bold" lengthAdjust="spacing" textLength="54" x="15" y="109.3848">tim_oc1</text><line style="stroke:#008000;stroke-width:2.0;" x1="94" x2="94" y1="120.7031" y2="120.7031"/><line style="stroke:#008000;stroke-width:2.0;" x1="94" x2="94" y1="106.7031" y2="120.7031"/><line style="stroke:#008000;stroke-width:2.0;" x1="94" x2="444" y1="106.7031" y2="106.7031"/><line style="stroke:#008000;stroke-width:2.0;" x1="444" x2="444" y1="106.7031" y2="120.7031"/><line style="stroke:#008000;stroke-width:2.0;" x1="444" x2="1144" y1="120.7031" y2="120.7031"/><line style="stroke:#008000;stroke-width:2.0;" x1="1144" x2="1144" y1="106.7031" y2="120.7031"/><line style="stroke:#008000;stroke-width:2.0;" x1="1144" x2="1194" y1="106.7031" y2="106.7031"/><line style="stroke:#8B0000;stroke-width:1.5;" x1="446.5" x2="591.5" y1="98.7031" y2="98.7031"/><polygon fill="#8B0000" points="454.5,102.7031,454.5,94.7031,446.5,98.7031" style="stroke:#8B0000;stroke-width:2.0;"/><polygon fill="#8B0000" points="583.5,102.7031,583.5,94.7031,591.5,98.7031" style="stroke:#8B0000;stroke-width:2.0;"/><text fill="#8B0000" font-family="sans-serif" font-size="12" lengthAdjust="spacing" textLength="94" x="472" y="91.0664">Falling Deadtime</text><line style="stroke:#333333;stroke-width:0.5;" x1="10" x2="1199" y1="128.7031" y2="128.7031"/><text fill="#333333" font-family="sans-serif" font-size="14" font-weight="bold" lengthAdjust="spacing" textLength="63" x="15" y="185.8301">tim_oc1n</text><line style="stroke:#008000;stroke-width:2.0;" x1="94" x2="94" y1="170.7969" y2="170.7969"/><line style="stroke:#008000;stroke-width:2.0;" x1="94" x2="594" y1="170.7969" y2="170.7969"/><line style="stroke:#008000;stroke-width:2.0;" x1="594" x2="594" y1="156.7969" y2="170.7969"/><line style="stroke:#008000;stroke-width:2.0;" x1="594" x2="944" y1="156.7969" y2="156.7969"/><line style="stroke:#008000;stroke-width:2.0;" x1="944" x2="944" y1="156.7969" y2="170.7969"/><line style="stroke:#008000;stroke-width:2.0;" x1="944" x2="1194" y1="170.7969" y2="170.7969"/><line style="stroke:#8B0000;stroke-width:1.5;" x1="946.5" x2="1141.5" y1="148.7969" y2="148.7969"/><polygon fill="#8B0000" points="954.5,152.7969,954.5,144.7969,946.5,148.7969" style="stroke:#8B0000;stroke-width:2.0;"/><polygon fill="#8B0000" points="1133.5,152.7969,1133.5,144.7969,1141.5,148.7969" style="stroke:#8B0000;stroke-width:2.0;"/><text fill="#8B0000" font-family="sans-serif" font-size="12" lengthAdjust="spacing" textLength="93" x="997.5" y="141.1602">Rising Deadtime</text><path d="M944,179.7969 L944,222.5 L1041,222.5 L1041,189.7969 L1031,179.7969 L944,179.7969 " fill="#FEFFDD" style="stroke:#333333;stroke-width:0.5;"/><path d="M1031,179.7969 L1031,189.7969 L1041,189.7969 L1031,179.7969 " fill="#FEFFDD" style="stroke:#333333;stroke-width:0.5;"/><text fill="#333333" font-family="sans-serif" font-size="13" font-weight="bold" lengthAdjust="spacing" textLength="72" x="950" y="198.292">ARR = 0x07</text><text fill="#333333" font-family="sans-serif" font-size="13" font-weight="bold" lengthAdjust="spacing" textLength="72" x="950" y="214.6436">CCR = 0x04</text><line style="stroke:#333333;stroke-width:2.0;" x1="94" x2="94" y1="231.5" y2="236.5"/><line style="stroke:#333333;stroke-width:2.0;" x1="144" x2="144" y1="231.5" y2="236.5"/><line style="stroke:#333333;stroke-width:2.0;" x1="194" x2="194" y1="231.5" y2="236.5"/><line style="stroke:#333333;stroke-width:2.0;" x1="244" x2="244" y1="231.5" y2="236.5"/><line style="stroke:#333333;stroke-width:2.0;" x1="294" x2="294" y1="231.5" y2="236.5"/><line style="stroke:#333333;stroke-width:2.0;" x1="344" x2="344" y1="231.5" y2="236.5"/><line style="stroke:#333333;stroke-width:2.0;" x1="394" x2="394" y1="231.5" y2="236.5"/><line style="stroke:#333333;stroke-width:2.0;" x1="444" x2="444" y1="231.5" y2="236.5"/><line style="stroke:#333333;stroke-width:2.0;" x1="494" x2="494" y1="231.5" y2="236.5"/><line style="stroke:#333333;stroke-width:2.0;" x1="544" x2="544" y1="231.5" y2="236.5"/><line style="stroke:#333333;stroke-width:2.0;" x1="594" x2="594" y1="231.5" y2="236.5"/><line style="stroke:#333333;stroke-width:2.0;" x1="644" x2="644" y1="231.5" y2="236.5"/><line style="stroke:#333333;stroke-width:2.0;" x1="694" x2="694" y1="231.5" y2="236.5"/><line style="stroke:#333333;stroke-width:2.0;" x1="744" x2="744" y1="231.5" y2="236.5"/><line style="stroke:#333333;stroke-width:2.0;" x1="794" x2="794" y1="231.5" y2="236.5"/><line style="stroke:#333333;stroke-width:2.0;" x1="844" x2="844" y1="231.5" y2="236.5"/><line style="stroke:#333333;stroke-width:2.0;" x1="894" x2="894" y1="231.5" y2="236.5"/><line style="stroke:#333333;stroke-width:2.0;" x1="944" x2="944" y1="231.5" y2="236.5"/><line style="stroke:#333333;stroke-width:2.0;" x1="994" x2="994" y1="231.5" y2="236.5"/><line style="stroke:#333333;stroke-width:2.0;" x1="1044" x2="1044" y1="231.5" y2="236.5"/><line style="stroke:#333333;stroke-width:2.0;" x1="1094" x2="1094" y1="231.5" y2="236.5"/><line style="stroke:#333333;stroke-width:2.0;" x1="1144" x2="1144" y1="231.5" y2="236.5"/><line style="stroke:#333333;stroke-width:2.0;" x1="1194" x2="1194" y1="231.5" y2="236.5"/><line style="stroke:#333333;stroke-width:2.0;" x1="94" x2="1194" y1="231.5" y2="231.5"/><text fill="#000000" font-family="Helvetica" font-size="11" lengthAdjust="spacing" textLength="6" x="91" y="248.9189">0</text><text fill="#000000" font-family="Helvetica" font-size="11" lengthAdjust="spacing" textLength="6" x="441" y="248.9189">7</text><text fill="#000000" font-family="Helvetica" font-size="11" lengthAdjust="spacing" textLength="12" x="588" y="248.9189">10</text><text fill="#000000" font-family="Helvetica" font-size="11" lengthAdjust="spacing" textLength="12" x="938" y="248.9189">17</text><text fill="#000000" font-family="Helvetica" font-size="11" lengthAdjust="spacing" textLength="12" x="1138" y="248.9189">21</text><line style="stroke:#0000FF;stroke-width:1.5;" x1="444" x2="444" y1="56.6094" y2="156.7969"/><polygon fill="#0000FF" points="441.2638,149.2793,446.7362,149.2793,444,156.7969" style="stroke:#0000FF;stroke-width:1.5;"/><text fill="#0000FF" font-family="Serif" font-size="14" lengthAdjust="spacing" textLength="4" x="444" y="128.4571">&#160;</text><text fill="#0000FF" font-family="Serif" font-size="14" lengthAdjust="spacing" textLength="4" x="444" y="146.2032">&#160;</text><line style="stroke:#0000FF;stroke-width:1.5;" x1="1144" x2="1144" y1="56.6094" y2="156.7969"/><polygon fill="#0000FF" points="1141.2638,149.2793,1146.7362,149.2793,1144,156.7969" style="stroke:#0000FF;stroke-width:1.5;"/><text fill="#0000FF" font-family="Serif" font-size="14" lengthAdjust="spacing" textLength="4" x="1144" y="128.4571">&#160;</text><text fill="#0000FF" font-family="Serif" font-size="14" lengthAdjust="spacing" textLength="4" x="1144" y="146.2032">&#160;</text><line style="stroke:#0000FF;stroke-width:1.5;" x1="594" x2="594" y1="56.6094" y2="156.7969"/><polygon fill="#0000FF" points="591.2638,149.2793,596.7362,149.2793,594,156.7969" style="stroke:#0000FF;stroke-width:1.5;"/><text fill="#0000FF" font-family="Serif" font-size="14" lengthAdjust="spacing" textLength="4" x="594" y="128.4571">&#160;</text><text fill="#0000FF" font-family="Serif" font-size="14" lengthAdjust="spacing" textLength="4" x="594" y="146.2032">&#160;</text><line style="stroke:#0000FF;stroke-width:1.5;" x1="944" x2="944" y1="56.6094" y2="156.7969"/><polygon fill="#0000FF" points="941.2638,149.2793,946.7362,149.2793,944,156.7969" style="stroke:#0000FF;stroke-width:1.5;"/><text fill="#0000FF" font-family="Serif" font-size="14" lengthAdjust="spacing" textLength="4" x="944" y="128.4571">&#160;</text><text fill="#0000FF" font-family="Serif" font-size="14" lengthAdjust="spacing" textLength="4" x="944" y="146.2032">&#160;</text><rect fill="#DDDDDD" height="27.6094" id="_legend" rx="7.5" ry="7.5" style="stroke:#333333;stroke-width:0.5;" width="471" x="368.5" y="257.3359"/><text fill="#333333" font-family="sans-serif" font-size="14" font-weight="bold" lengthAdjust="spacing" textLength="461" x="373.5" y="276.8691">This is channel CH1 output signal and channel CH1N output signal</text><!--SRC=[RP5HIyCm58MVlR_YqdUn6U90fcoBp0fZmYRu8aZMtdN1DD4aKwVutxsrjJfTQI4vv-Ixf-qWnAsXSr3UknTyXuE9it6cAiA5ic51NgyQRQ7V2CK974or9UcCyxWq6u8FYBeYmoAVHhx6AdyelTlOeacDTNZYN6rrx8pCCqMTgqvkyABRVqzW66iV_2orLNxR3lafKNeY-nKP7BNl4dKqXAEmhIgANkTOa2hgbgXj81-ris2e95l0pLe7v3jVAsl9eCm4karyt4GCkhJAeBB5RtUsQmD3i6Mr1H4JddNlSk5fbQ0AAFzR2Qzh9_rlsQIn1C1GGbgtowukC-ZNg-drBOX-fzMHT5z6uk4v8_0Kxoo2J8Tz7B0o52bB4sNuVvLuqNuMw8cEi7lmQu1e1jHOa68eMbIl3irrs269T2-fxVot6O1raN3fOdGLkXNhfpYQp_4CqzUqpmafsyqnV080]--></g></svg>