<?xml version="1.0" encoding="UTF-8" standalone="no"?><svg xmlns="http://www.w3.org/2000/svg" xmlns:xlink="http://www.w3.org/1999/xlink" contentStyleType="text/css" height="258px" preserveAspectRatio="none" style="width:689px;height:258px;background:#FFFFFF;" version="1.1" viewBox="0 0 689 258" width="689px" zoomAndPan="magnify"><defs/><g><text fill="#000000" font-family="sans-serif" font-size="14" font-weight="bold" lengthAdjust="spacing" textLength="169" x="258.5" y="34.5332">One Pulse Signal Timing</text><line style="stroke:#333333;stroke-width:0.5;" x1="10" x2="10" y1="48.6094" y2="179.9219"/><line style="stroke:#333333;stroke-width:0.5;" x1="677" x2="677" y1="48.6094" y2="179.9219"/><line style="stroke:#333333;stroke-width:0.5;stroke-dasharray:3.0,5.0;" x1="22" x2="22" y1="48.6094" y2="179.9219"/><line style="stroke:#333333;stroke-width:0.5;stroke-dasharray:3.0,5.0;" x1="72" x2="72" y1="48.6094" y2="179.9219"/><line style="stroke:#333333;stroke-width:0.5;stroke-dasharray:3.0,5.0;" x1="122" x2="122" y1="48.6094" y2="179.9219"/><line style="stroke:#333333;stroke-width:0.5;stroke-dasharray:3.0,5.0;" x1="172" x2="172" y1="48.6094" y2="179.9219"/><line style="stroke:#333333;stroke-width:0.5;stroke-dasharray:3.0,5.0;" x1="222" x2="222" y1="48.6094" y2="179.9219"/><line style="stroke:#333333;stroke-width:0.5;stroke-dasharray:3.0,5.0;" x1="272" x2="272" y1="48.6094" y2="179.9219"/><line style="stroke:#333333;stroke-width:0.5;stroke-dasharray:3.0,5.0;" x1="322" x2="322" y1="48.6094" y2="179.9219"/><line style="stroke:#333333;stroke-width:0.5;stroke-dasharray:3.0,5.0;" x1="372" x2="372" y1="48.6094" y2="179.9219"/><line style="stroke:#333333;stroke-width:0.5;stroke-dasharray:3.0,5.0;" x1="422" x2="422" y1="48.6094" y2="179.9219"/><line style="stroke:#333333;stroke-width:0.5;stroke-dasharray:3.0,5.0;" x1="472" x2="472" y1="48.6094" y2="179.9219"/><line style="stroke:#333333;stroke-width:0.5;stroke-dasharray:3.0,5.0;" x1="522" x2="522" y1="48.6094" y2="179.9219"/><line style="stroke:#333333;stroke-width:0.5;stroke-dasharray:3.0,5.0;" x1="572" x2="572" y1="48.6094" y2="179.9219"/><line style="stroke:#333333;stroke-width:0.5;stroke-dasharray:3.0,5.0;" x1="622" x2="622" y1="48.6094" y2="179.9219"/><line style="stroke:#333333;stroke-width:0.5;stroke-dasharray:3.0,5.0;" x1="672" x2="672" y1="48.6094" y2="179.9219"/><line style="stroke:#333333;stroke-width:0.5;" x1="10" x2="677" y1="48.6094" y2="48.6094"/><text fill="#333333" font-family="sans-serif" font-size="14" font-weight="bold" lengthAdjust="spacing" textLength="151" x="15" y="63.1426">Internal Signal tim_tix</text><line style="stroke:#333333;stroke-width:0.5;" x1="10" x2="167" y1="67.2188" y2="67.2188"/><line style="stroke:#333333;stroke-width:0.5;" x1="167" x2="177" y1="67.2188" y2="48.6094"/><text fill="#333333" font-family="sans-serif" font-size="12" lengthAdjust="spacing" textLength="7" x="15" y="98.1289">0</text><text fill="#333333" font-family="sans-serif" font-size="12" lengthAdjust="spacing" textLength="7" x="15" y="78.1289">1</text><line style="stroke:#006400;stroke-width:2.0;" x1="22" x2="72" y1="92.2188" y2="92.2188"/><line style="stroke:#006400;stroke-width:2.0;" x1="72" x2="122" y1="72.2188" y2="72.2188"/><line style="stroke:#006400;stroke-width:2.0;" x1="122" x2="172" y1="72.2188" y2="72.2188"/><line style="stroke:#006400;stroke-width:2.0;" x1="172" x2="222" y1="92.2188" y2="92.2188"/><line style="stroke:#006400;stroke-width:2.0;" x1="222" x2="272" y1="92.2188" y2="92.2188"/><line style="stroke:#006400;stroke-width:2.0;" x1="272" x2="322" y1="92.2188" y2="92.2188"/><line style="stroke:#006400;stroke-width:2.0;" x1="322" x2="372" y1="92.2188" y2="92.2188"/><line style="stroke:#006400;stroke-width:2.0;" x1="372" x2="422" y1="92.2188" y2="92.2188"/><line style="stroke:#006400;stroke-width:2.0;" x1="422" x2="472" y1="92.2188" y2="92.2188"/><line style="stroke:#006400;stroke-width:2.0;" x1="472" x2="522" y1="92.2188" y2="92.2188"/><line style="stroke:#006400;stroke-width:2.0;" x1="522" x2="572" y1="92.2188" y2="92.2188"/><line style="stroke:#006400;stroke-width:2.0;" x1="572" x2="622" y1="92.2188" y2="92.2188"/><line style="stroke:#006400;stroke-width:2.0;" x1="622" x2="672" y1="92.2188" y2="92.2188"/><line style="stroke:#006400;stroke-width:2.0;" x1="72" x2="72" y1="72.2188" y2="92.2188"/><line style="stroke:#006400;stroke-width:2.0;" x1="122" x2="122" y1="72.2188" y2="72.2188"/><line style="stroke:#006400;stroke-width:2.0;" x1="172" x2="172" y1="72.2188" y2="92.2188"/><line style="stroke:#006400;stroke-width:2.0;" x1="222" x2="222" y1="92.2188" y2="92.2188"/><line style="stroke:#006400;stroke-width:2.0;" x1="272" x2="272" y1="92.2188" y2="92.2188"/><line style="stroke:#006400;stroke-width:2.0;" x1="322" x2="322" y1="92.2188" y2="92.2188"/><line style="stroke:#006400;stroke-width:2.0;" x1="372" x2="372" y1="92.2188" y2="92.2188"/><line style="stroke:#006400;stroke-width:2.0;" x1="422" x2="422" y1="92.2188" y2="92.2188"/><line style="stroke:#006400;stroke-width:2.0;" x1="472" x2="472" y1="92.2188" y2="92.2188"/><line style="stroke:#006400;stroke-width:2.0;" x1="522" x2="522" y1="92.2188" y2="92.2188"/><line style="stroke:#006400;stroke-width:2.0;" x1="572" x2="572" y1="92.2188" y2="92.2188"/><line style="stroke:#006400;stroke-width:2.0;" x1="622" x2="622" y1="92.2188" y2="92.2188"/><line style="stroke:#333333;stroke-width:0.5;" x1="10" x2="677" y1="104.2188" y2="104.2188"/><text fill="#333333" font-family="sans-serif" font-size="14" font-weight="bold" lengthAdjust="spacing" textLength="119" x="15" y="118.752">One pulse Signal</text><line style="stroke:#333333;stroke-width:0.5;" x1="10" x2="135" y1="122.8281" y2="122.8281"/><line style="stroke:#333333;stroke-width:0.5;" x1="135" x2="145" y1="122.8281" y2="104.2188"/><text fill="#333333" font-family="sans-serif" font-size="12" lengthAdjust="spacing" textLength="7" x="15" y="173.832">0</text><text fill="#333333" font-family="sans-serif" font-size="12" lengthAdjust="spacing" textLength="7" x="15" y="153.832">1</text><line style="stroke:#006400;stroke-width:2.0;" x1="22" x2="72" y1="167.9219" y2="167.9219"/><line style="stroke:#006400;stroke-width:2.0;" x1="72" x2="122" y1="167.9219" y2="167.9219"/><line style="stroke:#006400;stroke-width:2.0;" x1="122" x2="172" y1="167.9219" y2="167.9219"/><line style="stroke:#006400;stroke-width:2.0;" x1="172" x2="222" y1="167.9219" y2="167.9219"/><line style="stroke:#006400;stroke-width:2.0;" x1="222" x2="272" y1="167.9219" y2="167.9219"/><line style="stroke:#006400;stroke-width:2.0;" x1="272" x2="322" y1="167.9219" y2="167.9219"/><line style="stroke:#006400;stroke-width:2.0;" x1="322" x2="372" y1="167.9219" y2="167.9219"/><line style="stroke:#006400;stroke-width:2.0;" x1="372" x2="422" y1="147.9219" y2="147.9219"/><line style="stroke:#006400;stroke-width:2.0;" x1="422" x2="472" y1="147.9219" y2="147.9219"/><line style="stroke:#006400;stroke-width:2.0;" x1="472" x2="522" y1="147.9219" y2="147.9219"/><line style="stroke:#006400;stroke-width:2.0;" x1="522" x2="572" y1="147.9219" y2="147.9219"/><line style="stroke:#006400;stroke-width:2.0;" x1="572" x2="622" y1="147.9219" y2="147.9219"/><line style="stroke:#006400;stroke-width:2.0;" x1="622" x2="672" y1="167.9219" y2="167.9219"/><line style="stroke:#006400;stroke-width:2.0;" x1="72" x2="72" y1="167.9219" y2="167.9219"/><line style="stroke:#006400;stroke-width:2.0;" x1="122" x2="122" y1="167.9219" y2="167.9219"/><line style="stroke:#006400;stroke-width:2.0;" x1="172" x2="172" y1="167.9219" y2="167.9219"/><line style="stroke:#006400;stroke-width:2.0;" x1="222" x2="222" y1="167.9219" y2="167.9219"/><line style="stroke:#006400;stroke-width:2.0;" x1="272" x2="272" y1="167.9219" y2="167.9219"/><line style="stroke:#006400;stroke-width:2.0;" x1="322" x2="322" y1="167.9219" y2="167.9219"/><line style="stroke:#006400;stroke-width:2.0;" x1="372" x2="372" y1="147.9219" y2="167.9219"/><line style="stroke:#006400;stroke-width:2.0;" x1="422" x2="422" y1="147.9219" y2="147.9219"/><line style="stroke:#006400;stroke-width:2.0;" x1="472" x2="472" y1="147.9219" y2="147.9219"/><line style="stroke:#006400;stroke-width:2.0;" x1="522" x2="522" y1="147.9219" y2="147.9219"/><line style="stroke:#006400;stroke-width:2.0;" x1="572" x2="572" y1="147.9219" y2="147.9219"/><line style="stroke:#006400;stroke-width:2.0;" x1="622" x2="622" y1="147.9219" y2="167.9219"/><line style="stroke:#8B0000;stroke-width:1.5;" x1="74.5" x2="369.5" y1="162.9219" y2="162.9219"/><polygon fill="#8B0000" points="82.5,166.9219,82.5,158.9219,74.5,162.9219" style="stroke:#8B0000;stroke-width:2.0;"/><polygon fill="#8B0000" points="361.5,166.9219,361.5,158.9219,369.5,162.9219" style="stroke:#8B0000;stroke-width:2.0;"/><text fill="#8B0000" font-family="sans-serif" font-size="12" lengthAdjust="spacing" textLength="31" x="206.5" y="155.2852">Delay</text><line style="stroke:#8B0000;stroke-width:1.5;" x1="374.5" x2="619.5" y1="142.9219" y2="142.9219"/><polygon fill="#8B0000" points="382.5,146.9219,382.5,138.9219,374.5,142.9219" style="stroke:#8B0000;stroke-width:2.0;"/><polygon fill="#8B0000" points="611.5,146.9219,611.5,138.9219,619.5,142.9219" style="stroke:#8B0000;stroke-width:2.0;"/><text fill="#8B0000" font-family="sans-serif" font-size="12" lengthAdjust="spacing" textLength="32" x="481" y="135.2852">Pulse</text><rect fill="#DDDDDD" height="27.6094" id="_legend" rx="7.5" ry="7.5" style="stroke:#333333;stroke-width:0.5;" width="252" x="217" y="205.7578"/><text fill="#333333" font-family="sans-serif" font-size="14" font-weight="bold" lengthAdjust="spacing" textLength="242" x="222" y="225.291">One pulse mode signal generation</text><!--MD5=[7948f15c5843a9a4d988c6a1b802cd65]
@startuml
Title One Pulse Signal Timing
legend
One pulse mode signal generation
end legend
' caption One pulse mode signal generation
hide time-axis

robust "Internal Signal tim_tix" as CH2
robust "One pulse Signal" as CH1


@0
CH2 is 0
CH1 is 0

@100
CH2 is 1
CH1 is 0

@200
CH2 is 1
CH1 is 0

@300
CH2 is 0
CH1 is 0

@400
CH2 is 0
CH1 is 0

@500
CH2 is 0
CH1 is 0

@600
CH2 is 0
CH1 is 0

@700
CH2 is 0
CH1 is 1

@800
CH2 is 0
CH1 is 1

@900
CH2 is 0
CH1 is 1

@1000
CH2 is 0
CH1 is 1

@1100
CH2 is 0
CH1 is 1

@1200
CH2 is 0
CH1 is 0

@100 <-> @+600 : Delay
@700 <-> @+500 : Pulse
@enduml

@startuml
Title One Pulse Signal Timing
legend
One pulse mode signal generation
end legend
hide time-axis

robust "Internal Signal tim_tix" as CH2
robust "One pulse Signal" as CH1


@0
CH2 is 0
CH1 is 0

@100
CH2 is 1
CH1 is 0

@200
CH2 is 1
CH1 is 0

@300
CH2 is 0
CH1 is 0

@400
CH2 is 0
CH1 is 0

@500
CH2 is 0
CH1 is 0

@600
CH2 is 0
CH1 is 0

@700
CH2 is 0
CH1 is 1

@800
CH2 is 0
CH1 is 1

@900
CH2 is 0
CH1 is 1

@1000
CH2 is 0
CH1 is 1

@1100
CH2 is 0
CH1 is 1

@1200
CH2 is 0
CH1 is 0

@100 <-> @+600 : Delay
@700 <-> @+500 : Pulse
@enduml

PlantUML version 1.2022.13(Sat Nov 19 14:22:17 WAT 2022)
(GPL source distribution)
Java Runtime: OpenJDK Runtime Environment
JVM: OpenJDK 64-Bit Server VM
Default Encoding: Cp1252
Language: en
Country: US
--></g></svg>