<svg xmlns="http://www.w3.org/2000/svg" xmlns:xlink="http://www.w3.org/1999/xlink" contentStyleType="text/css" data-diagram-type="TIMING" height="333px" preserveAspectRatio="none" style="width:1152px;height:333px;background:#FFFFFF;" version="1.1" viewBox="0 0 1152 333" width="1152px" zoomAndPan="magnify"><title>Combined PWMs with OC5Ref</title><defs/><g><g class="title" data-source-line="21"><text fill="#000000" font-family="sans-serif" font-size="14" font-weight="bold" lengthAdjust="spacing" textLength="234.0488" x="454.9824" y="32.9951">Combined PWMs with OC5Ref</text></g><line style="stroke:#333333;stroke-width:0.5;" x1="10" x2="10" y1="47.2969" y2="257.2969"/><line style="stroke:#333333;stroke-width:0.5;" x1="1135.0137" x2="1135.0137" y1="47.2969" y2="257.2969"/><line style="stroke:#333333;stroke-width:0.5;stroke-dasharray:3,5;" x1="230.0137" x2="230.0137" y1="47.2969" y2="257.2969"/><line style="stroke:#333333;stroke-width:0.5;stroke-dasharray:3,5;" x1="280.0137" x2="280.0137" y1="47.2969" y2="257.2969"/><line style="stroke:#333333;stroke-width:0.5;stroke-dasharray:3,5;" x1="330.0137" x2="330.0137" y1="47.2969" y2="257.2969"/><line style="stroke:#333333;stroke-width:0.5;stroke-dasharray:3,5;" x1="380.0137" x2="380.0137" y1="47.2969" y2="257.2969"/><line style="stroke:#333333;stroke-width:0.5;stroke-dasharray:3,5;" x1="430.0137" x2="430.0137" y1="47.2969" y2="257.2969"/><line style="stroke:#333333;stroke-width:0.5;stroke-dasharray:3,5;" x1="480.0137" x2="480.0137" y1="47.2969" y2="257.2969"/><line style="stroke:#333333;stroke-width:0.5;stroke-dasharray:3,5;" x1="530.0137" x2="530.0137" y1="47.2969" y2="257.2969"/><line style="stroke:#333333;stroke-width:0.5;stroke-dasharray:3,5;" x1="580.0137" x2="580.0137" y1="47.2969" y2="257.2969"/><line style="stroke:#333333;stroke-width:0.5;stroke-dasharray:3,5;" x1="630.0137" x2="630.0137" y1="47.2969" y2="257.2969"/><line style="stroke:#333333;stroke-width:0.5;stroke-dasharray:3,5;" x1="680.0137" x2="680.0137" y1="47.2969" y2="257.2969"/><line style="stroke:#333333;stroke-width:0.5;stroke-dasharray:3,5;" x1="730.0137" x2="730.0137" y1="47.2969" y2="257.2969"/><line style="stroke:#333333;stroke-width:0.5;stroke-dasharray:3,5;" x1="780.0137" x2="780.0137" y1="47.2969" y2="257.2969"/><line style="stroke:#333333;stroke-width:0.5;stroke-dasharray:3,5;" x1="830.0137" x2="830.0137" y1="47.2969" y2="257.2969"/><line style="stroke:#333333;stroke-width:0.5;stroke-dasharray:3,5;" x1="880.0137" x2="880.0137" y1="47.2969" y2="257.2969"/><line style="stroke:#333333;stroke-width:0.5;stroke-dasharray:3,5;" x1="930.0137" x2="930.0137" y1="47.2969" y2="257.2969"/><line style="stroke:#333333;stroke-width:0.5;stroke-dasharray:3,5;" x1="980.0137" x2="980.0137" y1="47.2969" y2="257.2969"/><line style="stroke:#333333;stroke-width:0.5;stroke-dasharray:3,5;" x1="1030.0137" x2="1030.0137" y1="47.2969" y2="257.2969"/><line style="stroke:#333333;stroke-width:0.5;stroke-dasharray:3,5;" x1="1080.0137" x2="1080.0137" y1="47.2969" y2="257.2969"/><line style="stroke:#333333;stroke-width:0.5;stroke-dasharray:3,5;" x1="1130.0137" x2="1130.0137" y1="47.2969" y2="257.2969"/><line style="stroke:#333333;stroke-width:0.5;" x1="10" x2="1135.0137" y1="47.2969" y2="47.2969"/><text fill="#333333" font-family="sans-serif" font-size="14" font-weight="bold" lengthAdjust="spacing" textLength="163.7139" x="15" y="67.1436">OC1Ref (PWM1 50%)</text><line style="stroke:#008000;stroke-width:1;" x1="230.0137" x2="230.0137" y1="69.2969" y2="69.2969"/><line style="stroke:#008000;stroke-width:1;" x1="230.0137" x2="360.0137" y1="69.2969" y2="69.2969"/><line style="stroke:#008000;stroke-width:1;" x1="360.0137" x2="360.0137" y1="55.2969" y2="69.2969"/><line style="stroke:#008000;stroke-width:1;" x1="360.0137" x2="560.0137" y1="55.2969" y2="55.2969"/><line style="stroke:#008000;stroke-width:1;" x1="560.0137" x2="560.0137" y1="55.2969" y2="69.2969"/><line style="stroke:#008000;stroke-width:1;" x1="560.0137" x2="760.0137" y1="69.2969" y2="69.2969"/><line style="stroke:#008000;stroke-width:1;" x1="760.0137" x2="760.0137" y1="55.2969" y2="69.2969"/><line style="stroke:#008000;stroke-width:1;" x1="760.0137" x2="960.0137" y1="55.2969" y2="55.2969"/><line style="stroke:#008000;stroke-width:1;" x1="960.0137" x2="960.0137" y1="55.2969" y2="69.2969"/><line style="stroke:#008000;stroke-width:1;" x1="960.0137" x2="1130.0137" y1="69.2969" y2="69.2969"/><line style="stroke:#333333;stroke-width:0.5;" x1="10" x2="1135.0137" y1="77.2969" y2="77.2969"/><text fill="#333333" font-family="sans-serif" font-size="14" font-weight="bold" lengthAdjust="spacing" textLength="178.7734" x="15" y="97.1436">OC2Ref (PWM1 37.5%)</text><line style="stroke:#0000FF;stroke-width:1;" x1="230.0137" x2="230.0137" y1="99.2969" y2="99.2969"/><line style="stroke:#0000FF;stroke-width:1;" x1="230.0137" x2="385.0137" y1="99.2969" y2="99.2969"/><line style="stroke:#0000FF;stroke-width:1;" x1="385.0137" x2="385.0137" y1="85.2969" y2="99.2969"/><line style="stroke:#0000FF;stroke-width:1;" x1="385.0137" x2="535.0137" y1="85.2969" y2="85.2969"/><line style="stroke:#0000FF;stroke-width:1;" x1="535.0137" x2="535.0137" y1="85.2969" y2="99.2969"/><line style="stroke:#0000FF;stroke-width:1;" x1="535.0137" x2="785.0137" y1="99.2969" y2="99.2969"/><line style="stroke:#0000FF;stroke-width:1;" x1="785.0137" x2="785.0137" y1="85.2969" y2="99.2969"/><line style="stroke:#0000FF;stroke-width:1;" x1="785.0137" x2="935.0137" y1="85.2969" y2="85.2969"/><line style="stroke:#0000FF;stroke-width:1;" x1="935.0137" x2="935.0137" y1="85.2969" y2="99.2969"/><line style="stroke:#0000FF;stroke-width:1;" x1="935.0137" x2="1130.0137" y1="99.2969" y2="99.2969"/><line style="stroke:#333333;stroke-width:0.5;" x1="10" x2="1135.0137" y1="107.2969" y2="107.2969"/><text fill="#333333" font-family="sans-serif" font-size="14" font-weight="bold" lengthAdjust="spacing" textLength="163.7139" x="15" y="127.1436">OC3Ref (PWM1 25%)</text><line style="stroke:#FF0000;stroke-width:1;" x1="230.0137" x2="230.0137" y1="129.2969" y2="129.2969"/><line style="stroke:#FF0000;stroke-width:1;" x1="230.0137" x2="410.0137" y1="129.2969" y2="129.2969"/><line style="stroke:#FF0000;stroke-width:1;" x1="410.0137" x2="410.0137" y1="115.2969" y2="129.2969"/><line style="stroke:#FF0000;stroke-width:1;" x1="410.0137" x2="510.0137" y1="115.2969" y2="115.2969"/><line style="stroke:#FF0000;stroke-width:1;" x1="510.0137" x2="510.0137" y1="115.2969" y2="129.2969"/><line style="stroke:#FF0000;stroke-width:1;" x1="510.0137" x2="810.0137" y1="129.2969" y2="129.2969"/><line style="stroke:#FF0000;stroke-width:1;" x1="810.0137" x2="810.0137" y1="115.2969" y2="129.2969"/><line style="stroke:#FF0000;stroke-width:1;" x1="810.0137" x2="910.0137" y1="115.2969" y2="115.2969"/><line style="stroke:#FF0000;stroke-width:1;" x1="910.0137" x2="910.0137" y1="115.2969" y2="129.2969"/><line style="stroke:#FF0000;stroke-width:1;" x1="910.0137" x2="1130.0137" y1="129.2969" y2="129.2969"/><line style="stroke:#333333;stroke-width:0.5;" x1="10" x2="1135.0137" y1="137.2969" y2="137.2969"/><text fill="#333333" font-family="sans-serif" font-size="14" font-weight="bold" lengthAdjust="spacing" textLength="210.0137" x="15" y="157.1436">OC5Ref (PWM2 Ref 6.22%)</text><line style="stroke:#808080;stroke-width:1;" x1="230.0137" x2="230.0137" y1="159.2969" y2="159.2969"/><line style="stroke:#808080;stroke-width:1;" x1="230.0137" x2="230.0137" y1="145.2969" y2="159.2969"/><line style="stroke:#808080;stroke-width:1;" x1="230.0137" x2="450.0137" y1="145.2969" y2="145.2969"/><line style="stroke:#808080;stroke-width:1;" x1="450.0137" x2="450.0137" y1="145.2969" y2="159.2969"/><line style="stroke:#808080;stroke-width:1;" x1="450.0137" x2="470.0137" y1="159.2969" y2="159.2969"/><line style="stroke:#808080;stroke-width:1;" x1="470.0137" x2="470.0137" y1="145.2969" y2="159.2969"/><line style="stroke:#808080;stroke-width:1;" x1="470.0137" x2="850.0137" y1="145.2969" y2="145.2969"/><line style="stroke:#808080;stroke-width:1;" x1="850.0137" x2="850.0137" y1="145.2969" y2="159.2969"/><line style="stroke:#808080;stroke-width:1;" x1="850.0137" x2="870.0137" y1="159.2969" y2="159.2969"/><line style="stroke:#808080;stroke-width:1;" x1="870.0137" x2="870.0137" y1="145.2969" y2="159.2969"/><line style="stroke:#808080;stroke-width:1;" x1="870.0137" x2="1130.0137" y1="145.2969" y2="145.2969"/><line style="stroke:#333333;stroke-width:0.5;" x1="10" x2="1135.0137" y1="167.2969" y2="167.2969"/><text fill="#333333" font-family="sans-serif" font-size="14" font-weight="bold" lengthAdjust="spacing" textLength="138.5234" x="15" y="187.1436">OC1Ref &amp; OC5Ref</text><line style="stroke:#008000;stroke-width:1;" x1="230.0137" x2="230.0137" y1="189.2969" y2="189.2969"/><line style="stroke:#008000;stroke-width:1;" x1="230.0137" x2="360.0137" y1="189.2969" y2="189.2969"/><line style="stroke:#008000;stroke-width:1;" x1="360.0137" x2="360.0137" y1="175.2969" y2="189.2969"/><line style="stroke:#008000;stroke-width:1;" x1="360.0137" x2="385.0137" y1="175.2969" y2="175.2969"/><line style="stroke:#008000;stroke-width:1;" x1="385.0137" x2="410.0137" y1="175.2969" y2="175.2969"/><line style="stroke:#008000;stroke-width:1;" x1="410.0137" x2="450.0137" y1="175.2969" y2="175.2969"/><line style="stroke:#008000;stroke-width:1;" x1="450.0137" x2="450.0137" y1="175.2969" y2="189.2969"/><line style="stroke:#008000;stroke-width:1;" x1="450.0137" x2="470.0137" y1="189.2969" y2="189.2969"/><line style="stroke:#008000;stroke-width:1;" x1="470.0137" x2="470.0137" y1="175.2969" y2="189.2969"/><line style="stroke:#008000;stroke-width:1;" x1="470.0137" x2="510.0137" y1="175.2969" y2="175.2969"/><line style="stroke:#008000;stroke-width:1;" x1="510.0137" x2="535.0137" y1="175.2969" y2="175.2969"/><line style="stroke:#008000;stroke-width:1;" x1="535.0137" x2="560.0137" y1="175.2969" y2="175.2969"/><line style="stroke:#008000;stroke-width:1;" x1="560.0137" x2="560.0137" y1="175.2969" y2="189.2969"/><line style="stroke:#008000;stroke-width:1;" x1="560.0137" x2="760.0137" y1="189.2969" y2="189.2969"/><line style="stroke:#008000;stroke-width:1;" x1="760.0137" x2="760.0137" y1="175.2969" y2="189.2969"/><line style="stroke:#008000;stroke-width:1;" x1="760.0137" x2="785.0137" y1="175.2969" y2="175.2969"/><line style="stroke:#008000;stroke-width:1;" x1="785.0137" x2="810.0137" y1="175.2969" y2="175.2969"/><line style="stroke:#008000;stroke-width:1;" x1="810.0137" x2="850.0137" y1="175.2969" y2="175.2969"/><line style="stroke:#008000;stroke-width:1;" x1="850.0137" x2="850.0137" y1="175.2969" y2="189.2969"/><line style="stroke:#008000;stroke-width:1;" x1="850.0137" x2="870.0137" y1="189.2969" y2="189.2969"/><line style="stroke:#008000;stroke-width:1;" x1="870.0137" x2="870.0137" y1="175.2969" y2="189.2969"/><line style="stroke:#008000;stroke-width:1;" x1="870.0137" x2="910.0137" y1="175.2969" y2="175.2969"/><line style="stroke:#008000;stroke-width:1;" x1="910.0137" x2="935.0137" y1="175.2969" y2="175.2969"/><line style="stroke:#008000;stroke-width:1;" x1="935.0137" x2="960.0137" y1="175.2969" y2="175.2969"/><line style="stroke:#008000;stroke-width:1;" x1="960.0137" x2="960.0137" y1="175.2969" y2="189.2969"/><line style="stroke:#008000;stroke-width:1;" x1="960.0137" x2="1080.0137" y1="189.2969" y2="189.2969"/><line style="stroke:#008000;stroke-width:1;" x1="1080.0137" x2="1130.0137" y1="189.2969" y2="189.2969"/><line style="stroke:#333333;stroke-width:0.5;" x1="10" x2="1135.0137" y1="197.2969" y2="197.2969"/><text fill="#333333" font-family="sans-serif" font-size="14" font-weight="bold" lengthAdjust="spacing" textLength="138.5234" x="15" y="217.1436">OC2Ref &amp; OC5Ref</text><line style="stroke:#0000FF;stroke-width:1;" x1="230.0137" x2="230.0137" y1="219.2969" y2="219.2969"/><line style="stroke:#0000FF;stroke-width:1;" x1="230.0137" x2="360.0137" y1="219.2969" y2="219.2969"/><line style="stroke:#0000FF;stroke-width:1;" x1="360.0137" x2="385.0137" y1="219.2969" y2="219.2969"/><line style="stroke:#0000FF;stroke-width:1;" x1="385.0137" x2="385.0137" y1="205.2969" y2="219.2969"/><line style="stroke:#0000FF;stroke-width:1;" x1="385.0137" x2="410.0137" y1="205.2969" y2="205.2969"/><line style="stroke:#0000FF;stroke-width:1;" x1="410.0137" x2="450.0137" y1="205.2969" y2="205.2969"/><line style="stroke:#0000FF;stroke-width:1;" x1="450.0137" x2="450.0137" y1="205.2969" y2="219.2969"/><line style="stroke:#0000FF;stroke-width:1;" x1="450.0137" x2="470.0137" y1="219.2969" y2="219.2969"/><line style="stroke:#0000FF;stroke-width:1;" x1="470.0137" x2="470.0137" y1="205.2969" y2="219.2969"/><line style="stroke:#0000FF;stroke-width:1;" x1="470.0137" x2="510.0137" y1="205.2969" y2="205.2969"/><line style="stroke:#0000FF;stroke-width:1;" x1="510.0137" x2="535.0137" y1="205.2969" y2="205.2969"/><line style="stroke:#0000FF;stroke-width:1;" x1="535.0137" x2="535.0137" y1="205.2969" y2="219.2969"/><line style="stroke:#0000FF;stroke-width:1;" x1="535.0137" x2="560.0137" y1="219.2969" y2="219.2969"/><line style="stroke:#0000FF;stroke-width:1;" x1="560.0137" x2="760.0137" y1="219.2969" y2="219.2969"/><line style="stroke:#0000FF;stroke-width:1;" x1="760.0137" x2="785.0137" y1="219.2969" y2="219.2969"/><line style="stroke:#0000FF;stroke-width:1;" x1="785.0137" x2="785.0137" y1="205.2969" y2="219.2969"/><line style="stroke:#0000FF;stroke-width:1;" x1="785.0137" x2="810.0137" y1="205.2969" y2="205.2969"/><line style="stroke:#0000FF;stroke-width:1;" x1="810.0137" x2="850.0137" y1="205.2969" y2="205.2969"/><line style="stroke:#0000FF;stroke-width:1;" x1="850.0137" x2="850.0137" y1="205.2969" y2="219.2969"/><line style="stroke:#0000FF;stroke-width:1;" x1="850.0137" x2="870.0137" y1="219.2969" y2="219.2969"/><line style="stroke:#0000FF;stroke-width:1;" x1="870.0137" x2="870.0137" y1="205.2969" y2="219.2969"/><line style="stroke:#0000FF;stroke-width:1;" x1="870.0137" x2="910.0137" y1="205.2969" y2="205.2969"/><line style="stroke:#0000FF;stroke-width:1;" x1="910.0137" x2="935.0137" y1="205.2969" y2="205.2969"/><line style="stroke:#0000FF;stroke-width:1;" x1="935.0137" x2="935.0137" y1="205.2969" y2="219.2969"/><line style="stroke:#0000FF;stroke-width:1;" x1="935.0137" x2="960.0137" y1="219.2969" y2="219.2969"/><line style="stroke:#0000FF;stroke-width:1;" x1="960.0137" x2="1080.0137" y1="219.2969" y2="219.2969"/><line style="stroke:#0000FF;stroke-width:1;" x1="1080.0137" x2="1130.0137" y1="219.2969" y2="219.2969"/><line style="stroke:#333333;stroke-width:0.5;" x1="10" x2="1135.0137" y1="227.2969" y2="227.2969"/><text fill="#333333" font-family="sans-serif" font-size="14" font-weight="bold" lengthAdjust="spacing" textLength="138.5234" x="15" y="247.1436">OC3Ref &amp; OC5Ref</text><line style="stroke:#FF0000;stroke-width:1;" x1="230.0137" x2="230.0137" y1="249.2969" y2="249.2969"/><line style="stroke:#FF0000;stroke-width:1;" x1="230.0137" x2="360.0137" y1="249.2969" y2="249.2969"/><line style="stroke:#FF0000;stroke-width:1;" x1="360.0137" x2="385.0137" y1="249.2969" y2="249.2969"/><line style="stroke:#FF0000;stroke-width:1;" x1="385.0137" x2="410.0137" y1="249.2969" y2="249.2969"/><line style="stroke:#FF0000;stroke-width:1;" x1="410.0137" x2="410.0137" y1="235.2969" y2="249.2969"/><line style="stroke:#FF0000;stroke-width:1;" x1="410.0137" x2="450.0137" y1="235.2969" y2="235.2969"/><line style="stroke:#FF0000;stroke-width:1;" x1="450.0137" x2="450.0137" y1="235.2969" y2="249.2969"/><line style="stroke:#FF0000;stroke-width:1;" x1="450.0137" x2="470.0137" y1="249.2969" y2="249.2969"/><line style="stroke:#FF0000;stroke-width:1;" x1="470.0137" x2="470.0137" y1="235.2969" y2="249.2969"/><line style="stroke:#FF0000;stroke-width:1;" x1="470.0137" x2="510.0137" y1="235.2969" y2="235.2969"/><line style="stroke:#FF0000;stroke-width:1;" x1="510.0137" x2="510.0137" y1="235.2969" y2="249.2969"/><line style="stroke:#FF0000;stroke-width:1;" x1="510.0137" x2="535.0137" y1="249.2969" y2="249.2969"/><line style="stroke:#FF0000;stroke-width:1;" x1="535.0137" x2="560.0137" y1="249.2969" y2="249.2969"/><line style="stroke:#FF0000;stroke-width:1;" x1="560.0137" x2="760.0137" y1="249.2969" y2="249.2969"/><line style="stroke:#FF0000;stroke-width:1;" x1="760.0137" x2="785.0137" y1="249.2969" y2="249.2969"/><line style="stroke:#FF0000;stroke-width:1;" x1="785.0137" x2="810.0137" y1="249.2969" y2="249.2969"/><line style="stroke:#FF0000;stroke-width:1;" x1="810.0137" x2="810.0137" y1="235.2969" y2="249.2969"/><line style="stroke:#FF0000;stroke-width:1;" x1="810.0137" x2="850.0137" y1="235.2969" y2="235.2969"/><line style="stroke:#FF0000;stroke-width:1;" x1="850.0137" x2="850.0137" y1="235.2969" y2="249.2969"/><line style="stroke:#FF0000;stroke-width:1;" x1="850.0137" x2="870.0137" y1="249.2969" y2="249.2969"/><line style="stroke:#FF0000;stroke-width:1;" x1="870.0137" x2="870.0137" y1="235.2969" y2="249.2969"/><line style="stroke:#FF0000;stroke-width:1;" x1="870.0137" x2="910.0137" y1="235.2969" y2="235.2969"/><line style="stroke:#FF0000;stroke-width:1;" x1="910.0137" x2="910.0137" y1="235.2969" y2="249.2969"/><line style="stroke:#FF0000;stroke-width:1;" x1="910.0137" x2="935.0137" y1="249.2969" y2="249.2969"/><line style="stroke:#FF0000;stroke-width:1;" x1="935.0137" x2="960.0137" y1="249.2969" y2="249.2969"/><line style="stroke:#FF0000;stroke-width:1;" x1="960.0137" x2="1080.0137" y1="249.2969" y2="249.2969"/><line style="stroke:#FF0000;stroke-width:1;" x1="1080.0137" x2="1130.0137" y1="249.2969" y2="249.2969"/><line style="stroke:#333333;stroke-width:2;" x1="230.0137" x2="230.0137" y1="257.2969" y2="262.2969"/><line style="stroke:#333333;stroke-width:2;" x1="280.0137" x2="280.0137" y1="257.2969" y2="262.2969"/><line style="stroke:#333333;stroke-width:2;" x1="330.0137" x2="330.0137" y1="257.2969" y2="262.2969"/><line style="stroke:#333333;stroke-width:2;" x1="380.0137" x2="380.0137" y1="257.2969" y2="262.2969"/><line style="stroke:#333333;stroke-width:2;" x1="430.0137" x2="430.0137" y1="257.2969" y2="262.2969"/><line style="stroke:#333333;stroke-width:2;" x1="480.0137" x2="480.0137" y1="257.2969" y2="262.2969"/><line style="stroke:#333333;stroke-width:2;" x1="530.0137" x2="530.0137" y1="257.2969" y2="262.2969"/><line style="stroke:#333333;stroke-width:2;" x1="580.0137" x2="580.0137" y1="257.2969" y2="262.2969"/><line style="stroke:#333333;stroke-width:2;" x1="630.0137" x2="630.0137" y1="257.2969" y2="262.2969"/><line style="stroke:#333333;stroke-width:2;" x1="680.0137" x2="680.0137" y1="257.2969" y2="262.2969"/><line style="stroke:#333333;stroke-width:2;" x1="730.0137" x2="730.0137" y1="257.2969" y2="262.2969"/><line style="stroke:#333333;stroke-width:2;" x1="780.0137" x2="780.0137" y1="257.2969" y2="262.2969"/><line style="stroke:#333333;stroke-width:2;" x1="830.0137" x2="830.0137" y1="257.2969" y2="262.2969"/><line style="stroke:#333333;stroke-width:2;" x1="880.0137" x2="880.0137" y1="257.2969" y2="262.2969"/><line style="stroke:#333333;stroke-width:2;" x1="930.0137" x2="930.0137" y1="257.2969" y2="262.2969"/><line style="stroke:#333333;stroke-width:2;" x1="980.0137" x2="980.0137" y1="257.2969" y2="262.2969"/><line style="stroke:#333333;stroke-width:2;" x1="1030.0137" x2="1030.0137" y1="257.2969" y2="262.2969"/><line style="stroke:#333333;stroke-width:2;" x1="1080.0137" x2="1080.0137" y1="257.2969" y2="262.2969"/><line style="stroke:#333333;stroke-width:2;" x1="1130.0137" x2="1130.0137" y1="257.2969" y2="262.2969"/><line style="stroke:#333333;stroke-width:2;" x1="230.0137" x2="1130.0137" y1="257.2969" y2="257.2969"/><text fill="#333333" font-family="sans-serif" font-size="11" lengthAdjust="spacing" textLength="6.9985" x="226.5144" y="273.5073">0</text><text fill="#333333" font-family="sans-serif" font-size="11" lengthAdjust="spacing" textLength="13.9971" x="273.0151" y="273.5073">10</text><text fill="#333333" font-family="sans-serif" font-size="11" lengthAdjust="spacing" textLength="13.9971" x="323.0151" y="273.5073">20</text><text fill="#333333" font-family="sans-serif" font-size="11" lengthAdjust="spacing" textLength="13.9971" x="373.0151" y="273.5073">30</text><text fill="#333333" font-family="sans-serif" font-size="11" lengthAdjust="spacing" textLength="13.9971" x="423.0151" y="273.5073">40</text><text fill="#333333" font-family="sans-serif" font-size="11" lengthAdjust="spacing" textLength="13.9971" x="473.0151" y="273.5073">50</text><text fill="#333333" font-family="sans-serif" font-size="11" lengthAdjust="spacing" textLength="13.9971" x="523.0151" y="273.5073">60</text><text fill="#333333" font-family="sans-serif" font-size="11" lengthAdjust="spacing" textLength="13.9971" x="573.0151" y="273.5073">70</text><text fill="#333333" font-family="sans-serif" font-size="11" lengthAdjust="spacing" textLength="13.9971" x="623.0151" y="273.5073">80</text><text fill="#333333" font-family="sans-serif" font-size="11" lengthAdjust="spacing" textLength="13.9971" x="673.0151" y="273.5073">90</text><text fill="#333333" font-family="sans-serif" font-size="11" lengthAdjust="spacing" textLength="20.9956" x="719.5159" y="273.5073">100</text><text fill="#333333" font-family="sans-serif" font-size="11" lengthAdjust="spacing" textLength="20.9956" x="769.5159" y="273.5073">110</text><text fill="#333333" font-family="sans-serif" font-size="11" lengthAdjust="spacing" textLength="20.9956" x="819.5159" y="273.5073">120</text><text fill="#333333" font-family="sans-serif" font-size="11" lengthAdjust="spacing" textLength="20.9956" x="869.5159" y="273.5073">130</text><text fill="#333333" font-family="sans-serif" font-size="11" lengthAdjust="spacing" textLength="20.9956" x="919.5159" y="273.5073">140</text><text fill="#333333" font-family="sans-serif" font-size="11" lengthAdjust="spacing" textLength="20.9956" x="969.5159" y="273.5073">150</text><text fill="#333333" font-family="sans-serif" font-size="11" lengthAdjust="spacing" textLength="20.9956" x="1019.5159" y="273.5073">160</text><text fill="#333333" font-family="sans-serif" font-size="11" lengthAdjust="spacing" textLength="20.9956" x="1069.5159" y="273.5073">170</text><text fill="#333333" font-family="sans-serif" font-size="11" lengthAdjust="spacing" textLength="20.9956" x="1119.5159" y="273.5073">180</text><g class="legend" data-source-line="22"><rect fill="#DDDDDD" height="26.2969" rx="7.5" ry="7.5" style="stroke:#333333;stroke-width:0.5;" width="656.3994" x="243.8071" y="282.1016"/><text fill="#333333" font-family="sans-serif" font-size="14" font-weight="bold" lengthAdjust="spacing" textLength="646.3994" x="248.8071" y="300.0967">Resulting signals are made of an AND logical combination of two reference PWMs</text></g><!--SRC=[dLLRQzim57xNhpWKjgOGiaY-T0-XTAIFMpjAOOz3iHLRpBQ2vT2QqVts7SdnHKsoY_pa8ttVkKgVLhff2t536bdAAhkJFAjv2J_98XLRlYyQ_0NyFijAh5MXQiXg8QfXxIcNoOzAQ0sKl9B5fjYB8uPPF4UeHNg4nxLpS4okFP4HRyyGNidgmw709zaK0jQgt20gXQ_VlcXubaqE3-leKMn98J9HfK0UXSQoiHUWPLRnGWEl1PGy5Q2sm2luT7y7XSfamWj8h3lUI5MPtUPPOVPRKOig4JO4CJuxroINw6EhLBDHBuGONjt2nSEQOdYO8Pf2j7ntTG5Sms5rjJgCuUPcGc0Z8RXUH0E5THJJRmSVZ7WseeCEZTrsm54FPc3-uWLZ0oNgAARXo7bRmli3meBxHd-dVohYD8MTBU8qFXZA81gd8e0kpNwqX9ry4OKcX5p2GoqpTDRFh3i2mupn-8i2Ls6shLK9hThN24p55RbTaaajKiF4Pc_ieBF9BOlVaEW_a0Bw5n8zHOh_aqIH58OUDOKVFI95iKTDCVNeNXnxr4INFeEYr6TIbFgCYZAVML7cComQ-4oBXZxZeg7NlAuzRkCbtAldEV0qDQhUv2ZalHPOJUILrG8saUuavrM5oj6z48QYUIb6bR0oOpnR1-iUFKFzddUQFBTIE_f-77pFEac5dQYbIcNIQv3nPfTGk_I-H86AGzXNia6_6wxHnaV62bF9Nsmgkk7b3dvXKwxccFnEy0PHF4bKRKejMgjxdJZtpmka-wQ5f4rG9cUvp788M1V5Ijq1RHjdL6oqgRrYphwvFGx037MAwEAp8Rxjp746B7GoO6C4bCJHfbOPd7rp4ns0EOnJX4qW619WfyBJs0aVJCB74vjQDNFspPLs03Hm4Ltyw11_UiBi8JZEnUr4D7f6oHxjfLLZPz_eX0Cm4Z11_0O0]--></g></svg>