<?xml version="1.0" encoding="UTF-8" standalone="no"?><svg xmlns="http://www.w3.org/2000/svg" xmlns:xlink="http://www.w3.org/1999/xlink" contentStyleType="text/css" height="190px" preserveAspectRatio="none" style="width:984px;height:190px;background:#FFFFFF;" version="1.1" viewBox="0 0 984 190" width="984px" zoomAndPan="magnify"><defs/><g><rect fill="none" height="26.2969" id="_title" style="stroke:none;stroke-width:1.0;" width="157" x="412" y="15"/><text fill="#000000" font-family="sans-serif" font-size="14" font-weight="bold" lengthAdjust="spacing" textLength="147" x="417" y="32.9951">PWM Signal Timing</text><line style="stroke:#333333;stroke-width:0.5;" x1="10" x2="10" y1="47.2969" y2="120.5625"/><line style="stroke:#333333;stroke-width:0.5;" x1="972" x2="972" y1="47.2969" y2="120.5625"/><line style="stroke:#333333;stroke-width:0.5;stroke-dasharray:3.0,5.0;" x1="42" x2="42" y1="47.2969" y2="120.5625"/><line style="stroke:#333333;stroke-width:0.5;stroke-dasharray:3.0,5.0;" x1="92" x2="92" y1="47.2969" y2="120.5625"/><line style="stroke:#333333;stroke-width:0.5;stroke-dasharray:3.0,5.0;" x1="142" x2="142" y1="47.2969" y2="120.5625"/><line style="stroke:#333333;stroke-width:0.5;stroke-dasharray:3.0,5.0;" x1="192" x2="192" y1="47.2969" y2="120.5625"/><line style="stroke:#333333;stroke-width:0.5;stroke-dasharray:3.0,5.0;" x1="242" x2="242" y1="47.2969" y2="120.5625"/><line style="stroke:#333333;stroke-width:0.5;stroke-dasharray:3.0,5.0;" x1="292" x2="292" y1="47.2969" y2="120.5625"/><line style="stroke:#333333;stroke-width:0.5;stroke-dasharray:3.0,5.0;" x1="342" x2="342" y1="47.2969" y2="120.5625"/><line style="stroke:#333333;stroke-width:0.5;stroke-dasharray:3.0,5.0;" x1="392" x2="392" y1="47.2969" y2="120.5625"/><line style="stroke:#333333;stroke-width:0.5;stroke-dasharray:3.0,5.0;" x1="442" x2="442" y1="47.2969" y2="120.5625"/><line style="stroke:#333333;stroke-width:0.5;stroke-dasharray:3.0,5.0;" x1="492" x2="492" y1="47.2969" y2="120.5625"/><line style="stroke:#333333;stroke-width:0.5;stroke-dasharray:3.0,5.0;" x1="542" x2="542" y1="47.2969" y2="120.5625"/><line style="stroke:#333333;stroke-width:0.5;stroke-dasharray:3.0,5.0;" x1="592" x2="592" y1="47.2969" y2="120.5625"/><line style="stroke:#333333;stroke-width:0.5;stroke-dasharray:3.0,5.0;" x1="642" x2="642" y1="47.2969" y2="120.5625"/><line style="stroke:#333333;stroke-width:0.5;stroke-dasharray:3.0,5.0;" x1="692" x2="692" y1="47.2969" y2="120.5625"/><line style="stroke:#333333;stroke-width:0.5;stroke-dasharray:3.0,5.0;" x1="742" x2="742" y1="47.2969" y2="120.5625"/><line style="stroke:#333333;stroke-width:0.5;stroke-dasharray:3.0,5.0;" x1="792" x2="792" y1="47.2969" y2="120.5625"/><line style="stroke:#333333;stroke-width:0.5;stroke-dasharray:3.0,5.0;" x1="842" x2="842" y1="47.2969" y2="120.5625"/><line style="stroke:#333333;stroke-width:0.5;stroke-dasharray:3.0,5.0;" x1="892" x2="892" y1="47.2969" y2="120.5625"/><line style="stroke:#333333;stroke-width:0.5;stroke-dasharray:3.0,5.0;" x1="942" x2="942" y1="47.2969" y2="120.5625"/><line style="stroke:#333333;stroke-width:0.5;" x1="10" x2="972" y1="47.2969" y2="47.2969"/><text fill="#333333" font-family="sans-serif" font-size="14" font-weight="bold" lengthAdjust="spacing" textLength="91" x="15" y="60.292">CHANNEL_Z</text><line style="stroke:#333333;stroke-width:0.5;" x1="10" x2="107" y1="64.5938" y2="64.5938"/><line style="stroke:#333333;stroke-width:0.5;" x1="107" x2="117" y1="64.5938" y2="47.2969"/><text fill="#333333" font-family="sans-serif" font-size="12" lengthAdjust="spacing" textLength="20" x="15" y="113.7168">low</text><text fill="#333333" font-family="sans-serif" font-size="12" lengthAdjust="spacing" textLength="27" x="15" y="93.7168">high</text><line style="stroke:#006400;stroke-width:2.0;" x1="42" x2="92" y1="108.5625" y2="108.5625"/><line style="stroke:#006400;stroke-width:2.0;" x1="92" x2="117" y1="88.5625" y2="88.5625"/><line style="stroke:#006400;stroke-width:2.0;" x1="117" x2="142" y1="108.5625" y2="108.5625"/><line style="stroke:#006400;stroke-width:2.0;" x1="142" x2="167" y1="88.5625" y2="88.5625"/><line style="stroke:#006400;stroke-width:2.0;" x1="167" x2="192" y1="108.5625" y2="108.5625"/><line style="stroke:#006400;stroke-width:2.0;" x1="192" x2="217" y1="88.5625" y2="88.5625"/><line style="stroke:#006400;stroke-width:2.0;" x1="217" x2="242" y1="108.5625" y2="108.5625"/><line style="stroke:#006400;stroke-width:2.0;" x1="242" x2="267" y1="88.5625" y2="88.5625"/><line style="stroke:#006400;stroke-width:2.0;" x1="267" x2="292" y1="108.5625" y2="108.5625"/><line style="stroke:#006400;stroke-width:2.0;" x1="292" x2="317" y1="88.5625" y2="88.5625"/><line style="stroke:#006400;stroke-width:2.0;" x1="317" x2="342" y1="108.5625" y2="108.5625"/><line style="stroke:#006400;stroke-width:2.0;" x1="342" x2="367" y1="88.5625" y2="88.5625"/><line style="stroke:#006400;stroke-width:2.0;" x1="367" x2="392" y1="108.5625" y2="108.5625"/><line style="stroke:#006400;stroke-width:2.0;" x1="392" x2="417" y1="88.5625" y2="88.5625"/><line style="stroke:#006400;stroke-width:2.0;" x1="417" x2="442" y1="108.5625" y2="108.5625"/><line style="stroke:#006400;stroke-width:2.0;" x1="442" x2="467" y1="88.5625" y2="88.5625"/><line style="stroke:#006400;stroke-width:2.0;" x1="467" x2="492" y1="108.5625" y2="108.5625"/><line style="stroke:#006400;stroke-width:2.0;" x1="492" x2="517" y1="88.5625" y2="88.5625"/><line style="stroke:#006400;stroke-width:2.0;" x1="517" x2="542" y1="108.5625" y2="108.5625"/><line style="stroke:#006400;stroke-width:2.0;" x1="542" x2="567" y1="88.5625" y2="88.5625"/><line style="stroke:#006400;stroke-width:2.0;" x1="567" x2="592" y1="108.5625" y2="108.5625"/><line style="stroke:#006400;stroke-width:2.0;" x1="592" x2="617" y1="88.5625" y2="88.5625"/><line style="stroke:#006400;stroke-width:2.0;" x1="617" x2="642" y1="108.5625" y2="108.5625"/><line style="stroke:#006400;stroke-width:2.0;" x1="642" x2="667" y1="88.5625" y2="88.5625"/><line style="stroke:#006400;stroke-width:2.0;" x1="667" x2="692" y1="108.5625" y2="108.5625"/><line style="stroke:#006400;stroke-width:2.0;" x1="692" x2="717" y1="88.5625" y2="88.5625"/><line style="stroke:#006400;stroke-width:2.0;" x1="717" x2="742" y1="108.5625" y2="108.5625"/><line style="stroke:#006400;stroke-width:2.0;" x1="742" x2="767" y1="88.5625" y2="88.5625"/><line style="stroke:#006400;stroke-width:2.0;" x1="767" x2="792" y1="108.5625" y2="108.5625"/><line style="stroke:#006400;stroke-width:2.0;" x1="792" x2="817" y1="88.5625" y2="88.5625"/><line style="stroke:#006400;stroke-width:2.0;" x1="817" x2="842" y1="108.5625" y2="108.5625"/><line style="stroke:#006400;stroke-width:2.0;" x1="842" x2="867" y1="88.5625" y2="88.5625"/><line style="stroke:#006400;stroke-width:2.0;" x1="867" x2="892" y1="108.5625" y2="108.5625"/><line style="stroke:#006400;stroke-width:2.0;" x1="892" x2="917" y1="88.5625" y2="88.5625"/><line style="stroke:#006400;stroke-width:2.0;" x1="917" x2="967" y1="108.5625" y2="108.5625"/><line style="stroke:#006400;stroke-width:2.0;" x1="92" x2="92" y1="88.5625" y2="108.5625"/><line style="stroke:#006400;stroke-width:2.0;" x1="117" x2="117" y1="88.5625" y2="108.5625"/><line style="stroke:#006400;stroke-width:2.0;" x1="142" x2="142" y1="88.5625" y2="108.5625"/><line style="stroke:#006400;stroke-width:2.0;" x1="167" x2="167" y1="88.5625" y2="108.5625"/><line style="stroke:#006400;stroke-width:2.0;" x1="192" x2="192" y1="88.5625" y2="108.5625"/><line style="stroke:#006400;stroke-width:2.0;" x1="217" x2="217" y1="88.5625" y2="108.5625"/><line style="stroke:#006400;stroke-width:2.0;" x1="242" x2="242" y1="88.5625" y2="108.5625"/><line style="stroke:#006400;stroke-width:2.0;" x1="267" x2="267" y1="88.5625" y2="108.5625"/><line style="stroke:#006400;stroke-width:2.0;" x1="292" x2="292" y1="88.5625" y2="108.5625"/><line style="stroke:#006400;stroke-width:2.0;" x1="317" x2="317" y1="88.5625" y2="108.5625"/><line style="stroke:#006400;stroke-width:2.0;" x1="342" x2="342" y1="88.5625" y2="108.5625"/><line style="stroke:#006400;stroke-width:2.0;" x1="367" x2="367" y1="88.5625" y2="108.5625"/><line style="stroke:#006400;stroke-width:2.0;" x1="392" x2="392" y1="88.5625" y2="108.5625"/><line style="stroke:#006400;stroke-width:2.0;" x1="417" x2="417" y1="88.5625" y2="108.5625"/><line style="stroke:#006400;stroke-width:2.0;" x1="442" x2="442" y1="88.5625" y2="108.5625"/><line style="stroke:#006400;stroke-width:2.0;" x1="467" x2="467" y1="88.5625" y2="108.5625"/><line style="stroke:#006400;stroke-width:2.0;" x1="492" x2="492" y1="88.5625" y2="108.5625"/><line style="stroke:#006400;stroke-width:2.0;" x1="517" x2="517" y1="88.5625" y2="108.5625"/><line style="stroke:#006400;stroke-width:2.0;" x1="542" x2="542" y1="88.5625" y2="108.5625"/><line style="stroke:#006400;stroke-width:2.0;" x1="567" x2="567" y1="88.5625" y2="108.5625"/><line style="stroke:#006400;stroke-width:2.0;" x1="592" x2="592" y1="88.5625" y2="108.5625"/><line style="stroke:#006400;stroke-width:2.0;" x1="617" x2="617" y1="88.5625" y2="108.5625"/><line style="stroke:#006400;stroke-width:2.0;" x1="642" x2="642" y1="88.5625" y2="108.5625"/><line style="stroke:#006400;stroke-width:2.0;" x1="667" x2="667" y1="88.5625" y2="108.5625"/><line style="stroke:#006400;stroke-width:2.0;" x1="692" x2="692" y1="88.5625" y2="108.5625"/><line style="stroke:#006400;stroke-width:2.0;" x1="717" x2="717" y1="88.5625" y2="108.5625"/><line style="stroke:#006400;stroke-width:2.0;" x1="742" x2="742" y1="88.5625" y2="108.5625"/><line style="stroke:#006400;stroke-width:2.0;" x1="767" x2="767" y1="88.5625" y2="108.5625"/><line style="stroke:#006400;stroke-width:2.0;" x1="792" x2="792" y1="88.5625" y2="108.5625"/><line style="stroke:#006400;stroke-width:2.0;" x1="817" x2="817" y1="88.5625" y2="108.5625"/><line style="stroke:#006400;stroke-width:2.0;" x1="842" x2="842" y1="88.5625" y2="108.5625"/><line style="stroke:#006400;stroke-width:2.0;" x1="867" x2="867" y1="88.5625" y2="108.5625"/><line style="stroke:#006400;stroke-width:2.0;" x1="892" x2="892" y1="88.5625" y2="108.5625"/><line style="stroke:#006400;stroke-width:2.0;" x1="917" x2="917" y1="88.5625" y2="108.5625"/><line style="stroke:#8B0000;stroke-width:1.5;" x1="92" x2="892" y1="83.5625" y2="83.5625"/><polygon fill="#8B0000" points="99.5175,80.8263,99.5175,86.2987,92,83.5625" style="stroke:#8B0000;stroke-width:2.0;"/><polygon fill="#8B0000" points="884.4825,86.2987,884.4825,80.8263,892,83.5625" style="stroke:#8B0000;stroke-width:2.0;"/><text fill="#8B0000" font-family="sans-serif" font-size="12" lengthAdjust="spacing" textLength="67" x="458.5" y="75.7324">16 periods</text><rect fill="#DDDDDD" height="28.2969" id="_legend" rx="7.5" ry="7.5" style="stroke:#333333;stroke-width:0.5;" width="273" x="354" y="141.3672"/><text fill="#333333" font-family="sans-serif" font-size="14" font-weight="bold" lengthAdjust="spacing" textLength="261" x="360" y="160.3623">Dithering PWM mode deactivated</text><!--MD5=[389ac8bbf77663a0a00528054fffe99c]
@startuml
Title PWM Signal Timing
legend
Dithering PWM mode deactivated
end legend

hide time-axis

robust "CHANNEL_Z" as CH2

@-0
CH2 is low
@1
CH2 is high
@1.5
CH2 is low
@2
CH2 is high
@2.5
CH2 is low
@3
CH2 is high
@3.5
CH2 is low
@4
CH2 is high
@4.5
CH2 is low
@5
CH2 is high
@5.5
CH2 is low
@6
CH2 is high
@6.5
CH2 is low
@7
CH2 is high
@7.5
CH2 is low
@8
CH2 is high
@8.5
CH2 is low
@9
CH2 is high
@9.5
CH2 is low
@10
CH2 is high
@10.5
CH2 is low
@11
CH2 is high
@11.5
CH2 is low
@12
CH2 is high
@12.5
CH2 is low
@13
CH2 is high
@13.5
CH2 is low
@14
CH2 is high
@14.5
CH2 is low
@15
CH2 is high
@15.5
CH2 is low
@16
CH2 is high
@16.5
CH2 is low
@17
CH2 is high
@17.5
CH2 is low

@1 <-> @17 : 16 periods
@enduml

PlantUML version 1.2022.7(Mon Aug 22 17:01:30 UTC 2022)
(GPL source distribution)
Java Runtime: OpenJDK Runtime Environment
JVM: OpenJDK 64-Bit Server VM
Default Encoding: UTF-8
Language: en
Country: null
--></g></svg>