<?xml version="1.0" encoding="us-ascii" standalone="no"?><svg xmlns="http://www.w3.org/2000/svg" xmlns:xlink="http://www.w3.org/1999/xlink" contentStyleType="text/css" height="415px" preserveAspectRatio="none" style="width:491px;height:415px;background:#FFFFFF;" version="1.1" viewBox="0 0 491 415" width="491px" zoomAndPan="magnify"><defs/><g><rect fill="#DDDDDD" height="403.0859" style="stroke:#181818;stroke-width:0.5;" width="179" x="36" y="6"/><text fill="#000000" font-family="sans-serif" font-size="13" font-weight="bold" lengthAdjust="spacing" textLength="42" x="104.5" y="19.4951">STM32</text><rect fill="none" height="280.5156" style="stroke:#000000;stroke-width:1.5;" width="475" x="10" y="75.9609"/><rect fill="none" height="248.1641" style="stroke:#000000;stroke-width:1.5;" width="455" x="20" y="101.3125"/><rect fill="none" height="79.0547" style="stroke:#000000;stroke-width:1.5;" width="435" x="30" y="189.7188"/><line style="stroke:#181818;stroke-width:0.5;stroke-dasharray:5.0,5.0;" x1="125" x2="125" y1="58.9609" y2="373.4766"/><line style="stroke:#181818;stroke-width:0.5;stroke-dasharray:5.0,5.0;" x1="397" x2="397" y1="58.9609" y2="373.4766"/><rect fill="#E2E2F0" height="31.6094" rx="2.5" ry="2.5" style="stroke:#181818;stroke-width:0.5;" width="171" x="40" y="26.3516"/><text fill="#000000" font-family="sans-serif" font-size="14" lengthAdjust="spacing" textLength="157" x="47" y="47.8848">iPerf TCP Server Thread</text><rect fill="#E2E2F0" height="31.6094" rx="2.5" ry="2.5" style="stroke:#181818;stroke-width:0.5;" width="171" x="40" y="372.4766"/><text fill="#000000" font-family="sans-serif" font-size="14" lengthAdjust="spacing" textLength="157" x="47" y="394.0098">iPerf TCP Server Thread</text><rect fill="#E2E2F0" height="31.6094" rx="2.5" ry="2.5" style="stroke:#181818;stroke-width:0.5;" width="115" x="340" y="26.3516"/><text fill="#000000" font-family="sans-serif" font-size="14" lengthAdjust="spacing" textLength="101" x="347" y="47.8848">iPerf TCP Client</text><rect fill="#E2E2F0" height="31.6094" rx="2.5" ry="2.5" style="stroke:#181818;stroke-width:0.5;" width="115" x="340" y="372.4766"/><text fill="#000000" font-family="sans-serif" font-size="14" lengthAdjust="spacing" textLength="101" x="347" y="394.0098">iPerf TCP Client</text><path d="M10,75.9609 L83,75.9609 L83,84.3125 L73,94.3125 L10,94.3125 L10,75.9609 " fill="#EEEEEE" style="stroke:#000000;stroke-width:1.5;"/><rect fill="none" height="280.5156" style="stroke:#000000;stroke-width:1.5;" width="475" x="10" y="75.9609"/><text fill="#000000" font-family="sans-serif" font-size="13" font-weight="bold" lengthAdjust="spacing" textLength="28" x="25" y="90.4561">loop</text><text fill="#000000" font-family="sans-serif" font-size="11" font-weight="bold" lengthAdjust="spacing" textLength="128" x="98" y="89.3799">[Continuous operation]</text><path d="M20,101.3125 L81,101.3125 L81,109.6641 L71,119.6641 L20,119.6641 L20,101.3125 " fill="#EEEEEE" style="stroke:#000000;stroke-width:1.5;"/><rect fill="none" height="248.1641" style="stroke:#000000;stroke-width:1.5;" width="455" x="20" y="101.3125"/><text fill="#000000" font-family="sans-serif" font-size="13" font-weight="bold" lengthAdjust="spacing" textLength="16" x="35" y="115.8076">alt</text><text fill="#000000" font-family="sans-serif" font-size="11" font-weight="bold" lengthAdjust="spacing" textLength="123" x="96" y="114.7314">[Incoming connection]</text><polygon fill="#181818" points="136.5,170.7188,126.5,174.7188,136.5,178.7188,132.5,174.7188" style="stroke:#181818;stroke-width:1.0;"/><line style="stroke:#181818;stroke-width:1.0;stroke-dasharray:2.0,2.0;" x1="130.5" x2="396.5" y1="174.7188" y2="174.7188"/><text fill="#000000" font-family="sans-serif" font-size="13" lengthAdjust="spacing" textLength="48" x="142.5" y="137.1592">Connect</text><text fill="#000000" font-family="sans-serif" font-size="13" lengthAdjust="spacing" textLength="232" x="158.5" y="153.5107">Address: APP_IPERF_SERVER_ADDR</text><text fill="#000000" font-family="sans-serif" font-size="13" lengthAdjust="spacing" textLength="207" x="158.5" y="169.8623">Port: APP_IPERF_SERVER_PORT</text><path d="M30,189.7188 L103,189.7188 L103,198.0703 L93,208.0703 L30,208.0703 L30,189.7188 " fill="#EEEEEE" style="stroke:#000000;stroke-width:1.5;"/><rect fill="none" height="79.0547" style="stroke:#000000;stroke-width:1.5;" width="435" x="30" y="189.7188"/><text fill="#000000" font-family="sans-serif" font-size="13" font-weight="bold" lengthAdjust="spacing" textLength="28" x="45" y="204.2139">loop</text><polygon fill="#181818" points="136.5,226.4219,126.5,230.4219,136.5,234.4219,132.5,230.4219" style="stroke:#181818;stroke-width:1.0;"/><line style="stroke:#181818;stroke-width:1.0;" x1="130.5" x2="396.5" y1="230.4219" y2="230.4219"/><text fill="#000000" font-family="sans-serif" font-size="13" lengthAdjust="spacing" textLength="88" x="142.5" y="225.5654">Send TCP data</text><polygon fill="#181818" points="385.5,256.7734,395.5,260.7734,385.5,264.7734,389.5,260.7734" style="stroke:#181818;stroke-width:1.0;"/><line style="stroke:#181818;stroke-width:1.0;" x1="125.5" x2="391.5" y1="260.7734" y2="260.7734"/><text fill="#000000" font-family="sans-serif" font-size="13" lengthAdjust="spacing" textLength="106" x="132.5" y="255.917">Acknowledge data</text><polygon fill="#181818" points="136.5,294.125,126.5,298.125,136.5,302.125,132.5,298.125" style="stroke:#181818;stroke-width:1.0;"/><line style="stroke:#181818;stroke-width:1.0;stroke-dasharray:2.0,2.0;" x1="130.5" x2="396.5" y1="298.125" y2="298.125"/><text fill="#000000" font-family="sans-serif" font-size="13" lengthAdjust="spacing" textLength="65" x="142.5" y="293.2686">Disconnect</text><line style="stroke:#181818;stroke-width:1.0;" x1="125.5" x2="167.5" y1="328.4766" y2="328.4766"/><line style="stroke:#181818;stroke-width:1.0;" x1="167.5" x2="167.5" y1="328.4766" y2="341.4766"/><line style="stroke:#181818;stroke-width:1.0;" x1="126.5" x2="167.5" y1="341.4766" y2="341.4766"/><polygon fill="#181818" points="136.5,337.4766,126.5,341.4766,136.5,345.4766,132.5,341.4766" style="stroke:#181818;stroke-width:1.0;"/><text fill="#000000" font-family="sans-serif" font-size="13" lengthAdjust="spacing" textLength="68" x="132.5" y="323.6201">print results</text><!--SRC=[TP0nQyCm48Lt_OeZUvPsor0mjWiPIeLjCXMCObrJ4VTEI7AJdr_9Lc8AwNRellUUtXtv2cttzlma0AnomGp6AWgmCHBT9tIbX1RT3phelXmglG7byuj0qd3ag_X7Luu6ASo2PHHYPBPGCWL34qyUsA9JmJ35T00r1jZJmD-6JZ0m4GxttU80s-rBJjybdqHyKDeNMZlqVWU5bFrUrirhtzRDeMxweggQXP7imWD0lZVTd95-Dmzht9hMfhQfbbP1PIfV9b8B7ys7C_5bH7t25KpAk_U38fNnkQtuwte3h3DH4ljDO_0tIv7k_mi0]--></g></svg>