<?xml version="1.0" encoding="utf-8" standalone="no"?>
<!DOCTYPE svg PUBLIC "-//W3C//DTD SVG 1.1//EN"
  "http://www.w3.org/Graphics/SVG/1.1/DTD/svg11.dtd">
<svg xmlns:xlink="http://www.w3.org/1999/xlink" width="1085.04pt" height="510.48pt" viewBox="0 0 1085.04 510.48" xmlns="http://www.w3.org/2000/svg" version="1.1">
 <metadata>
  <rdf:RDF xmlns:dc="http://purl.org/dc/elements/1.1/" xmlns:cc="http://creativecommons.org/ns#" xmlns:rdf="http://www.w3.org/1999/02/22-rdf-syntax-ns#">
   <cc:Work>
    <dc:type rdf:resource="http://purl.org/dc/dcmitype/StillImage"/>
    <dc:date>2023-05-26T17:33:10.746054</dc:date>
    <dc:format>image/svg+xml</dc:format>
    <dc:creator>
     <cc:Agent>
      <dc:title>Matplotlib v3.7.1, https://matplotlib.org/</dc:title>
     </cc:Agent>
    </dc:creator>
   </cc:Work>
  </rdf:RDF>
 </metadata>
 <defs>
  <style type="text/css">*{stroke-linejoin: round; stroke-linecap: butt}</style>
 </defs>
 <g id="figure_1">
  <g id="patch_1">
   <path d="M 0 510.48 
L 1085.04 510.48 
L 1085.04 0 
L 0 0 
z
" style="fill: #ffffff"/>
  </g>
  <g id="axes_1">
   <g id="patch_2">
    <path d="M 135.63 454.3272 
L 756.944571 454.3272 
L 756.944571 61.2576 
L 135.63 61.2576 
z
" style="fill: #ffffff"/>
   </g>
   <g id="matplotlib.axis_1"/>
   <g id="matplotlib.axis_2">
    <g id="ytick_1">
     <g id="line2d_1">
      <defs>
       <path id="m8fbf4ab342" d="M 0 0 
L -3.5 0 
" style="stroke: #000000; stroke-width: 0.8"/>
      </defs>
      <g>
       <use xlink:href="#m8fbf4ab342" x="135.63" y="454.3272" style="stroke: #000000; stroke-width: 0.8"/>
      </g>
     </g>
     <g id="text_1">
      <!-- 0 -->
      <g transform="translate(122.2675 458.126419) scale(0.1 -0.1)">
       <defs>
        <path id="DejaVuSans-30" d="M 2034 4250 
Q 1547 4250 1301 3770 
Q 1056 3291 1056 2328 
Q 1056 1369 1301 889 
Q 1547 409 2034 409 
Q 2525 409 2770 889 
Q 3016 1369 3016 2328 
Q 3016 3291 2770 3770 
Q 2525 4250 2034 4250 
z
M 2034 4750 
Q 2819 4750 3233 4129 
Q 3647 3509 3647 2328 
Q 3647 1150 3233 529 
Q 2819 -91 2034 -91 
Q 1250 -91 836 529 
Q 422 1150 422 2328 
Q 422 3509 836 4129 
Q 1250 4750 2034 4750 
z
" transform="scale(0.015625)"/>
       </defs>
       <use xlink:href="#DejaVuSans-30"/>
      </g>
     </g>
    </g>
    <g id="ytick_2">
     <g id="line2d_2">
      <g>
       <use xlink:href="#m8fbf4ab342" x="135.63" y="368.989721" style="stroke: #000000; stroke-width: 0.8"/>
      </g>
     </g>
     <g id="text_2">
      <!-- $\frac{VDDA}{4}$ -->
      <g transform="translate(106.93 373.739721) scale(0.1 -0.1)">
       <defs>
        <path id="DejaVuSans-Oblique-56" d="M 1319 0 
L 500 4666 
L 1119 4666 
L 1797 653 
L 4063 4666 
L 4750 4666 
L 2053 0 
L 1319 0 
z
" transform="scale(0.015625)"/>
        <path id="DejaVuSans-Oblique-44" d="M 1081 4666 
L 2438 4666 
Q 3519 4666 4070 4208 
Q 4622 3750 4622 2847 
Q 4622 2250 4412 1698 
Q 4203 1147 3834 769 
Q 3463 381 2891 190 
Q 2319 0 1538 0 
L 172 0 
L 1081 4666 
z
M 1613 4147 
L 909 519 
L 1734 519 
Q 2794 519 3375 1128 
Q 3956 1738 3956 2847 
Q 3956 3519 3581 3833 
Q 3206 4147 2406 4147 
L 1613 4147 
z
" transform="scale(0.015625)"/>
        <path id="DejaVuSans-Oblique-41" d="M 2356 4666 
L 3072 4666 
L 3938 0 
L 3278 0 
L 3084 1197 
L 984 1197 
L 325 0 
L -341 0 
L 2356 4666 
z
M 2584 4044 
L 1275 1722 
L 2988 1722 
L 2584 4044 
z
" transform="scale(0.015625)"/>
        <path id="DejaVuSans-34" d="M 2419 4116 
L 825 1625 
L 2419 1625 
L 2419 4116 
z
M 2253 4666 
L 3047 4666 
L 3047 1625 
L 3713 1625 
L 3713 1100 
L 3047 1100 
L 3047 0 
L 2419 0 
L 2419 1100 
L 313 1100 
L 313 1709 
L 2253 4666 
z
" transform="scale(0.015625)"/>
       </defs>
       <use xlink:href="#DejaVuSans-Oblique-56" transform="translate(0 43.965625) scale(0.7)"/>
       <use xlink:href="#DejaVuSans-Oblique-44" transform="translate(47.885742 43.965625) scale(0.7)"/>
       <use xlink:href="#DejaVuSans-Oblique-44" transform="translate(101.787109 43.965625) scale(0.7)"/>
       <use xlink:href="#DejaVuSans-Oblique-41" transform="translate(155.688477 43.965625) scale(0.7)"/>
       <use xlink:href="#DejaVuSans-34" transform="translate(80 -38.31875) scale(0.7)"/>
       <path d="M 0 18.965625 
L 0 25.215625 
L 203.574219 25.215625 
L 203.574219 18.965625 
L 0 18.965625 
z
"/>
      </g>
     </g>
    </g>
    <g id="ytick_3">
     <g id="line2d_3">
      <g>
       <use xlink:href="#m8fbf4ab342" x="135.63" y="283.652242" style="stroke: #000000; stroke-width: 0.8"/>
      </g>
     </g>
     <g id="text_3">
      <!-- $\frac{VDDA}{2}$ -->
      <g transform="translate(106.93 288.402242) scale(0.1 -0.1)">
       <defs>
        <path id="DejaVuSans-32" d="M 1228 531 
L 3431 531 
L 3431 0 
L 469 0 
L 469 531 
Q 828 903 1448 1529 
Q 2069 2156 2228 2338 
Q 2531 2678 2651 2914 
Q 2772 3150 2772 3378 
Q 2772 3750 2511 3984 
Q 2250 4219 1831 4219 
Q 1534 4219 1204 4116 
Q 875 4013 500 3803 
L 500 4441 
Q 881 4594 1212 4672 
Q 1544 4750 1819 4750 
Q 2544 4750 2975 4387 
Q 3406 4025 3406 3419 
Q 3406 3131 3298 2873 
Q 3191 2616 2906 2266 
Q 2828 2175 2409 1742 
Q 1991 1309 1228 531 
z
" transform="scale(0.015625)"/>
       </defs>
       <use xlink:href="#DejaVuSans-Oblique-56" transform="translate(0 43.965625) scale(0.7)"/>
       <use xlink:href="#DejaVuSans-Oblique-44" transform="translate(47.885742 43.965625) scale(0.7)"/>
       <use xlink:href="#DejaVuSans-Oblique-44" transform="translate(101.787109 43.965625) scale(0.7)"/>
       <use xlink:href="#DejaVuSans-Oblique-41" transform="translate(155.688477 43.965625) scale(0.7)"/>
       <use xlink:href="#DejaVuSans-32" transform="translate(80 -39.2375) scale(0.7)"/>
       <path d="M 0 18.965625 
L 0 25.215625 
L 203.574219 25.215625 
L 203.574219 18.965625 
L 0 18.965625 
z
"/>
      </g>
     </g>
    </g>
    <g id="ytick_4">
     <g id="line2d_4">
      <g>
       <use xlink:href="#m8fbf4ab342" x="135.63" y="198.314763" style="stroke: #000000; stroke-width: 0.8"/>
      </g>
     </g>
     <g id="text_4">
      <!-- $\frac{ {3}\times{VDDA}}{4}$ -->
      <g transform="translate(93.93 203.164763) scale(0.1 -0.1)">
       <defs>
        <path id="DejaVuSans-33" d="M 2597 2516 
Q 3050 2419 3304 2112 
Q 3559 1806 3559 1356 
Q 3559 666 3084 287 
Q 2609 -91 1734 -91 
Q 1441 -91 1130 -33 
Q 819 25 488 141 
L 488 750 
Q 750 597 1062 519 
Q 1375 441 1716 441 
Q 2309 441 2620 675 
Q 2931 909 2931 1356 
Q 2931 1769 2642 2001 
Q 2353 2234 1838 2234 
L 1294 2234 
L 1294 2753 
L 1863 2753 
Q 2328 2753 2575 2939 
Q 2822 3125 2822 3475 
Q 2822 3834 2567 4026 
Q 2313 4219 1838 4219 
Q 1578 4219 1281 4162 
Q 984 4106 628 3988 
L 628 4550 
Q 988 4650 1302 4700 
Q 1616 4750 1894 4750 
Q 2613 4750 3031 4423 
Q 3450 4097 3450 3541 
Q 3450 3153 3228 2886 
Q 3006 2619 2597 2516 
z
" transform="scale(0.015625)"/>
        <path id="DejaVuSans-d7" d="M 4488 3438 
L 3059 2003 
L 4488 575 
L 4116 197 
L 2681 1631 
L 1247 197 
L 878 575 
L 2303 2003 
L 878 3438 
L 1247 3816 
L 2681 2381 
L 4116 3816 
L 4488 3438 
z
" transform="scale(0.015625)"/>
       </defs>
       <use xlink:href="#DejaVuSans-33" transform="translate(0 45.046875) scale(0.7)"/>
       <use xlink:href="#DejaVuSans-d7" transform="translate(58.173828 45.046875) scale(0.7)"/>
       <use xlink:href="#DejaVuSans-Oblique-56" transform="translate(130.463867 45.046875) scale(0.7)"/>
       <use xlink:href="#DejaVuSans-Oblique-44" transform="translate(178.349609 45.046875) scale(0.7)"/>
       <use xlink:href="#DejaVuSans-Oblique-44" transform="translate(232.250977 45.046875) scale(0.7)"/>
       <use xlink:href="#DejaVuSans-Oblique-41" transform="translate(286.152344 45.046875) scale(0.7)"/>
       <use xlink:href="#DejaVuSans-34" transform="translate(145 -38.232812) scale(0.7)"/>
       <path d="M 0 19.051563 
L 0 25.301563 
L 334.038086 25.301563 
L 334.038086 19.051563 
L 0 19.051563 
z
"/>
      </g>
     </g>
    </g>
    <g id="ytick_5">
     <g id="line2d_5">
      <g>
       <use xlink:href="#m8fbf4ab342" x="135.63" y="112.977284" style="stroke: #000000; stroke-width: 0.8"/>
      </g>
     </g>
     <g id="text_5">
      <!-- $VDDA$ -->
      <g transform="translate(99.53 116.776503) scale(0.1 -0.1)">
       <use xlink:href="#DejaVuSans-Oblique-56" transform="translate(0 0.09375)"/>
       <use xlink:href="#DejaVuSans-Oblique-44" transform="translate(68.408203 0.09375)"/>
       <use xlink:href="#DejaVuSans-Oblique-44" transform="translate(145.410156 0.09375)"/>
       <use xlink:href="#DejaVuSans-Oblique-41" transform="translate(222.412109 0.09375)"/>
      </g>
     </g>
    </g>
   </g>
   <g id="line2d_6">
    <path d="M 135.63 283.652242 
L 139.101031 283.652242 
L 139.101031 274.756456 
L 142.572062 274.756456 
L 142.572062 265.860671 
L 146.043093 265.860671 
L 146.043093 257.275203 
L 149.514125 257.275203 
L 149.514125 248.896614 
L 152.985156 248.896614 
L 152.985156 241.035222 
L 156.456187 241.035222 
L 156.456187 233.484148 
L 159.927218 233.484148 
L 159.927218 226.553711 
L 163.398249 226.553711 
L 163.398249 220.243909 
L 166.86928 220.243909 
L 166.86928 214.658183 
L 170.340311 214.658183 
L 170.340311 209.796533 
L 173.811342 209.796533 
L 173.811342 205.658958 
L 177.282374 205.658958 
L 177.282374 202.452338 
L 180.753405 202.452338 
L 180.753405 200.176672 
L 184.224436 200.176672 
L 184.224436 198.83196 
L 187.695467 198.83196 
L 187.695467 198.314763 
L 191.166498 198.314763 
L 191.166498 198.83196 
L 194.637529 198.83196 
L 194.637529 200.176672 
L 198.10856 200.176672 
L 198.10856 202.452338 
L 201.579591 202.452338 
L 201.579591 205.658958 
L 205.050623 205.658958 
L 205.050623 209.796533 
L 208.521654 209.796533 
L 208.521654 214.658183 
L 211.992685 214.658183 
L 211.992685 220.243909 
L 215.463716 220.243909 
L 215.463716 226.553711 
L 218.934747 226.553711 
L 218.934747 233.484148 
L 222.405778 233.484148 
L 222.405778 241.035222 
L 225.876809 241.035222 
L 225.876809 248.896614 
L 229.34784 248.896614 
L 229.34784 257.275203 
L 232.818872 257.275203 
L 232.818872 265.860671 
L 236.289903 265.860671 
L 236.289903 274.756456 
L 239.760934 274.756456 
L 239.760934 283.652242 
L 243.231965 283.652242 
L 243.231965 292.548028 
L 246.702996 292.548028 
L 246.702996 301.443813 
L 250.174027 301.443813 
L 250.174027 310.029281 
L 253.645058 310.029281 
L 253.645058 318.40787 
L 257.116089 318.40787 
L 257.116089 326.269262 
L 260.587121 326.269262 
L 260.587121 333.820336 
L 264.058152 333.820336 
L 264.058152 340.750773 
L 267.529183 340.750773 
L 267.529183 347.060575 
L 271.000214 347.060575 
L 271.000214 352.646301 
L 274.471245 352.646301 
L 274.471245 357.507951 
L 277.942276 357.507951 
L 277.942276 361.645526 
L 281.413307 361.645526 
L 281.413307 364.852146 
L 284.884338 364.852146 
L 284.884338 367.127812 
L 288.35537 367.127812 
L 288.35537 368.472524 
L 291.826401 368.472524 
L 291.826401 368.989721 
L 295.297432 368.989721 
L 295.297432 368.472524 
L 298.768463 368.472524 
L 298.768463 367.127812 
L 302.239494 367.127812 
L 302.239494 364.852146 
L 305.710525 364.852146 
L 305.710525 361.645526 
L 309.181556 361.645526 
L 309.181556 357.507951 
L 312.652587 357.507951 
L 312.652587 352.646301 
L 316.123619 352.646301 
L 316.123619 347.060575 
L 319.59465 347.060575 
L 319.59465 340.750773 
L 323.065681 340.750773 
L 323.065681 333.820336 
L 326.536712 333.820336 
L 326.536712 326.269262 
L 330.007743 326.269262 
L 330.007743 318.40787 
L 333.478774 318.40787 
L 333.478774 310.029281 
L 336.949805 310.029281 
L 336.949805 301.443813 
L 340.420836 301.443813 
L 340.420836 292.548028 
L 343.891868 292.548028 
L 343.891868 283.652242 
L 347.362899 283.652242 
L 347.362899 274.756456 
L 350.83393 274.756456 
L 350.83393 265.860671 
L 354.304961 265.860671 
L 354.304961 257.275203 
L 357.775992 257.275203 
L 357.775992 248.896614 
L 361.247023 248.896614 
L 361.247023 241.035222 
L 364.718054 241.035222 
L 364.718054 233.484148 
L 368.189085 233.484148 
L 368.189085 226.553711 
L 371.660117 226.553711 
L 371.660117 220.243909 
L 375.131148 220.243909 
L 375.131148 214.658183 
L 378.602179 214.658183 
L 378.602179 209.796533 
L 382.07321 209.796533 
L 382.07321 205.658958 
L 385.544241 205.658958 
L 385.544241 202.452338 
L 389.015272 202.452338 
L 389.015272 200.176672 
L 392.486303 200.176672 
L 392.486303 198.83196 
L 395.957334 198.83196 
L 395.957334 198.314763 
L 399.428366 198.314763 
L 399.428366 198.83196 
L 402.899397 198.83196 
L 402.899397 200.176672 
L 406.370428 200.176672 
L 406.370428 202.452338 
L 409.841459 202.452338 
L 409.841459 205.658958 
L 413.31249 205.658958 
L 413.31249 209.796533 
L 416.783521 209.796533 
L 416.783521 214.658183 
L 420.254552 214.658183 
L 420.254552 220.243909 
L 423.725583 220.243909 
L 423.725583 226.553711 
L 427.196615 226.553711 
L 427.196615 233.484148 
L 430.667646 233.484148 
L 430.667646 241.035222 
L 434.138677 241.035222 
L 434.138677 248.896614 
L 437.609708 248.896614 
L 437.609708 257.275203 
L 441.080739 257.275203 
L 441.080739 265.860671 
L 444.55177 265.860671 
L 444.55177 274.756456 
L 448.022801 274.756456 
L 448.022801 283.652242 
L 451.493832 283.652242 
L 451.493832 292.548028 
L 454.964864 292.548028 
L 454.964864 301.443813 
L 458.435895 301.443813 
L 458.435895 310.029281 
L 461.906926 310.029281 
L 461.906926 318.40787 
L 465.377957 318.40787 
L 465.377957 326.372701 
L 468.848988 326.372701 
L 468.848988 333.820336 
L 472.320019 333.820336 
L 472.320019 340.750773 
L 475.79105 340.750773 
L 475.79105 347.060575 
L 479.262081 347.060575 
L 479.262081 352.646301 
L 482.733113 352.646301 
L 482.733113 357.507951 
L 486.204144 357.507951 
L 486.204144 361.645526 
L 489.675175 361.645526 
L 489.675175 364.852146 
L 493.146206 364.852146 
L 493.146206 367.127812 
L 496.617237 367.127812 
L 496.617237 368.472524 
L 500.088268 368.472524 
L 500.088268 368.989721 
L 503.559299 368.989721 
L 503.559299 368.472524 
L 507.03033 368.472524 
L 507.03033 367.127812 
L 510.501362 367.127812 
L 510.501362 364.852146 
L 513.972393 364.852146 
L 513.972393 361.645526 
L 517.443424 361.645526 
L 517.443424 357.507951 
L 520.914455 357.507951 
L 520.914455 352.646301 
L 524.385486 352.646301 
L 524.385486 347.060575 
L 527.856517 347.060575 
L 527.856517 340.750773 
L 531.327548 340.750773 
L 531.327548 333.820336 
L 534.798579 333.820336 
L 534.798579 326.269262 
L 538.269611 326.269262 
L 538.269611 318.40787 
L 541.740642 318.40787 
L 541.740642 310.029281 
L 545.211673 310.029281 
L 545.211673 301.443813 
L 548.682704 301.443813 
L 548.682704 292.548028 
L 552.153735 292.548028 
L 552.153735 283.652242 
L 555.624766 283.652242 
L 555.624766 274.756456 
L 559.095797 274.756456 
L 559.095797 265.860671 
L 562.566828 265.860671 
L 562.566828 257.275203 
L 566.03786 257.275203 
L 566.03786 248.896614 
L 569.508891 248.896614 
L 569.508891 241.035222 
L 572.979922 241.035222 
L 572.979922 233.484148 
L 576.450953 233.484148 
L 576.450953 226.553711 
L 579.921984 226.553711 
L 579.921984 220.243909 
L 583.393015 220.243909 
L 583.393015 214.658183 
L 586.864046 214.658183 
L 586.864046 209.796533 
L 590.335077 209.796533 
L 590.335077 205.658958 
L 593.806109 205.658958 
L 593.806109 202.452338 
L 597.27714 202.452338 
L 597.27714 200.176672 
L 600.748171 200.176672 
L 600.748171 198.83196 
L 604.219202 198.83196 
L 604.219202 198.314763 
L 607.690233 198.314763 
L 607.690233 198.83196 
L 611.161264 198.83196 
L 611.161264 200.176672 
L 614.632295 200.176672 
L 614.632295 202.452338 
L 618.103326 202.452338 
L 618.103326 205.658958 
L 621.574358 205.658958 
L 621.574358 209.796533 
L 625.045389 209.796533 
L 625.045389 214.658183 
L 628.51642 214.658183 
L 628.51642 220.243909 
L 631.987451 220.243909 
L 631.987451 226.553711 
L 635.458482 226.553711 
L 635.458482 233.484148 
L 638.929513 233.484148 
L 638.929513 240.931783 
L 642.400544 240.931783 
L 642.400544 248.896614 
L 645.871575 248.896614 
L 645.871575 257.275203 
L 649.342607 257.275203 
L 649.342607 265.860671 
L 652.813638 265.860671 
L 652.813638 274.756456 
L 656.284669 274.756456 
L 656.284669 283.652242 
L 659.7557 283.652242 
L 659.7557 292.548028 
L 663.226731 292.548028 
L 663.226731 301.443813 
L 666.697762 301.443813 
L 666.697762 310.029281 
L 670.168793 310.029281 
L 670.168793 318.40787 
L 673.639824 318.40787 
L 673.639824 326.269262 
L 677.110856 326.269262 
L 677.110856 333.820336 
L 680.581887 333.820336 
L 680.581887 340.750773 
L 684.052918 340.750773 
L 684.052918 347.060575 
L 687.523949 347.060575 
L 687.523949 352.646301 
L 690.99498 352.646301 
L 690.99498 357.507951 
L 694.466011 357.507951 
L 694.466011 361.645526 
L 697.937042 361.645526 
L 697.937042 364.852146 
L 701.408073 364.852146 
L 701.408073 367.127812 
L 704.879105 367.127812 
L 704.879105 368.472524 
L 708.350136 368.472524 
L 708.350136 368.989721 
L 711.821167 368.989721 
L 711.821167 368.472524 
L 715.292198 368.472524 
L 715.292198 367.127812 
L 718.763229 367.127812 
L 718.763229 364.852146 
L 722.23426 364.852146 
L 722.23426 361.645526 
L 725.705291 361.645526 
L 725.705291 357.507951 
L 729.176322 357.507951 
L 729.176322 352.646301 
L 732.647354 352.646301 
L 732.647354 347.060575 
L 736.118385 347.060575 
L 736.118385 340.750773 
L 739.589416 340.750773 
L 739.589416 333.820336 
L 743.060447 333.820336 
L 743.060447 326.372701 
L 746.531478 326.372701 
L 746.531478 318.40787 
L 750.002509 318.40787 
L 750.002509 310.029281 
L 753.47354 310.029281 
L 753.47354 301.443813 
L 756.944571 301.443813 
L 756.944571 292.548028 
L 756.944571 292.548028 
" clip-path="url(#pf271f906da)" style="fill: none; stroke: #1f77b4; stroke-width: 1.5; stroke-linecap: square"/>
   </g>
   <g id="line2d_7">
    <path d="M 135.63 368.989721 
L 756.944571 368.989721 
" clip-path="url(#pf271f906da)" style="fill: none; stroke-dasharray: 5.55,2.4; stroke-dashoffset: 0; stroke: #008000; stroke-width: 1.5"/>
   </g>
   <g id="line2d_8">
    <path d="M 135.63 112.977284 
L 756.944571 112.977284 
" clip-path="url(#pf271f906da)" style="fill: none; stroke: #ff0000; stroke-width: 1.5; stroke-linecap: square"/>
   </g>
   <g id="line2d_9">
    <path d="M 135.63 283.652242 
L 756.944571 283.652242 
" clip-path="url(#pf271f906da)" style="fill: none; stroke-dasharray: 1.5,2.475; stroke-dashoffset: 0; stroke: #000000; stroke-width: 1.5"/>
   </g>
   <g id="line2d_10">
    <path d="M 343.891868 389.677595 
L 343.891868 198.314763 
" clip-path="url(#pf271f906da)" style="fill: none; stroke: #000000; stroke-width: 1.5; stroke-linecap: square"/>
   </g>
   <g id="line2d_11">
    <path d="M 552.153735 389.677595 
L 552.153735 198.314763 
" clip-path="url(#pf271f906da)" style="fill: none; stroke: #000000; stroke-width: 1.5; stroke-linecap: square"/>
   </g>
   <g id="patch_3">
    <path d="M 135.63 454.3272 
L 135.63 61.2576 
" style="fill: none; stroke: #000000; stroke-width: 0.8; stroke-linejoin: miter; stroke-linecap: square"/>
   </g>
   <g id="patch_4">
    <path d="M 756.944571 454.3272 
L 756.944571 61.2576 
" style="fill: none; stroke: #000000; stroke-width: 0.8; stroke-linejoin: miter; stroke-linecap: square"/>
   </g>
   <g id="patch_5">
    <path d="M 135.63 454.3272 
L 756.944571 454.3272 
" style="fill: none; stroke: #000000; stroke-width: 0.8; stroke-linejoin: miter; stroke-linecap: square"/>
   </g>
   <g id="patch_6">
    <path d="M 135.63 61.2576 
L 756.944571 61.2576 
" style="fill: none; stroke: #000000; stroke-width: 0.8; stroke-linejoin: miter; stroke-linecap: square"/>
   </g>
   <g id="patch_7">
    <path d="M 549.03685 379.333658 
Q 448.022651 379.333658 347.008452 379.333658 
" style="fill: none; stroke: #000000; stroke-linecap: round"/>
    <path d="M 545.03685 377.333658 
L 549.03685 379.333658 
L 545.03685 381.333658 
" style="fill: none; stroke: #000000; stroke-linecap: round"/>
    <path d="M 351.008452 381.333658 
L 347.008452 379.333658 
L 351.008452 377.333658 
" style="fill: none; stroke: #000000; stroke-linecap: round"/>
   </g>
   <g id="text_6">
    <!-- $f_{signal} = 1kHz$ -->
    <g transform="translate(417.172801 391.927595) scale(0.1 -0.1)">
     <defs>
      <path id="DejaVuSans-Oblique-66" d="M 3059 4863 
L 2969 4384 
L 2419 4384 
Q 2106 4384 1964 4261 
Q 1822 4138 1753 3809 
L 1691 3500 
L 2638 3500 
L 2553 3053 
L 1606 3053 
L 1013 0 
L 434 0 
L 1031 3053 
L 481 3053 
L 563 3500 
L 1113 3500 
L 1159 3744 
Q 1278 4363 1576 4613 
Q 1875 4863 2516 4863 
L 3059 4863 
z
" transform="scale(0.015625)"/>
      <path id="DejaVuSans-Oblique-73" d="M 3200 3397 
L 3091 2853 
Q 2863 2978 2609 3040 
Q 2356 3103 2088 3103 
Q 1634 3103 1373 2948 
Q 1113 2794 1113 2528 
Q 1113 2219 1719 2053 
Q 1766 2041 1788 2034 
L 1972 1978 
Q 2547 1819 2739 1644 
Q 2931 1469 2931 1166 
Q 2931 609 2489 259 
Q 2047 -91 1331 -91 
Q 1053 -91 747 -37 
Q 441 16 72 128 
L 184 722 
Q 500 559 806 475 
Q 1113 391 1394 391 
Q 1816 391 2080 572 
Q 2344 753 2344 1031 
Q 2344 1331 1650 1516 
L 1591 1531 
L 1394 1581 
Q 956 1697 753 1886 
Q 550 2075 550 2369 
Q 550 2928 970 3256 
Q 1391 3584 2113 3584 
Q 2397 3584 2667 3537 
Q 2938 3491 3200 3397 
z
" transform="scale(0.015625)"/>
      <path id="DejaVuSans-Oblique-69" d="M 1172 4863 
L 1747 4863 
L 1606 4134 
L 1031 4134 
L 1172 4863 
z
M 909 3500 
L 1484 3500 
L 800 0 
L 225 0 
L 909 3500 
z
" transform="scale(0.015625)"/>
      <path id="DejaVuSans-Oblique-67" d="M 3816 3500 
L 3219 434 
Q 3047 -456 2561 -893 
Q 2075 -1331 1253 -1331 
Q 950 -1331 690 -1286 
Q 431 -1241 206 -1147 
L 313 -588 
Q 525 -725 762 -790 
Q 1000 -856 1269 -856 
Q 1816 -856 2167 -557 
Q 2519 -259 2631 300 
L 2681 563 
Q 2441 288 2122 144 
Q 1803 0 1434 0 
Q 903 0 598 351 
Q 294 703 294 1319 
Q 294 1803 478 2267 
Q 663 2731 997 3091 
Q 1219 3328 1514 3456 
Q 1809 3584 2131 3584 
Q 2484 3584 2746 3420 
Q 3009 3256 3138 2956 
L 3238 3500 
L 3816 3500 
z
M 2950 2216 
Q 2950 2641 2750 2872 
Q 2550 3103 2181 3103 
Q 1953 3103 1747 3012 
Q 1541 2922 1394 2759 
Q 1156 2491 1023 2127 
Q 891 1763 891 1375 
Q 891 944 1092 712 
Q 1294 481 1672 481 
Q 2219 481 2584 976 
Q 2950 1472 2950 2216 
z
" transform="scale(0.015625)"/>
      <path id="DejaVuSans-Oblique-6e" d="M 3566 2113 
L 3156 0 
L 2578 0 
L 2988 2091 
Q 3016 2238 3031 2350 
Q 3047 2463 3047 2528 
Q 3047 2791 2881 2937 
Q 2716 3084 2419 3084 
Q 1956 3084 1622 2776 
Q 1288 2469 1184 1941 
L 800 0 
L 225 0 
L 903 3500 
L 1478 3500 
L 1363 2950 
Q 1603 3253 1940 3418 
Q 2278 3584 2650 3584 
Q 3113 3584 3367 3334 
Q 3622 3084 3622 2631 
Q 3622 2519 3608 2391 
Q 3594 2263 3566 2113 
z
" transform="scale(0.015625)"/>
      <path id="DejaVuSans-Oblique-61" d="M 3438 1997 
L 3047 0 
L 2472 0 
L 2578 531 
Q 2325 219 2001 64 
Q 1678 -91 1281 -91 
Q 834 -91 548 182 
Q 263 456 263 884 
Q 263 1497 752 1853 
Q 1241 2209 2100 2209 
L 2900 2209 
L 2931 2363 
Q 2938 2388 2941 2417 
Q 2944 2447 2944 2509 
Q 2944 2788 2717 2942 
Q 2491 3097 2081 3097 
Q 1800 3097 1504 3025 
Q 1209 2953 897 2809 
L 997 3341 
Q 1322 3463 1633 3523 
Q 1944 3584 2234 3584 
Q 2853 3584 3176 3315 
Q 3500 3047 3500 2534 
Q 3500 2431 3484 2292 
Q 3469 2153 3438 1997 
z
M 2816 1759 
L 2241 1759 
Q 1534 1759 1195 1570 
Q 856 1381 856 984 
Q 856 709 1029 553 
Q 1203 397 1509 397 
Q 1978 397 2328 733 
Q 2678 1069 2791 1631 
L 2816 1759 
z
" transform="scale(0.015625)"/>
      <path id="DejaVuSans-Oblique-6c" d="M 1172 4863 
L 1747 4863 
L 800 0 
L 225 0 
L 1172 4863 
z
" transform="scale(0.015625)"/>
      <path id="DejaVuSans-3d" d="M 678 2906 
L 4684 2906 
L 4684 2381 
L 678 2381 
L 678 2906 
z
M 678 1631 
L 4684 1631 
L 4684 1100 
L 678 1100 
L 678 1631 
z
" transform="scale(0.015625)"/>
      <path id="DejaVuSans-31" d="M 794 531 
L 1825 531 
L 1825 4091 
L 703 3866 
L 703 4441 
L 1819 4666 
L 2450 4666 
L 2450 531 
L 3481 531 
L 3481 0 
L 794 0 
L 794 531 
z
" transform="scale(0.015625)"/>
      <path id="DejaVuSans-Oblique-6b" d="M 1172 4863 
L 1747 4863 
L 1197 2028 
L 3169 3500 
L 3916 3500 
L 1716 1825 
L 3322 0 
L 2625 0 
L 1131 1709 
L 800 0 
L 225 0 
L 1172 4863 
z
" transform="scale(0.015625)"/>
      <path id="DejaVuSans-Oblique-48" d="M 1081 4666 
L 1716 4666 
L 1344 2753 
L 3634 2753 
L 4006 4666 
L 4641 4666 
L 3731 0 
L 3097 0 
L 3531 2222 
L 1241 2222 
L 806 0 
L 172 0 
L 1081 4666 
z
" transform="scale(0.015625)"/>
      <path id="DejaVuSans-Oblique-7a" d="M 744 3500 
L 3475 3500 
L 3372 2975 
L 738 459 
L 2913 459 
L 2822 0 
L -19 0 
L 84 525 
L 2719 3041 
L 653 3041 
L 744 3500 
z
" transform="scale(0.015625)"/>
     </defs>
     <use xlink:href="#DejaVuSans-Oblique-66" transform="translate(0 0.015625)"/>
     <use xlink:href="#DejaVuSans-Oblique-73" transform="translate(35.205078 -16.390625) scale(0.7)"/>
     <use xlink:href="#DejaVuSans-Oblique-69" transform="translate(71.674805 -16.390625) scale(0.7)"/>
     <use xlink:href="#DejaVuSans-Oblique-67" transform="translate(91.123047 -16.390625) scale(0.7)"/>
     <use xlink:href="#DejaVuSans-Oblique-6e" transform="translate(135.556641 -16.390625) scale(0.7)"/>
     <use xlink:href="#DejaVuSans-Oblique-61" transform="translate(179.921875 -16.390625) scale(0.7)"/>
     <use xlink:href="#DejaVuSans-Oblique-6c" transform="translate(222.817383 -16.390625) scale(0.7)"/>
     <use xlink:href="#DejaVuSans-3d" transform="translate(264.482422 0.015625)"/>
     <use xlink:href="#DejaVuSans-31" transform="translate(367.753906 0.015625)"/>
     <use xlink:href="#DejaVuSans-Oblique-6b" transform="translate(431.376953 0.015625)"/>
     <use xlink:href="#DejaVuSans-Oblique-48" transform="translate(489.287109 0.015625)"/>
     <use xlink:href="#DejaVuSans-Oblique-7a" transform="translate(564.482422 0.015625)"/>
    </g>
   </g>
   <g id="patch_8">
    <path d="M 205.050623 451.211673 
Q 205.050623 411.660516 205.050623 372.109359 
" style="fill: none; stroke: #008000; stroke-linecap: round"/>
    <path d="M 207.050623 447.211673 
L 205.050623 451.211673 
L 203.050623 447.211673 
" style="fill: none; stroke: #008000; stroke-linecap: round"/>
    <path d="M 203.050623 376.109359 
L 205.050623 372.109359 
L 207.050623 376.109359 
" style="fill: none; stroke: #008000; stroke-linecap: round"/>
   </g>
   <g id="text_7">
    <!-- $offset$ -->
    <g style="fill: #008000" transform="translate(215.405865 414.417836) scale(0.1 -0.1)">
     <defs>
      <path id="DejaVuSans-Oblique-6f" d="M 1625 -91 
Q 1009 -91 651 289 
Q 294 669 294 1325 
Q 294 1706 417 2101 
Q 541 2497 738 2766 
Q 1047 3184 1428 3384 
Q 1809 3584 2291 3584 
Q 2888 3584 3255 3212 
Q 3622 2841 3622 2241 
Q 3622 1825 3500 1412 
Q 3378 1000 3181 728 
Q 2875 309 2494 109 
Q 2113 -91 1625 -91 
z
M 891 1344 
Q 891 869 1089 633 
Q 1288 397 1691 397 
Q 2269 397 2648 901 
Q 3028 1406 3028 2181 
Q 3028 2634 2825 2865 
Q 2622 3097 2228 3097 
Q 1903 3097 1650 2945 
Q 1397 2794 1197 2484 
Q 1050 2253 970 1956 
Q 891 1659 891 1344 
z
" transform="scale(0.015625)"/>
      <path id="DejaVuSans-Oblique-65" d="M 3078 2063 
Q 3088 2113 3092 2166 
Q 3097 2219 3097 2272 
Q 3097 2653 2873 2875 
Q 2650 3097 2266 3097 
Q 1838 3097 1509 2826 
Q 1181 2556 1013 2059 
L 3078 2063 
z
M 3578 1613 
L 903 1613 
Q 884 1494 878 1425 
Q 872 1356 872 1306 
Q 872 872 1139 634 
Q 1406 397 1894 397 
Q 2269 397 2603 481 
Q 2938 566 3225 728 
L 3116 159 
Q 2806 34 2476 -28 
Q 2147 -91 1806 -91 
Q 1078 -91 686 257 
Q 294 606 294 1247 
Q 294 1794 489 2264 
Q 684 2734 1063 3103 
Q 1306 3334 1642 3459 
Q 1978 3584 2356 3584 
Q 2950 3584 3301 3228 
Q 3653 2872 3653 2272 
Q 3653 2128 3634 1964 
Q 3616 1800 3578 1613 
z
" transform="scale(0.015625)"/>
      <path id="DejaVuSans-Oblique-74" d="M 2706 3500 
L 2619 3053 
L 1472 3053 
L 1100 1153 
Q 1081 1047 1072 975 
Q 1063 903 1063 863 
Q 1063 663 1183 572 
Q 1303 481 1569 481 
L 2150 481 
L 2053 0 
L 1503 0 
Q 991 0 739 200 
Q 488 400 488 806 
Q 488 878 497 964 
Q 506 1050 525 1153 
L 897 3053 
L 409 3053 
L 500 3500 
L 978 3500 
L 1172 4494 
L 1747 4494 
L 1556 3500 
L 2706 3500 
z
" transform="scale(0.015625)"/>
     </defs>
     <use xlink:href="#DejaVuSans-Oblique-6f" transform="translate(0 0.015625)"/>
     <use xlink:href="#DejaVuSans-Oblique-66" transform="translate(61.181641 0.015625)"/>
     <use xlink:href="#DejaVuSans-Oblique-66" transform="translate(96.386719 0.015625)"/>
     <use xlink:href="#DejaVuSans-Oblique-73" transform="translate(131.591797 0.015625)"/>
     <use xlink:href="#DejaVuSans-Oblique-65" transform="translate(183.691406 0.015625)"/>
     <use xlink:href="#DejaVuSans-Oblique-74" transform="translate(245.214844 0.015625)"/>
    </g>
   </g>
   <g id="patch_9">
    <path d="M 187.695467 201.43029 
Q 187.695467 283.651062 187.695467 365.871834 
" style="fill: none; stroke: #ff0000; stroke-linecap: round"/>
    <path d="M 185.695467 205.43029 
L 187.695467 201.43029 
L 189.695467 205.43029 
" style="fill: none; stroke: #ff0000; stroke-linecap: round"/>
    <path d="M 189.695467 361.871834 
L 187.695467 365.871834 
L 185.695467 361.871834 
" style="fill: none; stroke: #ff0000; stroke-linecap: round"/>
   </g>
   <g id="text_8">
    <!-- $amplitude$ -->
    <g style="fill: #ff0000" transform="translate(198.05071 329.070982) scale(0.1 -0.1)">
     <defs>
      <path id="DejaVuSans-Oblique-6d" d="M 5747 2113 
L 5338 0 
L 4763 0 
L 5166 2094 
Q 5191 2228 5203 2325 
Q 5216 2422 5216 2491 
Q 5216 2772 5059 2928 
Q 4903 3084 4622 3084 
Q 4203 3084 3875 2770 
Q 3547 2456 3450 1953 
L 3066 0 
L 2491 0 
L 2900 2094 
Q 2925 2209 2937 2307 
Q 2950 2406 2950 2484 
Q 2950 2769 2794 2926 
Q 2638 3084 2363 3084 
Q 1938 3084 1609 2770 
Q 1281 2456 1184 1953 
L 800 0 
L 225 0 
L 909 3500 
L 1484 3500 
L 1375 2956 
Q 1609 3263 1923 3423 
Q 2238 3584 2597 3584 
Q 2978 3584 3223 3384 
Q 3469 3184 3519 2828 
Q 3781 3197 4126 3390 
Q 4472 3584 4856 3584 
Q 5306 3584 5551 3325 
Q 5797 3066 5797 2591 
Q 5797 2488 5784 2364 
Q 5772 2241 5747 2113 
z
" transform="scale(0.015625)"/>
      <path id="DejaVuSans-Oblique-70" d="M 3175 2156 
Q 3175 2616 2975 2859 
Q 2775 3103 2400 3103 
Q 2144 3103 1911 2972 
Q 1678 2841 1497 2591 
Q 1319 2344 1212 1994 
Q 1106 1644 1106 1300 
Q 1106 863 1306 627 
Q 1506 391 1875 391 
Q 2147 391 2380 519 
Q 2613 647 2778 891 
Q 2956 1147 3065 1494 
Q 3175 1841 3175 2156 
z
M 1394 2969 
Q 1625 3272 1939 3428 
Q 2253 3584 2638 3584 
Q 3175 3584 3472 3232 
Q 3769 2881 3769 2247 
Q 3769 1728 3584 1258 
Q 3400 788 3053 416 
Q 2822 169 2531 39 
Q 2241 -91 1919 -91 
Q 1547 -91 1294 64 
Q 1041 219 916 525 
L 556 -1331 
L -19 -1331 
L 922 3500 
L 1497 3500 
L 1394 2969 
z
" transform="scale(0.015625)"/>
      <path id="DejaVuSans-Oblique-75" d="M 428 1388 
L 838 3500 
L 1416 3500 
L 1006 1409 
Q 975 1256 961 1147 
Q 947 1038 947 966 
Q 947 700 1109 554 
Q 1272 409 1569 409 
Q 2031 409 2368 721 
Q 2706 1034 2809 1563 
L 3194 3500 
L 3769 3500 
L 3091 0 
L 2516 0 
L 2631 550 
Q 2388 244 2052 76 
Q 1716 -91 1338 -91 
Q 878 -91 622 161 
Q 366 413 366 863 
Q 366 956 381 1097 
Q 397 1238 428 1388 
z
" transform="scale(0.015625)"/>
      <path id="DejaVuSans-Oblique-64" d="M 2675 525 
Q 2444 222 2128 65 
Q 1813 -91 1428 -91 
Q 903 -91 598 267 
Q 294 625 294 1247 
Q 294 1766 478 2236 
Q 663 2706 1013 3078 
Q 1244 3325 1534 3454 
Q 1825 3584 2144 3584 
Q 2481 3584 2739 3421 
Q 2997 3259 3138 2956 
L 3513 4863 
L 4091 4863 
L 3144 0 
L 2566 0 
L 2675 525 
z
M 891 1350 
Q 891 897 1095 644 
Q 1300 391 1663 391 
Q 1931 391 2161 520 
Q 2391 650 2566 903 
Q 2750 1166 2856 1509 
Q 2963 1853 2963 2188 
Q 2963 2622 2758 2865 
Q 2553 3109 2194 3109 
Q 1922 3109 1687 2981 
Q 1453 2853 1288 2613 
Q 1106 2353 998 2009 
Q 891 1666 891 1350 
z
" transform="scale(0.015625)"/>
     </defs>
     <use xlink:href="#DejaVuSans-Oblique-61" transform="translate(0 0.015625)"/>
     <use xlink:href="#DejaVuSans-Oblique-6d" transform="translate(61.279297 0.015625)"/>
     <use xlink:href="#DejaVuSans-Oblique-70" transform="translate(158.691406 0.015625)"/>
     <use xlink:href="#DejaVuSans-Oblique-6c" transform="translate(222.167969 0.015625)"/>
     <use xlink:href="#DejaVuSans-Oblique-69" transform="translate(249.951172 0.015625)"/>
     <use xlink:href="#DejaVuSans-Oblique-74" transform="translate(277.734375 0.015625)"/>
     <use xlink:href="#DejaVuSans-Oblique-75" transform="translate(316.943359 0.015625)"/>
     <use xlink:href="#DejaVuSans-Oblique-64" transform="translate(380.322266 0.015625)"/>
     <use xlink:href="#DejaVuSans-Oblique-65" transform="translate(443.798828 0.015625)"/>
    </g>
   </g>
   <g id="text_9">
    <!-- Expected output signal -->
    <g transform="translate(376.940411 55.2576) scale(0.12 -0.12)">
     <defs>
      <path id="DejaVuSans-45" d="M 628 4666 
L 3578 4666 
L 3578 4134 
L 1259 4134 
L 1259 2753 
L 3481 2753 
L 3481 2222 
L 1259 2222 
L 1259 531 
L 3634 531 
L 3634 0 
L 628 0 
L 628 4666 
z
" transform="scale(0.015625)"/>
      <path id="DejaVuSans-78" d="M 3513 3500 
L 2247 1797 
L 3578 0 
L 2900 0 
L 1881 1375 
L 863 0 
L 184 0 
L 1544 1831 
L 300 3500 
L 978 3500 
L 1906 2253 
L 2834 3500 
L 3513 3500 
z
" transform="scale(0.015625)"/>
      <path id="DejaVuSans-70" d="M 1159 525 
L 1159 -1331 
L 581 -1331 
L 581 3500 
L 1159 3500 
L 1159 2969 
Q 1341 3281 1617 3432 
Q 1894 3584 2278 3584 
Q 2916 3584 3314 3078 
Q 3713 2572 3713 1747 
Q 3713 922 3314 415 
Q 2916 -91 2278 -91 
Q 1894 -91 1617 61 
Q 1341 213 1159 525 
z
M 3116 1747 
Q 3116 2381 2855 2742 
Q 2594 3103 2138 3103 
Q 1681 3103 1420 2742 
Q 1159 2381 1159 1747 
Q 1159 1113 1420 752 
Q 1681 391 2138 391 
Q 2594 391 2855 752 
Q 3116 1113 3116 1747 
z
" transform="scale(0.015625)"/>
      <path id="DejaVuSans-65" d="M 3597 1894 
L 3597 1613 
L 953 1613 
Q 991 1019 1311 708 
Q 1631 397 2203 397 
Q 2534 397 2845 478 
Q 3156 559 3463 722 
L 3463 178 
Q 3153 47 2828 -22 
Q 2503 -91 2169 -91 
Q 1331 -91 842 396 
Q 353 884 353 1716 
Q 353 2575 817 3079 
Q 1281 3584 2069 3584 
Q 2775 3584 3186 3129 
Q 3597 2675 3597 1894 
z
M 3022 2063 
Q 3016 2534 2758 2815 
Q 2500 3097 2075 3097 
Q 1594 3097 1305 2825 
Q 1016 2553 972 2059 
L 3022 2063 
z
" transform="scale(0.015625)"/>
      <path id="DejaVuSans-63" d="M 3122 3366 
L 3122 2828 
Q 2878 2963 2633 3030 
Q 2388 3097 2138 3097 
Q 1578 3097 1268 2742 
Q 959 2388 959 1747 
Q 959 1106 1268 751 
Q 1578 397 2138 397 
Q 2388 397 2633 464 
Q 2878 531 3122 666 
L 3122 134 
Q 2881 22 2623 -34 
Q 2366 -91 2075 -91 
Q 1284 -91 818 406 
Q 353 903 353 1747 
Q 353 2603 823 3093 
Q 1294 3584 2113 3584 
Q 2378 3584 2631 3529 
Q 2884 3475 3122 3366 
z
" transform="scale(0.015625)"/>
      <path id="DejaVuSans-74" d="M 1172 4494 
L 1172 3500 
L 2356 3500 
L 2356 3053 
L 1172 3053 
L 1172 1153 
Q 1172 725 1289 603 
Q 1406 481 1766 481 
L 2356 481 
L 2356 0 
L 1766 0 
Q 1100 0 847 248 
Q 594 497 594 1153 
L 594 3053 
L 172 3053 
L 172 3500 
L 594 3500 
L 594 4494 
L 1172 4494 
z
" transform="scale(0.015625)"/>
      <path id="DejaVuSans-64" d="M 2906 2969 
L 2906 4863 
L 3481 4863 
L 3481 0 
L 2906 0 
L 2906 525 
Q 2725 213 2448 61 
Q 2172 -91 1784 -91 
Q 1150 -91 751 415 
Q 353 922 353 1747 
Q 353 2572 751 3078 
Q 1150 3584 1784 3584 
Q 2172 3584 2448 3432 
Q 2725 3281 2906 2969 
z
M 947 1747 
Q 947 1113 1208 752 
Q 1469 391 1925 391 
Q 2381 391 2643 752 
Q 2906 1113 2906 1747 
Q 2906 2381 2643 2742 
Q 2381 3103 1925 3103 
Q 1469 3103 1208 2742 
Q 947 2381 947 1747 
z
" transform="scale(0.015625)"/>
      <path id="DejaVuSans-20" transform="scale(0.015625)"/>
      <path id="DejaVuSans-6f" d="M 1959 3097 
Q 1497 3097 1228 2736 
Q 959 2375 959 1747 
Q 959 1119 1226 758 
Q 1494 397 1959 397 
Q 2419 397 2687 759 
Q 2956 1122 2956 1747 
Q 2956 2369 2687 2733 
Q 2419 3097 1959 3097 
z
M 1959 3584 
Q 2709 3584 3137 3096 
Q 3566 2609 3566 1747 
Q 3566 888 3137 398 
Q 2709 -91 1959 -91 
Q 1206 -91 779 398 
Q 353 888 353 1747 
Q 353 2609 779 3096 
Q 1206 3584 1959 3584 
z
" transform="scale(0.015625)"/>
      <path id="DejaVuSans-75" d="M 544 1381 
L 544 3500 
L 1119 3500 
L 1119 1403 
Q 1119 906 1312 657 
Q 1506 409 1894 409 
Q 2359 409 2629 706 
Q 2900 1003 2900 1516 
L 2900 3500 
L 3475 3500 
L 3475 0 
L 2900 0 
L 2900 538 
Q 2691 219 2414 64 
Q 2138 -91 1772 -91 
Q 1169 -91 856 284 
Q 544 659 544 1381 
z
M 1991 3584 
L 1991 3584 
z
" transform="scale(0.015625)"/>
      <path id="DejaVuSans-73" d="M 2834 3397 
L 2834 2853 
Q 2591 2978 2328 3040 
Q 2066 3103 1784 3103 
Q 1356 3103 1142 2972 
Q 928 2841 928 2578 
Q 928 2378 1081 2264 
Q 1234 2150 1697 2047 
L 1894 2003 
Q 2506 1872 2764 1633 
Q 3022 1394 3022 966 
Q 3022 478 2636 193 
Q 2250 -91 1575 -91 
Q 1294 -91 989 -36 
Q 684 19 347 128 
L 347 722 
Q 666 556 975 473 
Q 1284 391 1588 391 
Q 1994 391 2212 530 
Q 2431 669 2431 922 
Q 2431 1156 2273 1281 
Q 2116 1406 1581 1522 
L 1381 1569 
Q 847 1681 609 1914 
Q 372 2147 372 2553 
Q 372 3047 722 3315 
Q 1072 3584 1716 3584 
Q 2034 3584 2315 3537 
Q 2597 3491 2834 3397 
z
" transform="scale(0.015625)"/>
      <path id="DejaVuSans-69" d="M 603 3500 
L 1178 3500 
L 1178 0 
L 603 0 
L 603 3500 
z
M 603 4863 
L 1178 4863 
L 1178 4134 
L 603 4134 
L 603 4863 
z
" transform="scale(0.015625)"/>
      <path id="DejaVuSans-67" d="M 2906 1791 
Q 2906 2416 2648 2759 
Q 2391 3103 1925 3103 
Q 1463 3103 1205 2759 
Q 947 2416 947 1791 
Q 947 1169 1205 825 
Q 1463 481 1925 481 
Q 2391 481 2648 825 
Q 2906 1169 2906 1791 
z
M 3481 434 
Q 3481 -459 3084 -895 
Q 2688 -1331 1869 -1331 
Q 1566 -1331 1297 -1286 
Q 1028 -1241 775 -1147 
L 775 -588 
Q 1028 -725 1275 -790 
Q 1522 -856 1778 -856 
Q 2344 -856 2625 -561 
Q 2906 -266 2906 331 
L 2906 616 
Q 2728 306 2450 153 
Q 2172 0 1784 0 
Q 1141 0 747 490 
Q 353 981 353 1791 
Q 353 2603 747 3093 
Q 1141 3584 1784 3584 
Q 2172 3584 2450 3431 
Q 2728 3278 2906 2969 
L 2906 3500 
L 3481 3500 
L 3481 434 
z
" transform="scale(0.015625)"/>
      <path id="DejaVuSans-6e" d="M 3513 2113 
L 3513 0 
L 2938 0 
L 2938 2094 
Q 2938 2591 2744 2837 
Q 2550 3084 2163 3084 
Q 1697 3084 1428 2787 
Q 1159 2491 1159 1978 
L 1159 0 
L 581 0 
L 581 3500 
L 1159 3500 
L 1159 2956 
Q 1366 3272 1645 3428 
Q 1925 3584 2291 3584 
Q 2894 3584 3203 3211 
Q 3513 2838 3513 2113 
z
" transform="scale(0.015625)"/>
      <path id="DejaVuSans-61" d="M 2194 1759 
Q 1497 1759 1228 1600 
Q 959 1441 959 1056 
Q 959 750 1161 570 
Q 1363 391 1709 391 
Q 2188 391 2477 730 
Q 2766 1069 2766 1631 
L 2766 1759 
L 2194 1759 
z
M 3341 1997 
L 3341 0 
L 2766 0 
L 2766 531 
Q 2569 213 2275 61 
Q 1981 -91 1556 -91 
Q 1019 -91 701 211 
Q 384 513 384 1019 
Q 384 1609 779 1909 
Q 1175 2209 1959 2209 
L 2766 2209 
L 2766 2266 
Q 2766 2663 2505 2880 
Q 2244 3097 1772 3097 
Q 1472 3097 1187 3025 
Q 903 2953 641 2809 
L 641 3341 
Q 956 3463 1253 3523 
Q 1550 3584 1831 3584 
Q 2591 3584 2966 3190 
Q 3341 2797 3341 1997 
z
" transform="scale(0.015625)"/>
      <path id="DejaVuSans-6c" d="M 603 4863 
L 1178 4863 
L 1178 0 
L 603 0 
L 603 4863 
z
" transform="scale(0.015625)"/>
     </defs>
     <use xlink:href="#DejaVuSans-45"/>
     <use xlink:href="#DejaVuSans-78" x="63.183594"/>
     <use xlink:href="#DejaVuSans-70" x="122.363281"/>
     <use xlink:href="#DejaVuSans-65" x="185.839844"/>
     <use xlink:href="#DejaVuSans-63" x="247.363281"/>
     <use xlink:href="#DejaVuSans-74" x="302.34375"/>
     <use xlink:href="#DejaVuSans-65" x="341.552734"/>
     <use xlink:href="#DejaVuSans-64" x="403.076172"/>
     <use xlink:href="#DejaVuSans-20" x="466.552734"/>
     <use xlink:href="#DejaVuSans-6f" x="498.339844"/>
     <use xlink:href="#DejaVuSans-75" x="559.521484"/>
     <use xlink:href="#DejaVuSans-74" x="622.900391"/>
     <use xlink:href="#DejaVuSans-70" x="662.109375"/>
     <use xlink:href="#DejaVuSans-75" x="725.585938"/>
     <use xlink:href="#DejaVuSans-74" x="788.964844"/>
     <use xlink:href="#DejaVuSans-20" x="828.173828"/>
     <use xlink:href="#DejaVuSans-73" x="859.960938"/>
     <use xlink:href="#DejaVuSans-69" x="912.060547"/>
     <use xlink:href="#DejaVuSans-67" x="939.84375"/>
     <use xlink:href="#DejaVuSans-6e" x="1003.320312"/>
     <use xlink:href="#DejaVuSans-61" x="1066.699219"/>
     <use xlink:href="#DejaVuSans-6c" x="1127.978516"/>
    </g>
   </g>
   <g id="patch_10">
    <path d="M 649.342607 293.996179 
L 663.226731 293.996179 
L 663.226731 273.308305 
L 649.342607 273.308305 
L 649.342607 293.996179 
z
" clip-path="url(#pf271f906da)" style="fill: none; opacity: 0.5; stroke: #000000; stroke-linejoin: miter"/>
   </g>
   <g id="patch_11">
    <path d="M 775.584009 336.40632 
Q 712.463308 315.201249 649.342607 293.996179 
" style="fill: none; opacity: 0.5; stroke: #000000; stroke-linecap: round"/>
   </g>
   <g id="patch_12">
    <path d="M 775.584009 151.663608 
Q 712.463308 212.485957 649.342607 273.308305 
" style="fill: none; opacity: 0.5; stroke: #000000; stroke-linecap: round"/>
   </g>
   <g id="axes_2">
    <g id="patch_13">
     <path d="M 775.584009 336.40632 
L 1067.601857 336.40632 
L 1067.601857 151.663608 
L 775.584009 151.663608 
z
" style="fill: #ffffff"/>
    </g>
    <g id="matplotlib.axis_3">
     <g id="xtick_1">
      <g id="line2d_12">
       <defs>
        <path id="m184b76c73e" d="M 0 0 
L 0 3.5 
" style="stroke: #000000; stroke-width: 0.8"/>
       </defs>
       <g>
        <use xlink:href="#m184b76c73e" x="817.196552" y="336.40632" style="stroke: #000000; stroke-width: 0.8"/>
       </g>
      </g>
     </g>
     <g id="xtick_2">
      <g id="line2d_13">
       <g>
        <use xlink:href="#m184b76c73e" x="860.755881" y="336.40632" style="stroke: #000000; stroke-width: 0.8"/>
       </g>
      </g>
     </g>
     <g id="xtick_3">
      <g id="line2d_14">
       <g>
        <use xlink:href="#m184b76c73e" x="904.31521" y="336.40632" style="stroke: #000000; stroke-width: 0.8"/>
       </g>
      </g>
     </g>
     <g id="xtick_4">
      <g id="line2d_15">
       <g>
        <use xlink:href="#m184b76c73e" x="947.874539" y="336.40632" style="stroke: #000000; stroke-width: 0.8"/>
       </g>
      </g>
     </g>
     <g id="xtick_5">
      <g id="line2d_16">
       <g>
        <use xlink:href="#m184b76c73e" x="991.433868" y="336.40632" style="stroke: #000000; stroke-width: 0.8"/>
       </g>
      </g>
     </g>
     <g id="xtick_6">
      <g id="line2d_17">
       <g>
        <use xlink:href="#m184b76c73e" x="1034.993197" y="336.40632" style="stroke: #000000; stroke-width: 0.8"/>
       </g>
      </g>
     </g>
    </g>
    <g id="matplotlib.axis_4">
     <g id="ytick_6">
      <g id="line2d_18">
       <g>
        <use xlink:href="#m8fbf4ab342" x="775.584009" y="336.40632" style="stroke: #000000; stroke-width: 0.8"/>
       </g>
      </g>
     </g>
     <g id="ytick_7">
      <g id="line2d_19">
       <g>
        <use xlink:href="#m8fbf4ab342" x="775.584009" y="313.313481" style="stroke: #000000; stroke-width: 0.8"/>
       </g>
      </g>
     </g>
     <g id="ytick_8">
      <g id="line2d_20">
       <g>
        <use xlink:href="#m8fbf4ab342" x="775.584009" y="290.220642" style="stroke: #000000; stroke-width: 0.8"/>
       </g>
      </g>
     </g>
     <g id="ytick_9">
      <g id="line2d_21">
       <g>
        <use xlink:href="#m8fbf4ab342" x="775.584009" y="267.127803" style="stroke: #000000; stroke-width: 0.8"/>
       </g>
      </g>
     </g>
     <g id="ytick_10">
      <g id="line2d_22">
       <g>
        <use xlink:href="#m8fbf4ab342" x="775.584009" y="244.034964" style="stroke: #000000; stroke-width: 0.8"/>
       </g>
      </g>
     </g>
     <g id="ytick_11">
      <g id="line2d_23">
       <g>
        <use xlink:href="#m8fbf4ab342" x="775.584009" y="220.942125" style="stroke: #000000; stroke-width: 0.8"/>
       </g>
      </g>
     </g>
     <g id="ytick_12">
      <g id="line2d_24">
       <g>
        <use xlink:href="#m8fbf4ab342" x="775.584009" y="197.849286" style="stroke: #000000; stroke-width: 0.8"/>
       </g>
      </g>
     </g>
     <g id="ytick_13">
      <g id="line2d_25">
       <g>
        <use xlink:href="#m8fbf4ab342" x="775.584009" y="174.756447" style="stroke: #000000; stroke-width: 0.8"/>
       </g>
      </g>
     </g>
     <g id="ytick_14">
      <g id="line2d_26">
       <g>
        <use xlink:href="#m8fbf4ab342" x="775.584009" y="151.663608" style="stroke: #000000; stroke-width: 0.8"/>
       </g>
      </g>
     </g>
    </g>
    <g id="line2d_27">
     <path d="M 702.579546 -1 
L 702.579546 8.488006 
L 775.584009 8.488006 
L 775.584009 85.156232 
L 848.588471 85.156232 
L 848.588471 164.595598 
L 921.592933 164.595598 
L 921.592933 244.034964 
L 994.597395 244.034964 
L 994.597395 323.47433 
L 1067.601857 323.47433 
L 1067.601857 402.913696 
L 1086.04 402.913696 
L 1086.04 402.913696 
" clip-path="url(#p32314bb706)" style="fill: none; stroke: #1f77b4; stroke-width: 1.5; stroke-linecap: square"/>
    </g>
    <g id="line2d_28">
     <path d="M 994.597395 336.40632 
L 994.597395 151.663608 
" clip-path="url(#p32314bb706)" style="fill: none; stroke-dasharray: 5.55,2.4; stroke-dashoffset: 0; stroke: #000000; stroke-width: 1.5"/>
    </g>
    <g id="patch_14">
     <path d="M 775.584009 336.40632 
L 775.584009 151.663608 
" style="fill: none; stroke: #000000; stroke-width: 0.8; stroke-linejoin: miter; stroke-linecap: square"/>
    </g>
    <g id="patch_15">
     <path d="M 1067.601857 336.40632 
L 1067.601857 151.663608 
" style="fill: none; stroke: #000000; stroke-width: 0.8; stroke-linejoin: miter; stroke-linecap: square"/>
    </g>
    <g id="patch_16">
     <path d="M 775.584009 336.40632 
L 1067.601857 336.40632 
" style="fill: none; stroke: #000000; stroke-width: 0.8; stroke-linejoin: miter; stroke-linecap: square"/>
    </g>
    <g id="patch_17">
     <path d="M 775.584009 151.663608 
L 1067.601857 151.663608 
" style="fill: none; stroke: #000000; stroke-width: 0.8; stroke-linejoin: miter; stroke-linecap: square"/>
    </g>
    <g id="patch_18">
     <path d="M 991.478689 234.797828 
Q 958.093752 234.797828 924.708815 234.797828 
" style="fill: none; stroke: #000000; stroke-linecap: round"/>
     <path d="M 987.478689 232.797828 
L 991.478689 234.797828 
L 987.478689 236.797828 
" style="fill: none; stroke: #000000; stroke-linecap: round"/>
     <path d="M 928.708815 236.797828 
L 924.708815 234.797828 
L 928.708815 232.797828 
" style="fill: none; stroke: #000000; stroke-linecap: round"/>
    </g>
    <g id="text_10">
     <!-- $f_{timer} = 60kHz$ -->
     <g transform="translate(925.045164 228.320068) scale(0.1 -0.1)">
      <defs>
       <path id="DejaVuSans-Oblique-72" d="M 2853 2969 
Q 2766 3016 2653 3041 
Q 2541 3066 2413 3066 
Q 1953 3066 1609 2717 
Q 1266 2369 1153 1784 
L 800 0 
L 225 0 
L 909 3500 
L 1484 3500 
L 1375 2956 
Q 1603 3259 1920 3421 
Q 2238 3584 2597 3584 
Q 2691 3584 2781 3573 
Q 2872 3563 2963 3538 
L 2853 2969 
z
" transform="scale(0.015625)"/>
       <path id="DejaVuSans-36" d="M 2113 2584 
Q 1688 2584 1439 2293 
Q 1191 2003 1191 1497 
Q 1191 994 1439 701 
Q 1688 409 2113 409 
Q 2538 409 2786 701 
Q 3034 994 3034 1497 
Q 3034 2003 2786 2293 
Q 2538 2584 2113 2584 
z
M 3366 4563 
L 3366 3988 
Q 3128 4100 2886 4159 
Q 2644 4219 2406 4219 
Q 1781 4219 1451 3797 
Q 1122 3375 1075 2522 
Q 1259 2794 1537 2939 
Q 1816 3084 2150 3084 
Q 2853 3084 3261 2657 
Q 3669 2231 3669 1497 
Q 3669 778 3244 343 
Q 2819 -91 2113 -91 
Q 1303 -91 875 529 
Q 447 1150 447 2328 
Q 447 3434 972 4092 
Q 1497 4750 2381 4750 
Q 2619 4750 2861 4703 
Q 3103 4656 3366 4563 
z
" transform="scale(0.015625)"/>
      </defs>
      <use xlink:href="#DejaVuSans-Oblique-66" transform="translate(0 0.015625)"/>
      <use xlink:href="#DejaVuSans-Oblique-74" transform="translate(35.205078 -16.390625) scale(0.7)"/>
      <use xlink:href="#DejaVuSans-Oblique-69" transform="translate(62.651367 -16.390625) scale(0.7)"/>
      <use xlink:href="#DejaVuSans-Oblique-6d" transform="translate(82.099609 -16.390625) scale(0.7)"/>
      <use xlink:href="#DejaVuSans-Oblique-65" transform="translate(150.288086 -16.390625) scale(0.7)"/>
      <use xlink:href="#DejaVuSans-Oblique-72" transform="translate(193.354492 -16.390625) scale(0.7)"/>
      <use xlink:href="#DejaVuSans-3d" transform="translate(244.350586 0.015625)"/>
      <use xlink:href="#DejaVuSans-36" transform="translate(347.62207 0.015625)"/>
      <use xlink:href="#DejaVuSans-30" transform="translate(411.245117 0.015625)"/>
      <use xlink:href="#DejaVuSans-Oblique-6b" transform="translate(474.868164 0.015625)"/>
      <use xlink:href="#DejaVuSans-Oblique-48" transform="translate(532.77832 0.015625)"/>
      <use xlink:href="#DejaVuSans-Oblique-7a" transform="translate(607.973633 0.015625)"/>
     </g>
    </g>
   </g>
  </g>
 </g>
 <defs>
  <clipPath id="pf271f906da">
   <rect x="135.63" y="61.2576" width="621.314571" height="393.0696"/>
  </clipPath>
  <clipPath id="p32314bb706">
   <rect x="775.584009" y="151.663608" width="292.017849" height="184.742712"/>
  </clipPath>
 </defs>
</svg>
