<?xml version="1.0" encoding="UTF-8" standalone="no"?><svg xmlns="http://www.w3.org/2000/svg" xmlns:xlink="http://www.w3.org/1999/xlink" contentStyleType="text/css" height="136px" preserveAspectRatio="none" style="width:808px;height:136px;background:#FFFFFF;" version="1.1" viewBox="0 0 808 136" width="808px" zoomAndPan="magnify"><defs/><g><text fill="#000000" font-family="sans-serif" font-size="14" font-weight="bold" lengthAdjust="spacing" textLength="170" x="317.5" y="34.5332">PWM DMA Output Signal</text><line style="stroke:#333333;stroke-width:0.5;" x1="10" x2="10" y1="48.6094" y2="124.3125"/><line style="stroke:#333333;stroke-width:0.5;" x1="796" x2="796" y1="48.6094" y2="124.3125"/><line style="stroke:#333333;stroke-width:0.5;stroke-dasharray:3.0,5.0;" x1="22" x2="22" y1="48.6094" y2="124.3125"/><line style="stroke:#333333;stroke-width:0.5;stroke-dasharray:3.0,5.0;" x1="72" x2="72" y1="48.6094" y2="124.3125"/><line style="stroke:#333333;stroke-width:0.5;stroke-dasharray:3.0,5.0;" x1="122" x2="122" y1="48.6094" y2="124.3125"/><line style="stroke:#333333;stroke-width:0.5;stroke-dasharray:3.0,5.0;" x1="172" x2="172" y1="48.6094" y2="124.3125"/><line style="stroke:#333333;stroke-width:0.5;stroke-dasharray:3.0,5.0;" x1="222" x2="222" y1="48.6094" y2="124.3125"/><line style="stroke:#333333;stroke-width:0.5;stroke-dasharray:3.0,5.0;" x1="272" x2="272" y1="48.6094" y2="124.3125"/><line style="stroke:#333333;stroke-width:0.5;stroke-dasharray:3.0,5.0;" x1="322" x2="322" y1="48.6094" y2="124.3125"/><line style="stroke:#333333;stroke-width:0.5;stroke-dasharray:3.0,5.0;" x1="372" x2="372" y1="48.6094" y2="124.3125"/><line style="stroke:#333333;stroke-width:0.5;stroke-dasharray:3.0,5.0;" x1="422" x2="422" y1="48.6094" y2="124.3125"/><line style="stroke:#333333;stroke-width:0.5;stroke-dasharray:3.0,5.0;" x1="472" x2="472" y1="48.6094" y2="124.3125"/><line style="stroke:#333333;stroke-width:0.5;stroke-dasharray:3.0,5.0;" x1="522" x2="522" y1="48.6094" y2="124.3125"/><line style="stroke:#333333;stroke-width:0.5;stroke-dasharray:3.0,5.0;" x1="572" x2="572" y1="48.6094" y2="124.3125"/><line style="stroke:#333333;stroke-width:0.5;stroke-dasharray:3.0,5.0;" x1="622" x2="622" y1="48.6094" y2="124.3125"/><line style="stroke:#333333;stroke-width:0.5;stroke-dasharray:3.0,5.0;" x1="672" x2="672" y1="48.6094" y2="124.3125"/><line style="stroke:#333333;stroke-width:0.5;stroke-dasharray:3.0,5.0;" x1="722" x2="722" y1="48.6094" y2="124.3125"/><line style="stroke:#333333;stroke-width:0.5;stroke-dasharray:3.0,5.0;" x1="772" x2="772" y1="48.6094" y2="124.3125"/><line style="stroke:#333333;stroke-width:0.5;" x1="10" x2="796" y1="48.6094" y2="48.6094"/><text fill="#333333" font-family="sans-serif" font-size="14" font-weight="bold" lengthAdjust="spacing" textLength="61" x="15" y="63.1426">TIM_CHx</text><line style="stroke:#333333;stroke-width:0.5;" x1="10" x2="77" y1="67.2188" y2="67.2188"/><line style="stroke:#333333;stroke-width:0.5;" x1="77" x2="87" y1="67.2188" y2="48.6094"/><text fill="#333333" font-family="sans-serif" font-size="12" lengthAdjust="spacing" textLength="7" x="15" y="118.2227">0</text><text fill="#333333" font-family="sans-serif" font-size="12" lengthAdjust="spacing" textLength="7" x="15" y="98.2227">1</text><line style="stroke:#006400;stroke-width:2.0;" x1="22" x2="23" y1="112.3125" y2="112.3125"/><line style="stroke:#006400;stroke-width:2.0;" x1="23" x2="54" y1="92.3125" y2="92.3125"/><line style="stroke:#006400;stroke-width:2.0;" x1="54" x2="148" y1="112.3125" y2="112.3125"/><line style="stroke:#006400;stroke-width:2.0;" x1="148" x2="210" y1="92.3125" y2="92.3125"/><line style="stroke:#006400;stroke-width:2.0;" x1="210" x2="273" y1="112.3125" y2="112.3125"/><line style="stroke:#006400;stroke-width:2.0;" x1="273" x2="366" y1="92.3125" y2="92.3125"/><line style="stroke:#006400;stroke-width:2.0;" x1="366" x2="398" y1="112.3125" y2="112.3125"/><line style="stroke:#006400;stroke-width:2.0;" x1="398" x2="429" y1="92.3125" y2="92.3125"/><line style="stroke:#006400;stroke-width:2.0;" x1="429" x2="523" y1="112.3125" y2="112.3125"/><line style="stroke:#006400;stroke-width:2.0;" x1="523" x2="585" y1="92.3125" y2="92.3125"/><line style="stroke:#006400;stroke-width:2.0;" x1="585" x2="648" y1="112.3125" y2="112.3125"/><line style="stroke:#006400;stroke-width:2.0;" x1="648" x2="741" y1="92.3125" y2="92.3125"/><line style="stroke:#006400;stroke-width:2.0;" x1="741" x2="791" y1="112.3125" y2="112.3125"/><line style="stroke:#006400;stroke-width:2.0;" x1="23" x2="23" y1="92.3125" y2="112.3125"/><line style="stroke:#006400;stroke-width:2.0;" x1="54" x2="54" y1="92.3125" y2="112.3125"/><line style="stroke:#006400;stroke-width:2.0;" x1="148" x2="148" y1="92.3125" y2="112.3125"/><line style="stroke:#006400;stroke-width:2.0;" x1="210" x2="210" y1="92.3125" y2="112.3125"/><line style="stroke:#006400;stroke-width:2.0;" x1="273" x2="273" y1="92.3125" y2="112.3125"/><line style="stroke:#006400;stroke-width:2.0;" x1="366" x2="366" y1="92.3125" y2="112.3125"/><line style="stroke:#006400;stroke-width:2.0;" x1="398" x2="398" y1="92.3125" y2="112.3125"/><line style="stroke:#006400;stroke-width:2.0;" x1="429" x2="429" y1="92.3125" y2="112.3125"/><line style="stroke:#006400;stroke-width:2.0;" x1="523" x2="523" y1="92.3125" y2="112.3125"/><line style="stroke:#006400;stroke-width:2.0;" x1="585" x2="585" y1="92.3125" y2="112.3125"/><line style="stroke:#006400;stroke-width:2.0;" x1="648" x2="648" y1="92.3125" y2="112.3125"/><line style="stroke:#006400;stroke-width:2.0;" x1="741" x2="741" y1="92.3125" y2="112.3125"/><line style="stroke:#8B0000;stroke-width:1.5;" x1="24.5" x2="145.5" y1="87.3125" y2="87.3125"/><polygon fill="#8B0000" points="32.5,91.3125,32.5,83.3125,24.5,87.3125" style="stroke:#8B0000;stroke-width:2.0;"/><polygon fill="#8B0000" points="137.5,91.3125,137.5,83.3125,145.5,87.3125" style="stroke:#8B0000;stroke-width:2.0;"/><text fill="#8B0000" font-family="sans-serif" font-size="12" lengthAdjust="spacing" textLength="25" x="72.5" y="79.6758">25%</text><line style="stroke:#8B0000;stroke-width:1.5;" x1="150.5" x2="270.5" y1="87.3125" y2="87.3125"/><polygon fill="#8B0000" points="158.5,91.3125,158.5,83.3125,150.5,87.3125" style="stroke:#8B0000;stroke-width:2.0;"/><polygon fill="#8B0000" points="262.5,91.3125,262.5,83.3125,270.5,87.3125" style="stroke:#8B0000;stroke-width:2.0;"/><text fill="#8B0000" font-family="sans-serif" font-size="12" lengthAdjust="spacing" textLength="25" x="198" y="79.6758">50%</text><line style="stroke:#8B0000;stroke-width:1.5;" x1="275.5" x2="395.5" y1="87.3125" y2="87.3125"/><polygon fill="#8B0000" points="283.5,91.3125,283.5,83.3125,275.5,87.3125" style="stroke:#8B0000;stroke-width:2.0;"/><polygon fill="#8B0000" points="387.5,91.3125,387.5,83.3125,395.5,87.3125" style="stroke:#8B0000;stroke-width:2.0;"/><text fill="#8B0000" font-family="sans-serif" font-size="12" lengthAdjust="spacing" textLength="25" x="323" y="79.6758">75%</text><!--MD5=[8154424cf0e2db59f23ea6117ee10ec8]
@startuml
Title PWM DMA Output Signal
<style>
timingDiagram {
.default {
    LineColor green
    LineThickness 1
}
.blue {
    LineColor blue
    LineThickness 1
}
.red {
    LineColor red
    LineThickness 1
}
}
</style>
hide footbox
hide time-axis
robust "TIM_CHx" as TIM_CHx
scale 100 as 50 pixels
@0
TIM_CHx is 0

@2
TIM_CHx is 1

@64
TIM_CHx is 0

@252
TIM_CHx is 1

@376
TIM_CHx is 0

@502
TIM_CHx is 1

@688
TIM_CHx is 0

@752
TIM_CHx is 1

@814
TIM_CHx is 0

@1002
TIM_CHx is 1

@1126
TIM_CHx is 0

@1252
TIM_CHx is 1

@1438
TIM_CHx is 0

@0 <-> @252 : 25%
@252 <-> @502 : 50%
@502 <-> @752 : 75%
@enduml

PlantUML version 1.2022.13(Sat Nov 19 14:22:17 WAT 2022)
(GPL source distribution)
Java Runtime: OpenJDK Runtime Environment
JVM: OpenJDK 64-Bit Server VM
Default Encoding: Cp1252
Language: en
Country: US
--></g></svg>